<?xml version="1.0" encoding="UTF-8" standalone="no"?>
<svg
   xmlns:dc="http://purl.org/dc/elements/1.1/"
   xmlns:cc="http://creativecommons.org/ns#"
   xmlns:rdf="http://www.w3.org/1999/02/22-rdf-syntax-ns#"
   xmlns:svg="http://www.w3.org/2000/svg"
   xmlns="http://www.w3.org/2000/svg"
   xmlns:sodipodi="http://sodipodi.sourceforge.net/DTD/sodipodi-0.dtd"
   xmlns:inkscape="http://www.inkscape.org/namespaces/inkscape"
   width="490.88223"
   height="110.42349"
   viewBox="0 0 194 194"
   id="svg2"
   sodipodi:version="0.32"
   inkscape:version="0.46"
   sodipodi:docname="CMG logo.svg"
   inkscape:output_extension="org.inkscape.output.svg.inkscape"
   version="1.0">
  <metadata
     id="metadata19">
    <rdf:RDF>
      <cc:Work
         rdf:about="">
        <dc:format>image/svg+xml</dc:format>
        <dc:type
           rdf:resource="http://purl.org/dc/dcmitype/StillImage" />
      </cc:Work>
    </rdf:RDF>
  </metadata>
  <defs
     id="defs17">
    <inkscape:perspective
       sodipodi:type="inkscape:persp3d"
       inkscape:vp_x="0 : 121.25 : 1"
       inkscape:vp_y="0 : 1000 : 0"
       inkscape:vp_z="242.5 : 121.25 : 1"
       inkscape:persp3d-origin="121.25 : 80.833333 : 1"
       id="perspective21" />
  </defs>
  <sodipodi:namedview
     inkscape:window-height="667"
     inkscape:window-width="640"
     inkscape:pageshadow="2"
     inkscape:pageopacity="0.0"
     guidetolerance="10.0"
     gridtolerance="10.0"
     objecttolerance="10.0"
     borderopacity="1.0"
     bordercolor="#666666"
     pagecolor="#ffffff"
     id="base"
     showgrid="false"
     inkscape:zoom="1.9051546"
     inkscape:cx="463.47087"
     inkscape:cy="-41.695787"
     inkscape:window-x="132"
     inkscape:window-y="138"
     inkscape:current-layer="svg2" />
  <g
     id="g2394"
     transform="matrix(4.6218003,0,0,4.6218003,-334.20875,0)">
    <g
       id="g4"
       style="fill:#004288;fill-rule:evenodd;stroke:none;stroke-width:1;stroke-linecap:butt;stroke-linejoin:miter;stroke-dasharray:none"
       transform="translate(-2.0343204e-2,0)">
      <path
         id="path6"
         d="M 54.2549,0 C 54.2549,0 19.2354,0 19.2354,0 C 18.9122,0 11.1827,0.0654 5.57715,5.6894 C 1.8711,9.4082 0,14.6006 0.02051,21.125 C 0.08301,41.7183 18.8438,41.9943 19.0332,41.9943 C 19.0362,41.9943 56.3301,41.9753 56.3301,41.9753 C 56.3301,41.9753 56.3321,27.5137 56.3321,27.5137 C 56.3321,27.5137 22.3282,27.5137 22.3282,27.5137 C 21.3682,27.5029 16.5489,27.1396 16.5342,20.9795 C 16.5206,14.8789 21.337,14.5176 22.3038,14.5068 C 22.3038,14.5068 56.2813,14.5068 56.2813,14.5068 C 56.2813,14.5068 56.2803,0 56.2803,0 C 56.2803,0 54.2549,0 54.2549,0 z M 4.07129,21.1113 C 4.01953,4.3398 18.6221,4.0556 19.2442,4.0508 C 19.2442,4.0508 48.6329,4.0508 52.2295,4.0508 C 52.2295,6.0517 52.2295,8.4551 52.2295,10.456 C 48.6758,10.456 22.295,10.456 22.295,10.456 C 22.1338,10.456 18.1612,10.4765 15.2989,13.3349 C 13.4229,15.209 12.4766,17.7832 12.4854,20.9902 C 12.4922,24.2217 13.4561,26.8135 15.3477,28.6953 C 18.2188,31.5508 22.17,31.5654 22.337,31.5654 C 22.337,31.5654 48.7266,31.5654 52.2784,31.5654 C 52.2784,33.5586 52.2784,35.9355 52.2784,37.9277 C 48.6827,37.9297 19.0342,37.9414 19.0342,37.9414 C 18.4366,37.9365 4.12207,37.6279 4.07129,21.1113 z" />
    </g>
    <g
       id="g8"
       style="fill:#004288;fill-rule:evenodd;stroke:none;stroke-width:1;stroke-linecap:butt;stroke-linejoin:miter;stroke-dasharray:none"
       transform="translate(59.832217,0)">
      <path
         id="path10"
         d="M 65.9972,0 C 65.9972,0 51.4952,0 51.4952,0 C 51.4952,0 36.7812,21.664 34.0039,25.7519 C 31.2334,21.6621 16.542,0 16.542,0 C 16.542,0 0.0137,0 0.0137,0 C 0.0137,0 0,41.9683 0,41.9683 C 0,41.9683 14.4883,41.9683 14.4883,41.9683 C 14.4883,41.9683 14.4902,29.6308 14.4931,22.7109 C 18.8789,29.2353 27.457,41.9943 27.457,41.9943 C 27.457,41.9943 40.5172,41.9823 40.5172,41.9823 C 40.5172,41.9823 49.1412,29.2119 53.5402,22.6982 C 53.5382,29.6133 53.5322,41.9653 53.5322,41.9653 C 53.5322,41.9653 68.0202,41.9653 68.0202,41.9653 C 68.0202,41.9653 68.0232,0 68.0232,0 C 68.0232,0 65.9972,0 65.9972,0 z M 63.9712,4.0508 C 63.9712,7.4775 63.9692,34.4873 63.9692,37.914 C 61.9702,37.914 59.5832,37.914 57.5852,37.914 C 57.5872,34.5205 57.5942,9.456 57.5942,9.456 C 57.5942,9.456 39.4792,36.2803 38.3632,37.9336 C 36.8096,37.9346 31.1748,37.9404 29.6142,37.9404 C 28.498,36.2803 10.4443,9.4287 10.4443,9.4287 C 10.4443,9.4287 10.4375,34.5254 10.4375,37.916 C 8.4414,37.916 6.0527,37.916 4.0527,37.916 C 4.0527,34.4902 4.0615,7.4756 4.0635,4.0508 C 6.707,4.0508 12.873,4.0508 14.3926,4.0508 C 15.5224,5.7158 34.0029,32.9638 34.0029,32.9638 C 34.0029,32.9638 52.5092,5.7138 53.6402,4.0508 C 55.1592,4.0508 61.3242,4.0508 63.9712,4.0508 z" />
    </g>
    <g
       id="g12"
       style="fill:#004288;fill-rule:evenodd;stroke:none;stroke-width:1;stroke-linecap:butt;stroke-linejoin:miter;stroke-dasharray:none"
       transform="translate(130.53842,3.32e-2)">
      <path
         id="path14"
         d="M 54.256,0 C 54.256,0 19.239,0 19.239,0 C 18.909,0 11.183,0.0654 5.577,5.6894 C 1.871,9.4082 0,14.5996 0.02,21.1269 C 0.083,41.7211 18.844,41.9921 19.034,41.9921 C 19.041,41.9921 56.281,41.9721 56.281,41.9721 C 56.281,41.9721 56.281,18.5195 56.281,18.5195 C 56.281,18.5195 42.168,18.5195 42.168,18.5195 C 42.168,18.5195 42.168,25.081 42.168,27.5127 C 38.835,27.5127 22.344,27.5127 22.333,27.5127 C 21.368,27.5039 16.55,27.1406 16.536,20.9814 C 16.534,20.9707 16.534,20.9639 16.534,20.9551 C 16.534,14.8789 21.339,14.5185 22.303,14.5068 C 22.303,14.5068 56.283,14.5068 56.283,14.5068 C 56.283,14.5068 56.281,0 56.281,0 C 56.281,0 54.256,0 54.256,0 z M 4.073,21.1133 C 4.021,4.3398 18.622,4.0556 19.246,4.0508 C 19.246,4.0508 48.636,4.0508 52.231,4.0508 C 52.231,6.0508 52.231,8.4541 52.231,10.456 C 48.678,10.456 22.297,10.456 22.297,10.456 C 22.136,10.456 18.166,10.4746 15.301,13.3369 C 13.431,15.2012 12.483,17.7637 12.483,20.9541 C 12.483,20.9658 12.483,20.9775 12.483,20.9902 C 12.492,24.2217 13.455,26.8135 15.349,28.6953 C 18.186,31.5176 22.086,31.5644 22.332,31.5644 C 22.332,31.5644 22.328,31.5644 22.328,31.5644 C 22.328,31.5644 46.221,31.5644 46.221,31.5644 C 46.221,31.5644 46.221,25.0029 46.221,22.5722 C 48.15,22.5722 50.299,22.5722 52.231,22.5722 C 52.231,25.4414 52.231,35.0537 52.231,37.9228 C 48.634,37.9238 19.036,37.9433 19.036,37.9433 C 18.439,37.9385 4.123,37.626 4.073,21.1133 z" />
    </g>
  </g>
</svg>
