<svg xmlns="http://www.w3.org/2000/svg" viewBox="0 0 1365.87 872.72"><defs><style>.cls-1{fill:#e4004e}</style></defs><g id="Layer_2" data-name="Layer 2"><g id="Laag_1" data-name="Laag 1"><path class="cls-1" d="M124.16 62.07A62.08 62.08 0 1 1 62.07 0a62.08 62.08 0 0 1 62.07 62.07M1239.68 454.22v-80.7c0-24.14 3.32-65.86 10-81.39q19.2-44.11 70.83-44.1c19.56 0 34.6 5 45.36 14.81v-99.35c-4.14-.25-8.33-.42-12.64-.42q-48.2 0-79.64 23.66-17.49 13.25-37.1 43.38v-57h-99v283.8c0 28.9-23.43 53.59-52.32 53.59s-52.33-24.74-52.33-53.61V300.31q0-73.47-38.37-105.22t-98.71-31.72q-48.21 0-79.63 23.66-17.5 13.25-37.11 43.38v-57.32h-98.95v284.59a53.14 53.14 0 0 1-52.81 52.8c-28.91 0-51.89-23.9-51.89-52.8V300.76q0-73.47-38.36-105.22t-98.72-31.78q-48.19 0-79.63 23.67-17.51 13.24-37.1 43.37v-57.71h-99v282.09a55.37 55.37 0 1 1-110.74 0V173.09h-99v282c0 86.12 68.2 134.44 154.32 134.44S324.7 541.21 324.7 455.09v-76.44c0-24.16 3.32-70.25 10-85.78q19.24-44.12 70.87-44.11 42 0 56.93 30.11c4.4 8.89 7 20.94 7.86 36.06v139.71c0 86.14 70.81 134.84 156.93 134.84s155-48.72 155-134.84v-80.8c0-24.15 3.32-65.88 10-81.41q19.2-44.08 70.83-44.09 42 0 56.92 30.1c4.41 8.89 7 20.94 7.86 36.07v139.71c0 86.12 71.81 135.06 157.94 135.06s153.92-48.94 153.92-135.06M89.4 802.9c.39 11.67 10.5 18.48 25.67 18.48 15 0 24.51-6 24.51-16.34 0-8.75-4.67-13.42-16.15-15L103 786.76c-18.67-3.12-27.23-12.06-27.23-26.84 0-17.31 16.54-28.4 38.12-28.4 23.15 0 39.88 11.09 40.07 30.73h-15.75c-.38-11.86-10.3-18.28-24.11-18.28-13.62 0-22.56 5.83-22.56 15.56 0 8.36 5.44 12.44 17.7 14.19l20 3.31c17.89 2.92 26.45 11.48 26.45 26.65 0 19.45-17.7 30.14-40.26 30.14-25.87 0-41.82-12.06-42.2-30.92zM316.56 769.84v62h-16.14v-59.28c0-18.67-8.95-26.26-22.76-26.26-13.42 0-24.12 8.75-24.7 27.81v57.77h-15.75v-58c0-18.28-8.37-27.62-22.57-27.62-15.55 0-24.89 10.11-24.89 26.84v58.74h-15.91v-98.38h14l2.33 11.48c5.25-9.14 15.75-13.42 27-13.42 14.78 0 26.45 6.42 32.09 19.06 6-13.23 19.06-19.06 31.51-19.06 21.59 0 35.79 14.39 35.79 38.32zM428.77 819.43v12.45h-9.72c-7.78 0-15-3.11-16-13.42-5.84 9.14-18.67 15.36-34.42 15.36-22 0-35.6-11.47-35.6-30.14 0-15.76 9.73-28.4 37.73-28.4h31.12v-5.44c0-17.7-10.31-25.09-24.89-25.09-15 0-24.31 7.19-25.09 18.86h-15.32c1.17-20.81 18.09-32.09 41-32.09 24.51 0 40.46 13.42 40.46 38.12v42.21c0 6.22 1.55 7.58 7.19 7.58zm-26.84-32.29h-29.56c-16.92 0-22.75 7-22.75 16.34 0 11.48 9.14 17.12 21.78 17.12 16.14 0 30.53-9 30.53-29zM496.84 733.46v14.79h-13c-16.92 0-24.51 11.08-24.51 29.36v54.27h-16v-98.42h14l2.14 14c4.08-7.78 13.42-14 24.89-14zM520.37 807.18v-59.32h-17.7v-14.4H512c6.22 0 8.36-2.72 8.36-8.75v-17h16v25.7h23.14v14.4h-23.18V805c0 7.19 2.33 12.45 11.86 12.45h11.09v14.39h-14.78c-14.59.04-24.12-7.94-24.12-24.66zM625.2 831.88h-16V688.76h16zM648.14 733.46h16v98.42h-16zM777.28 733.46v94.14c0 27.42-18.47 45.12-46.68 45.12-23.92 0-40.84-13-44.53-33.06h16.53c3.3 13 14.19 19.64 28 19.64 19.84 0 30.93-11.67 30.93-29.17v-18.67c-5.84 11.47-19.06 18.3-34.23 18.3-24.7 0-44-18.09-44-49s19.06-49.21 44.15-49.21c14.78 0 27.23 6.61 33.84 17.89l2-16zm-16.14 47.66c0-21.2-12.45-35.6-31.12-35.6s-30.18 14.59-30.18 35.4c0 21.2 11.67 35 30.15 35s31.15-13.61 31.15-34.8zM887.16 773.92v58h-15.94v-55.28c0-21.2-10.12-30.34-25.87-30.14-19.06 0-29.37 13.42-29.37 31.89v53.49H800V688.76h16v59.32c6-10.5 18.48-16.53 32.68-16.53 18.84-.03 38.48 10.08 38.48 42.37zM914.78 807.18v-59.32h-17.7v-14.4h9.33c6.23 0 8.37-2.72 8.37-8.75v-17h16v25.7h23.06v14.4H930.7V805c0 7.19 2.33 12.45 11.86 12.45h11.09v14.39h-14.79c-14.55.04-24.08-7.94-24.08-24.66zM970.4 733.46h16v98.42h-16zM1096.23 773v58.93h-16v-55.68c0-20.42-10.69-30.14-26.64-30.14-18.48 0-28.4 13.22-28.4 32.48v53.29h-16v-98.42h14l1.75 15.18c5.64-10.9 17.11-17.12 32.28-17.12 24.62 0 39.01 16.34 39.01 41.48zM1208.26 733.46v94.14c0 27.42-18.48 45.12-46.68 45.12-23.93 0-40.85-13-44.54-33.06h16.53c3.31 13 14.2 19.64 28 19.64 19.84 0 30.92-11.67 30.92-29.17v-18.67c-5.83 11.47-19.06 18.28-34.23 18.28-24.7 0-44-18.09-44-49s19.06-49.21 44.15-49.21c14.78 0 27.22 6.61 33.84 17.89l1.94-15.95zm-16.15 47.66c0-21.2-12.45-35.6-31.12-35.6s-30.15 14.59-30.15 35.4c0 21.2 11.67 35 30.14 35s31.13-13.61 31.13-34.8zM668.7 703.16a12 12 0 0 1-15.86 11.4 11.57 11.57 0 0 1-7.54-7.56 12 12 0 1 1 22.8-7.49 11.74 11.74 0 0 1 .6 3.62M990.7 703.16a12 12 0 1 1-12-12 12 12 0 0 1 12 12"/></g></g></svg>