<?xml version="1.0" encoding="UTF-8" standalone="no"?>
<svg
   xmlns:dc="http://purl.org/dc/elements/1.1/"
   xmlns:cc="http://creativecommons.org/ns#"
   xmlns:rdf="http://www.w3.org/1999/02/22-rdf-syntax-ns#"
   xmlns:svg="http://www.w3.org/2000/svg"
   xmlns="http://www.w3.org/2000/svg"
   version="1.1"
   id="svg4954"
   viewBox="0 0 284.84508 68.526032"
   height="19.339569mm"
   width="80.38961mm">
  <defs
     id="defs4956" />
  <metadata
     id="metadata4959">
    <rdf:RDF>
      <cc:Work
         rdf:about="">
        <dc:format>image/svg+xml</dc:format>
        <dc:type
           rdf:resource="http://purl.org/dc/dcmitype/StillImage" />
        <dc:title></dc:title>
      </cc:Work>
    </rdf:RDF>
  </metadata>
  <g
     transform="translate(-409.23391,-489.53972)"
     id="layer1">
    <g
       transform="matrix(2.4002114,0,0,2.4002114,-573.01403,-781.41009)"
       id="g5514">
      <path
         d="m 436.85768,529.76578 0,27.625 -27.62375,0 27.62375,-27.625 z"
         style="fill:#e01e25;fill-opacity:1;fill-rule:evenodd;stroke:none"
         id="path120" />
      <path
         d="m 456.49643,548.37828 c 0,3.575 2.7875,5.0375 5.975,5.0375 2.125,0 5.3125,-0.6625 5.3125,-3.45 0,-2.925 -3.975,-3.45 -8.1,-4.5125 -3.975,-1.0625 -8.1,-2.525 -8.1,-7.7 0,-5.5875 5.3125,-8.2375 10.225,-8.2375 5.7125,0 10.8875,2.525 10.8875,8.7625 -5.8375,0 -5.8375,0 -5.8375,0 -0.1375,-3.3125 -2.525,-4.1125 -5.3125,-4.1125 -1.9875,0 -4.1125,0.8 -4.1125,3.05 0,2.125 1.325,2.3875 8.1,4.125 1.9875,0.525 8.1,1.85 8.1,7.9625 0,5.05 -3.9875,8.7625 -11.2875,8.7625 -6.1125,0 -11.6875,-2.925 -11.6875,-9.6875"
         style="fill:#000000;fill-opacity:1;fill-rule:evenodd;stroke:none"
         id="path122" />
      <path
         d="m 477.20893,530.19078 5.975,0 0,10.4875 11.0125,0 0,-10.4875 5.975,0 0,27.225 -5.975,0 0,-11.8125 -11.0125,0 0,11.8125 -5.975,0 0,-27.225 z"
         style="fill:#000000;fill-opacity:1;fill-rule:evenodd;stroke:none"
         id="path124" />
      <path
         d="m 518.89643,557.41578 -6.7875,0 -8.875,-27.225 6.225,0 5.975,19.125 0.1375,0 6.1125,-19.125 6.225,0 -9.0125,27.225 z"
         style="fill:#000000;fill-opacity:1;fill-rule:evenodd;stroke:none"
         id="path126" />
    </g>
  </g>
</svg>
