<svg xmlns="http://www.w3.org/2000/svg" version="1.0" style="" preserveAspectRatio="xMidYMid meet" viewBox="8.6 43.49 528.51 117.49">
<g fill="#A91500FF" stroke="#A91500FF">
<path d="M 10.428 70.883 C 10.749 71.403 10.471 72.010 9.809 72.230 C 8.880 72.540 8.872 73.302 9.773 75.566 C 10.415 77.180 11.456 82.550 12.085 87.500 C 12.714 92.450 13.662 97.321 14.190 98.325 C 14.719 99.329 15.299 102.876 15.479 106.207 C 15.660 109.538 16.248 112.541 16.787 112.881 C 17.326 113.222 18.034 117.096 18.360 121.492 C 18.686 125.888 19.396 129.632 19.938 129.813 C 20.479 129.993 20.658 131.459 20.336 133.070 C 20.013 134.687 20.181 136.000 20.713 136.000 C 21.243 136.000 21.739 137.463 21.816 139.250 C 21.894 141.038 22.417 144.072 22.978 145.993 C 23.540 147.915 24.000 150.759 24.000 152.315 C 24.000 153.870 24.679 155.822 25.509 156.652 C 26.339 157.482 26.763 158.575 26.450 159.081 C 26.110 159.631 37.100 160.000 53.864 160.000 L 81.847 160.000 84.685 157.611 C 87.484 155.256 88.796 150.173 91.425 131.500 C 92.103 126.686 93.127 121.619 93.750 120.000 C 94.325 118.505 94.638 117.513 94.875 116.429 C 94.944 116.114 95.675 116.532 96.500 117.357 C 97.624 118.482 98.000 121.254 98.000 128.429 C 98.000 133.693 98.411 138.000 98.914 138.000 C 99.416 138.000 99.528 139.101 99.164 140.447 C 98.799 141.793 98.649 146.327 98.832 150.523 C 99.090 156.473 99.464 158.036 100.531 157.627 C 101.418 157.286 101.703 157.611 101.342 158.551 C 100.864 159.797 105.002 160.000 130.814 160.000 L 160.841 160.000 161.538 156.750 C 161.922 154.963 162.517 153.050 162.861 152.500 C 163.920 150.807 165.909 142.651 165.956 139.809 C 165.980 138.329 166.450 136.840 167.000 136.500 C 167.550 136.160 168.000 134.109 168.000 131.941 C 168.000 129.773 168.354 128.000 168.786 128.000 C 169.218 128.000 170.363 124.288 171.330 119.750 C 172.298 115.213 173.744 108.995 174.545 105.934 C 175.345 102.873 176.000 98.737 176.000 96.743 C 176.000 94.749 176.481 92.821 177.068 92.458 C 177.656 92.095 177.900 91.183 177.612 90.431 C 177.323 89.679 177.464 88.831 177.924 88.547 C 179.185 87.768 182.000 78.531 182.000 75.171 C 182.000 71.193 180.127 70.814 160.877 70.898 C 144.491 70.969 142.000 71.326 142.000 73.607 C 142.000 74.373 141.550 75.000 141.000 75.000 C 140.450 75.000 140.000 77.448 140.000 80.441 C 140.000 83.434 139.550 86.160 139.000 86.500 C 138.450 86.840 138.000 89.146 138.000 91.625 C 138.000 94.103 137.535 97.000 136.967 98.061 C 136.399 99.123 135.786 102.679 135.604 105.965 C 135.422 109.251 134.986 111.653 134.636 111.303 C 134.286 110.953 134.000 111.957 134.000 113.533 C 134.000 118.094 132.285 115.175 131.081 108.566 C 130.486 105.303 130.000 99.655 130.000 96.016 C 130.000 92.377 129.518 88.918 128.930 88.330 C 128.341 87.741 127.870 84.051 127.882 80.130 C 127.899 74.812 127.563 73.000 126.559 73.000 C 125.819 73.000 124.967 72.357 124.666 71.572 C 124.218 70.405 120.470 70.125 104.198 70.044 C 93.022 69.987 83.120 70.384 81.639 70.947 C 80.188 71.499 79.000 71.616 79.000 71.207 C 79.000 70.049 68.653 70.054 67.250 71.213 C 66.563 71.780 66.000 73.952 66.000 76.039 C 66.000 78.126 65.478 80.007 64.840 80.220 C 64.172 80.443 63.532 83.340 63.331 87.053 C 62.669 99.306 61.806 106.504 60.862 107.654 C 60.340 108.289 60.198 109.940 60.545 111.322 C 61.025 113.235 60.682 114.100 59.112 114.940 C 57.340 115.888 56.980 115.723 56.557 113.772 C 55.911 110.786 55.133 101.657 54.573 90.500 C 54.008 79.252 53.096 72.844 51.844 71.322 C 50.631 69.848 9.519 69.412 10.428 70.883 M 46.000 77.000 C 45.175 77.533 44.950 77.976 45.500 77.984 C 46.050 77.992 46.500 80.587 46.500 83.750 C 46.500 91.454 47.700 102.804 48.905 106.500 C 49.443 108.150 50.112 114.225 50.391 120.000 C 51.084 134.308 51.964 136.902 56.628 138.382 C 59.312 139.234 63.016 136.012 62.948 132.883 C 62.879 129.701 64.013 120.876 64.733 119.000 C 65.049 118.175 65.491 116.375 65.715 115.000 C 65.939 113.625 66.545 112.350 67.061 112.167 C 67.578 111.983 68.000 109.422 68.000 106.476 C 68.000 103.529 68.450 100.840 69.000 100.500 C 69.550 100.160 70.000 97.524 70.000 94.641 C 70.000 91.758 70.432 88.968 70.961 88.439 C 71.490 87.910 72.052 85.120 72.211 82.239 C 72.424 78.370 72.892 77.004 74.000 77.015 C 74.825 77.023 85.468 76.910 97.651 76.765 L 119.803 76.500 120.889 83.500 C 121.487 87.350 122.185 92.525 122.441 95.000 C 124.051 110.559 125.641 121.693 126.429 122.929 C 126.930 123.716 127.440 127.091 127.562 130.429 C 127.684 133.768 127.832 136.613 127.892 136.750 C 127.951 136.888 127.967 137.320 127.926 137.711 C 127.830 138.637 130.924 139.840 133.631 139.930 C 135.357 139.987 135.992 139.096 136.969 135.250 C 137.633 132.638 138.394 128.475 138.660 126.000 C 138.926 123.525 140.237 116.401 141.572 110.170 C 142.907 103.938 144.000 97.166 144.000 95.120 C 144.000 93.074 144.421 90.972 144.936 90.450 C 145.451 89.927 146.060 87.129 146.288 84.231 C 146.517 81.334 146.994 78.673 147.348 78.318 C 148.016 77.651 173.189 77.856 173.868 78.534 C 174.735 79.401 174.167 84.279 173.124 84.924 C 172.180 85.507 171.422 89.018 170.785 95.750 C 170.720 96.438 170.331 97.000 169.922 97.000 C 169.512 97.000 169.294 97.788 169.437 98.750 C 169.580 99.713 169.357 101.175 168.942 102.000 C 167.056 105.748 165.179 113.882 164.788 120.000 C 164.629 122.475 164.096 124.793 163.602 125.150 C 162.841 125.702 162.569 127.316 162.059 134.309 C 162.027 134.754 161.568 134.851 161.039 134.524 C 160.257 134.041 158.596 141.271 158.518 145.500 C 158.508 146.050 157.938 146.860 157.250 147.300 C 156.563 147.740 156.000 149.315 156.000 150.800 L 156.001 153.500 131.250 153.279 C 117.638 153.157 106.050 153.038 105.500 153.013 C 104.950 152.989 105.126 152.573 105.892 152.088 C 107.560 151.032 107.064 139.590 104.500 120.000 C 103.600 113.125 102.692 104.193 102.482 100.151 C 101.986 90.607 100.262 87.771 95.215 88.193 L 91.550 88.500 90.307 95.960 C 89.330 101.821 89.324 103.587 90.281 104.195 C 91.135 104.738 90.997 104.974 89.817 104.985 C 87.798 105.003 87.264 106.738 87.045 113.978 C 86.955 116.991 86.494 119.695 86.022 119.986 C 85.231 120.475 82.367 139.484 81.760 148.271 C 81.617 150.345 81.163 152.032 80.750 152.021 C 80.338 152.009 69.272 152.000 56.160 152.000 L 32.320 152.000 30.993 147.980 C 30.264 145.769 29.701 143.181 29.743 142.230 C 29.785 141.278 29.010 137.350 28.020 133.500 C 27.030 129.650 25.876 123.800 25.456 120.500 C 25.036 117.200 24.559 113.825 24.396 113.000 C 23.383 107.882 22.796 104.856 21.822 99.750 C 21.220 96.588 20.366 94.000 19.926 94.000 C 19.486 94.000 19.364 92.532 19.655 90.738 C 19.976 88.760 19.391 85.216 18.168 81.738 L 16.151 76.000 31.826 76.015 C 42.315 76.026 47.004 76.351 46.000 77.000 "/></g>
<g fill="#A91500FF" stroke="#A91500FF">
<path d="M 372.500 67.008 C 370.300 67.490 366.513 67.911 364.083 67.942 C 361.654 67.974 359.966 68.299 360.332 68.665 C 360.698 69.031 359.929 69.445 358.623 69.584 C 353.083 70.175 342.000 77.189 342.000 80.105 C 342.000 80.563 341.325 80.678 340.500 80.362 C 339.541 79.994 339.000 80.380 339.000 81.434 C 339.000 82.340 338.032 84.390 336.849 85.990 C 335.666 87.591 334.602 90.483 334.484 92.419 C 334.367 94.354 333.985 95.651 333.635 95.302 C 333.286 94.953 333.000 95.176 333.000 95.798 C 333.000 98.259 337.404 99.000 352.033 99.000 C 369.204 99.000 373.122 97.957 374.878 92.919 C 375.774 90.351 376.376 90.000 379.889 90.000 C 382.085 90.000 384.211 89.468 384.613 88.817 C 385.070 88.078 385.405 88.467 385.508 89.853 C 385.597 91.073 386.105 92.505 386.635 93.035 C 387.901 94.301 387.098 101.179 385.780 100.364 C 385.228 100.023 384.408 100.340 383.958 101.068 C 383.352 102.049 379.323 102.463 368.426 102.663 C 354.393 102.922 344.000 104.737 344.000 106.928 C 344.000 107.351 342.256 108.483 340.125 109.444 C 337.849 110.470 334.945 113.043 333.086 115.680 C 330.004 120.053 329.926 120.430 330.081 130.258 C 330.263 141.856 331.049 145.358 334.226 148.741 C 335.477 150.072 336.346 151.462 336.159 151.831 C 335.971 152.199 337.462 152.889 339.472 153.364 C 342.128 153.992 342.969 154.639 342.550 155.730 C 342.102 156.898 342.603 157.138 344.811 156.814 C 346.423 156.578 348.200 156.989 348.927 157.767 C 349.630 158.519 350.820 158.899 351.571 158.611 C 352.322 158.323 353.202 158.518 353.527 159.044 C 354.314 160.317 367.710 160.278 368.500 159.000 C 368.840 158.450 370.216 158.000 371.559 158.000 C 372.902 158.000 374.000 157.550 374.000 157.000 C 374.000 156.450 374.948 156.000 376.107 156.000 C 377.460 156.000 378.029 155.519 377.698 154.656 C 377.323 153.678 377.882 153.446 379.755 153.804 C 381.726 154.181 382.195 153.951 381.762 152.821 C 381.302 151.623 381.879 151.466 384.848 151.985 C 386.857 152.336 388.421 153.057 388.325 153.586 C 388.229 154.115 388.990 155.662 390.017 157.024 C 391.875 159.490 391.962 159.501 411.566 159.828 L 431.250 160.156 430.512 156.828 C 430.106 154.998 429.413 140.675 428.971 125.000 C 428.529 109.325 428.137 96.050 428.100 95.500 C 428.062 94.950 428.286 92.700 428.597 90.500 C 429.078 87.091 428.780 86.142 426.581 84.076 C 425.161 82.742 424.000 81.284 424.000 80.834 C 424.000 79.621 417.884 74.000 416.563 74.000 C 415.936 74.000 413.658 73.100 411.500 72.000 C 409.342 70.900 406.547 70.000 405.289 70.000 C 404.030 70.000 403.000 69.602 403.000 69.116 C 403.000 67.461 378.242 65.749 372.500 67.008 M 397.500 73.411 C 404.189 74.070 406.156 74.510 405.470 75.196 C 405.156 75.511 406.383 76.285 408.199 76.915 C 414.855 79.228 416.654 80.387 419.052 83.907 L 421.500 87.500 421.238 119.500 L 420.976 151.500 407.488 151.196 L 394.000 150.892 394.000 144.477 C 394.000 138.781 393.804 138.137 392.250 138.728 C 391.288 139.094 389.680 140.430 388.677 141.697 C 387.675 142.964 386.213 144.000 385.427 144.000 C 384.642 144.000 384.000 144.450 384.000 145.000 C 384.000 145.550 383.116 146.000 382.035 146.000 C 380.955 146.000 379.626 146.831 379.082 147.846 C 377.048 151.647 369.831 153.275 357.910 152.624 C 346.183 151.983 342.441 150.604 341.424 146.551 C 341.119 145.340 340.085 143.782 339.125 143.090 C 337.604 141.993 337.434 140.466 337.800 131.166 C 338.203 120.924 339.752 115.000 342.026 115.000 C 342.562 115.000 342.947 114.663 342.882 114.250 C 342.816 113.838 342.816 113.606 342.882 113.735 C 342.947 113.865 345.267 113.077 348.037 111.985 C 351.864 110.477 355.456 110.000 362.988 110.000 C 368.440 110.000 375.252 109.496 378.126 108.880 C 384.387 107.537 390.544 103.320 392.845 98.799 C 394.363 95.816 394.379 95.196 393.012 92.324 C 390.332 86.696 386.203 84.003 380.250 84.001 C 376.249 84.000 375.000 84.357 375.000 85.500 C 375.000 86.448 374.045 87.000 372.406 87.000 C 370.654 87.000 369.643 87.649 369.290 89.000 C 368.801 90.869 367.926 91.000 355.942 91.000 C 348.889 91.000 342.891 90.633 342.614 90.184 C 341.905 89.037 344.500 81.833 345.324 82.658 C 345.696 83.029 346.000 82.657 346.000 81.830 C 346.000 79.344 359.735 73.338 364.161 73.889 C 365.075 74.003 366.045 73.737 366.316 73.298 C 366.828 72.469 388.747 72.549 397.500 73.411 "/></g>
<g fill="#A91500FF" stroke="#A91500FF">
<path d="M 479.340 68.264 C 479.978 68.684 478.590 68.740 476.255 68.387 C 469.926 67.431 452.071 73.165 452.738 75.939 C 452.869 76.483 452.390 76.703 451.675 76.429 C 450.225 75.872 442.504 84.556 442.492 86.756 C 442.488 87.524 442.190 87.857 441.830 87.496 C 440.090 85.757 438.500 99.605 438.500 116.500 L 438.500 134.500 441.467 139.000 C 443.099 141.475 444.449 143.854 444.467 144.286 C 444.485 144.719 445.101 145.444 445.835 145.898 C 446.570 146.352 447.132 147.011 447.085 147.362 C 446.817 149.369 447.136 150.070 448.250 149.925 C 451.122 149.552 453.000 150.078 453.000 151.256 C 453.000 151.947 454.463 153.132 456.250 153.890 C 458.038 154.648 460.850 155.841 462.500 156.541 C 464.150 157.242 467.300 158.077 469.500 158.398 C 471.700 158.718 475.790 159.396 478.590 159.905 C 484.674 161.009 498.982 160.418 500.396 159.004 C 500.948 158.452 502.687 158.000 504.259 158.000 C 505.831 158.000 506.864 157.590 506.554 157.088 C 506.244 156.586 506.780 156.307 507.745 156.469 C 510.547 156.936 520.756 151.040 525.950 145.954 C 532.887 139.162 537.794 128.014 536.361 122.303 C 535.790 120.028 535.602 120.000 520.892 120.000 C 511.293 120.000 506.000 120.368 506.000 121.035 C 506.000 121.749 505.399 121.749 504.066 121.035 C 501.713 119.776 497.005 119.711 495.110 120.911 C 494.346 121.395 493.631 123.679 493.521 125.987 C 493.280 131.047 491.902 132.113 486.003 131.803 C 481.509 131.567 481.505 131.564 481.214 127.534 C 480.168 113.065 479.994 100.000 480.846 100.000 C 481.378 100.000 481.577 99.100 481.290 98.000 C 480.986 96.838 481.259 96.000 481.942 96.000 C 482.589 96.000 482.850 95.566 482.523 95.036 C 481.772 93.822 485.760 89.734 486.967 90.480 C 487.459 90.784 488.126 90.605 488.450 90.081 C 488.773 89.558 490.243 90.248 491.717 91.614 C 493.966 93.697 494.352 94.812 494.123 98.545 C 493.677 105.801 494.218 106.002 514.179 105.986 C 523.705 105.979 532.513 105.701 533.750 105.370 C 535.674 104.854 535.999 104.095 535.994 100.133 C 535.988 94.687 534.312 88.000 532.953 88.000 C 532.429 88.000 532.000 87.273 532.000 86.384 C 532.000 84.682 522.564 75.109 520.629 74.848 C 518.657 74.582 517.483 74.236 518.000 74.073 C 519.481 73.608 511.017 70.077 508.333 70.042 C 506.592 70.019 505.017 69.585 504.833 69.077 C 504.650 68.569 498.578 68.006 491.340 67.827 C 484.102 67.647 478.702 67.844 479.340 68.264 M 503.000 74.397 C 507.675 75.290 512.295 76.158 513.268 76.326 C 514.240 76.494 514.803 76.864 514.519 77.148 C 514.235 77.431 515.240 78.302 516.752 79.082 C 518.263 79.862 520.372 81.288 521.439 82.250 C 522.505 83.213 523.691 84.000 524.075 84.000 C 525.487 84.000 528.000 90.922 528.000 94.811 L 528.000 98.820 519.750 99.493 C 515.213 99.863 509.025 100.016 506.000 99.833 C 500.889 99.524 500.500 99.323 500.500 97.000 C 500.500 95.625 499.375 92.591 498.000 90.258 C 495.877 86.655 495.010 86.014 492.250 86.008 C 490.463 86.003 489.000 85.564 489.000 85.031 C 489.000 84.499 488.328 84.321 487.506 84.636 C 486.684 84.952 486.235 85.570 486.507 86.012 C 486.780 86.453 486.148 86.590 485.104 86.317 C 482.649 85.675 479.000 87.634 479.000 89.594 C 479.000 90.432 478.582 90.860 478.072 90.544 C 476.875 89.805 475.646 93.619 476.590 95.146 C 477.009 95.824 476.875 96.041 476.268 95.666 C 473.883 94.192 473.179 118.824 475.330 128.500 C 476.745 134.863 479.943 138.071 487.119 140.328 C 490.088 141.261 498.880 134.525 498.967 131.250 C 498.985 130.563 499.398 130.000 499.883 130.000 C 500.369 130.000 501.017 129.042 501.324 127.870 C 501.709 126.395 502.386 125.934 503.522 126.370 C 504.425 126.717 510.227 127.000 516.415 127.000 C 527.490 127.000 527.662 127.035 527.416 129.250 C 527.279 130.488 527.129 132.405 527.083 133.510 C 527.038 134.616 525.875 136.734 524.500 138.217 C 523.125 139.699 522.000 141.545 522.000 142.319 C 522.000 143.092 519.750 144.793 517.000 146.098 C 514.250 147.404 512.000 148.959 512.000 149.554 C 512.000 150.149 510.763 150.720 509.250 150.822 C 504.517 151.140 486.449 153.729 487.500 153.937 C 488.050 154.046 486.587 154.218 484.249 154.318 C 481.911 154.418 479.999 154.265 479.999 153.978 C 480.000 153.471 470.060 151.318 463.000 150.297 C 461.075 150.019 459.350 149.388 459.167 148.895 C 458.983 148.403 458.196 148.000 457.417 148.000 C 456.638 148.000 456.000 147.660 456.000 147.244 C 456.000 146.828 454.763 145.939 453.250 145.269 C 450.379 143.996 449.591 142.575 446.018 132.225 C 444.573 128.040 444.076 124.933 444.523 122.894 C 444.892 121.213 445.227 114.812 445.266 108.669 C 445.306 102.526 445.687 96.825 446.114 96.000 C 446.541 95.175 447.161 92.813 447.491 90.750 C 447.877 88.332 448.628 87.000 449.604 87.000 C 450.437 87.000 450.883 86.619 450.595 86.153 C 450.307 85.688 451.459 83.888 453.154 82.153 C 454.850 80.419 455.846 78.955 455.369 78.900 C 454.891 78.845 457.650 77.743 461.500 76.451 C 465.350 75.158 468.050 74.050 467.500 73.988 C 466.950 73.926 469.313 73.827 472.750 73.769 C 476.188 73.711 479.000 73.255 479.000 72.755 C 479.000 71.497 492.738 72.436 503.000 74.397 "/></g>
<g fill="#A91500FF" stroke="#A91500FF">
<path d="M 274.000 44.840 C 274.000 45.302 272.200 46.274 270.000 47.000 C 267.800 47.726 266.000 48.590 266.000 48.920 C 266.000 49.250 264.988 50.654 263.750 52.038 C 259.893 56.355 257.845 60.912 258.023 64.780 C 258.117 66.826 258.150 68.950 258.098 69.500 C 258.043 70.071 255.872 70.352 253.043 70.156 C 248.533 69.844 248.036 70.024 247.539 72.156 C 246.745 75.567 247.358 88.981 248.309 88.991 C 248.754 88.996 248.840 89.450 248.500 90.000 C 247.856 91.041 248.404 91.189 253.678 91.397 C 255.426 91.466 257.102 91.769 257.404 92.070 C 257.705 92.372 257.986 106.982 258.028 124.538 C 258.095 152.346 258.311 156.686 259.707 158.229 C 261.145 159.818 263.499 160.000 282.620 160.000 C 303.019 160.000 303.976 159.913 305.017 157.968 C 305.754 156.591 306.007 145.781 305.802 124.467 L 305.500 92.999 314.500 92.967 C 320.043 92.948 324.076 92.468 325.000 91.718 C 326.882 90.190 327.430 72.930 325.634 71.765 C 325.010 71.361 320.118 71.024 314.761 71.015 L 305.022 71.000 305.229 68.500 C 305.433 66.034 305.560 66.000 314.468 65.986 C 328.781 65.965 328.124 66.506 327.924 54.888 C 327.830 49.468 327.390 45.259 326.946 45.533 C 326.502 45.808 325.856 45.575 325.510 45.016 C 324.741 43.772 274.000 43.598 274.000 44.840 M 317.250 51.330 C 319.861 50.952 320.000 51.135 320.000 54.966 L 320.000 59.000 315.250 59.118 C 312.638 59.184 310.116 59.168 309.646 59.084 C 307.741 58.742 305.015 60.215 305.650 61.242 C 306.068 61.919 305.762 62.123 304.852 61.774 C 304.041 61.462 302.344 61.986 301.081 62.939 C 299.298 64.284 298.685 65.921 298.332 70.278 L 297.879 75.887 301.462 76.559 C 303.432 76.928 308.409 76.916 312.522 76.530 L 320.000 75.829 320.000 80.915 L 320.000 86.000 311.750 86.118 C 307.213 86.184 302.904 86.156 302.176 86.058 C 298.167 85.515 298.000 86.924 298.000 121.229 C 298.000 150.896 297.841 154.153 296.418 153.607 C 295.548 153.273 288.236 153.000 280.168 153.001 L 265.500 153.001 265.777 120.886 C 265.986 96.729 265.752 88.407 264.834 87.300 C 264.015 86.313 262.224 85.940 259.388 86.165 L 255.162 86.502 254.816 82.160 C 254.429 77.282 255.695 76.000 260.899 76.000 C 264.994 76.000 266.000 73.746 266.000 64.574 C 266.000 57.433 266.170 56.855 269.089 54.065 L 272.179 51.113 291.767 51.045 C 302.541 51.008 311.572 50.761 311.836 50.497 C 312.100 50.233 312.807 50.402 313.408 50.873 C 314.009 51.344 315.738 51.550 317.250 51.330 "/></g>
<g fill="#A91500FF" stroke="#A91500FF">
<path d="M 193.750 71.392 C 192.132 72.620 192.000 75.903 192.000 114.932 C 192.000 149.150 192.257 157.400 193.358 158.500 C 195.116 160.259 236.000 160.709 236.000 158.970 C 236.000 158.371 236.450 158.160 237.000 158.500 C 238.556 159.462 238.357 72.757 236.800 71.200 C 235.007 69.407 196.137 69.580 193.750 71.392 M 230.607 79.582 C 230.273 80.452 230.000 97.102 230.000 116.582 L 230.000 152.000 215.000 152.000 L 200.000 152.000 200.000 115.000 L 200.000 78.000 215.607 78.000 C 229.428 78.000 231.145 78.181 230.607 79.582 "/></g>
<g fill="#A91500FF" stroke="#A91500FF">
<path d="M 195.251 45.250 C 193.780 47.100 193.622 62.839 195.057 64.569 C 196.847 66.725 235.477 66.666 237.640 64.503 C 238.789 63.354 239.076 60.932 238.878 54.070 C 238.646 46.006 238.420 45.080 236.560 44.581 C 235.427 44.276 225.893 44.021 215.372 44.014 C 201.253 44.004 195.985 44.327 195.251 45.250 M 218.353 50.817 C 224.373 50.638 229.003 50.899 229.002 51.417 C 229.001 51.921 229.300 52.033 229.667 51.667 C 230.495 50.839 230.558 57.288 229.735 58.620 C 229.082 59.676 205.185 60.511 202.252 59.580 C 200.814 59.124 200.524 58.191 200.828 55.003 C 201.188 51.237 202.102 50.384 205.250 50.882 C 205.663 50.947 206.007 50.438 206.015 49.750 C 206.027 48.802 206.232 48.818 206.866 49.817 C 207.493 50.807 210.353 51.056 218.353 50.817 "/></g>
<g fill="#A91500FF" stroke="#A91500FF">
<path d="M 390.575 109.141 C 389.516 110.163 387.670 111.000 386.471 111.000 C 385.273 111.000 383.078 112.125 381.595 113.500 C 380.111 114.875 378.018 116.000 376.943 116.000 C 375.868 116.000 373.018 117.999 370.609 120.443 C 366.834 124.271 366.239 125.446 366.304 128.943 C 366.345 131.174 366.744 133.000 367.189 133.000 C 367.635 133.000 368.000 133.627 368.000 134.393 C 368.000 135.913 370.731 137.482 374.059 137.875 C 374.641 137.944 374.840 138.450 374.500 139.000 C 373.897 139.976 375.498 140.497 377.500 139.977 C 378.050 139.834 379.340 139.757 380.367 139.805 C 384.197 139.986 391.892 133.293 391.964 129.719 C 391.984 128.739 392.602 127.706 393.338 127.424 C 394.913 126.819 394.999 111.551 393.442 108.891 C 392.590 107.435 392.317 107.459 390.575 109.141 M 387.507 120.022 C 388.269 122.423 387.310 127.421 385.354 131.250 C 384.117 133.670 383.375 134.000 379.175 134.000 C 374.627 134.000 374.342 133.835 373.135 130.496 C 371.477 125.911 372.397 123.350 376.312 121.654 C 383.566 118.510 384.552 118.132 385.683 118.068 C 386.333 118.030 387.154 118.910 387.507 120.022 "/></g>
</svg>