<svg xmlns="http://www.w3.org/2000/svg" version="1.0" preserveAspectRatio="xMidYMid meet" viewBox="32.13 33.28 905.74 291.04">

<g transform="translate(0.000000,342.000000) scale(0.100000,-0.100000)" fill="#0f2e5d" stroke="none">
<path d="M501 3079 c-79 -23 -148 -93 -171 -174 -8 -29 -10 -332 -8 -1095 3 -1007 4 -1057 22 -1090 26 -49 74 -98 121 -123 l40 -22 2541 -5 2541 -5 40 -50 c129 -164 308 -271 534 -321 101 -23 324 -23 449 0 224 40 479 119 815 253 322 128 220 117 1050 123 677 5 722 6 755 24 49 26 98 74 123 121 l22 40 3 1055 c2 783 0 1066 -9 1098 -14 52 -77 125 -133 155 l-41 22 -4330 2 c-2767 1 -4342 -2 -4364 -8z m3367 -304 c25 -20 79 -148 323 -761 219 -548 301 -744 322 -765 32 -33 88 -46 123 -30 14 6 33 28 42 49 15 33 17 88 17 537 0 539 1 524 -54 609 -15 23 -43 46 -70 60 -25 12 -51 32 -57 46 -16 33 -27 181 -15 199 13 20 1139 17 1206 -4 135 -40 238 -154 276 -305 19 -76 17 -295 -4 -383 -33 -135 -97 -222 -187 -254 -27 -10 -50 -21 -50 -26 0 -14 89 -185 151 -288 124 -208 253 -379 286 -379 6 0 27 11 47 25 21 14 53 32 72 40 20 8 39 25 46 42 15 37 21 523 11 893 -8 279 -9 286 -32 319 -13 18 -43 42 -67 52 -30 14 -45 28 -53 51 -14 39 -14 168 -1 202 l10 26 704 0 704 0 46 -32 c27 -19 95 -94 161 -178 64 -80 242 -296 398 -481 l282 -335 3 323 c3 374 5 363 -85 411 -32 17 -64 41 -72 54 -9 13 -17 59 -19 109 -4 84 -4 86 23 107 27 22 35 22 350 22 250 0 324 -3 328 -13 13 -35 30 -230 21 -245 -6 -8 -34 -22 -62 -30 -37 -10 -62 -26 -87 -53 l-35 -39 0 -719 c0 -433 -4 -730 -10 -745 -14 -38 -53 -58 -123 -63 -46 -4 -72 -1 -94 10 -19 10 -119 128 -259 304 -125 158 -338 425 -471 592 l-243 303 1 -383 c0 -280 4 -394 13 -419 9 -26 25 -42 62 -62 72 -40 101 -76 109 -140 4 -29 5 -67 3 -83 l-3 -30 -105 -7 c-208 -15 -310 -45 -504 -147 -574 -304 -1056 -328 -1367 -70 -121 101 -387 494 -523 772 -99 202 -125 239 -154 220 -15 -9 -17 -35 -20 -214 -3 -241 1 -253 92 -293 30 -13 56 -32 59 -43 3 -10 9 -55 13 -101 11 -135 89 -122 -718 -122 -777 0 -738 -4 -759 73 -13 48 -6 125 13 157 7 11 23 23 36 27 13 3 28 17 34 32 12 31 2 125 -18 163 -28 55 -43 58 -240 58 -179 0 -183 0 -211 -24 -16 -14 -44 -57 -62 -96 -41 -89 -37 -114 20 -131 22 -7 44 -20 48 -28 5 -9 16 -59 26 -110 16 -91 16 -96 -1 -108 -23 -17 -1254 -19 -1285 -3 -27 15 -45 55 -58 131 -17 103 -17 103 44 135 36 17 64 40 78 63 21 35 22 44 25 386 2 231 0 347 -7 340 -9 -9 -267 -625 -386 -920 -27 -66 -53 -126 -58 -132 -7 -10 -52 -13 -163 -13 -148 0 -154 1 -168 23 -8 12 -81 250 -163 530 -81 279 -150 507 -153 507 -8 0 -93 -607 -92 -657 2 -67 24 -99 82 -118 27 -9 62 -28 78 -43 26 -25 29 -35 36 -120 5 -67 3 -98 -5 -108 -10 -12 -67 -14 -342 -12 l-330 3 -18 25 c-12 16 -21 51 -25 97 -9 99 4 128 71 158 63 28 101 74 114 141 10 47 78 627 102 865 6 64 9 137 5 163 -9 55 -45 102 -87 111 -41 9 -55 36 -70 137 -10 71 -10 90 1 103 11 13 58 15 346 15 319 0 335 -1 354 -20 11 -11 22 -32 25 -47 18 -86 58 -218 174 -577 72 -219 132 -400 134 -403 8 -7 342 752 404 920 14 37 38 81 53 97 l28 30 264 0 c242 0 266 -2 281 -18 31 -34 60 -209 39 -237 -4 -6 -20 -17 -35 -25 -16 -8 -42 -29 -58 -47 -26 -30 -29 -41 -29 -101 0 -124 51 -967 61 -1005 14 -54 41 -77 89 -77 34 0 47 6 82 43 36 37 76 124 338 732 187 433 308 702 326 723 19 22 51 41 94 57 85 31 121 31 158 0z"/>
<path d="M6960 2470 c-34 -11 -67 -32 -88 -54 l-32 -36 2 -589 3 -589 24 -26 c15 -16 40 -28 68 -32 59 -9 83 -45 83 -126 0 -80 12 -108 48 -108 41 0 91 19 101 39 5 9 12 55 16 101 4 47 12 90 17 96 5 7 24 15 43 18 73 14 70 -9 70 637 l0 578 -34 35 c-70 72 -207 96 -321 56z"/>
<path d="M5180 2211 l0 -209 24 -6 c32 -8 160 9 215 29 153 54 198 208 92 318 -48 50 -133 77 -247 77 l-84 0 0 -209z"/>
<path d="M3683 2098 c-4 -7 -22 -47 -38 -88 -17 -41 -59 -137 -94 -212 -34 -76 -59 -142 -56 -148 9 -14 375 -14 375 1 0 11 -123 370 -146 427 -14 34 -28 40 -41 20z"/>
</g>
</svg>