<svg xmlns="http://www.w3.org/2000/svg" version="1.0" style="" preserveAspectRatio="xMidYMid meet" viewBox="25.13 26.49 643.74 248.84">
<g fill="#000000FF" stroke="#000000FF">
<path d="M 297.316 52.242 C 283.392 66.125 272.000 78.064 272.000 78.773 C 272.000 79.482 272.788 80.360 273.750 80.723 C 274.713 81.086 280.000 84.312 285.500 87.893 C 295.552 94.436 299.380 96.768 304.000 99.162 C 305.375 99.874 309.178 102.379 312.450 104.729 C 315.723 107.078 318.962 109.000 319.649 109.000 C 320.335 109.000 322.002 110.013 323.352 111.250 C 324.702 112.488 327.520 114.400 329.614 115.500 C 331.709 116.600 336.678 119.638 340.656 122.250 C 344.635 124.863 348.135 127.000 348.435 127.000 C 348.735 127.000 351.938 129.025 355.553 131.500 C 359.169 133.975 362.389 136.000 362.710 136.000 C 363.031 136.000 365.815 137.688 368.896 139.750 L 374.500 143.500 365.463 143.158 C 357.692 142.864 355.926 143.111 352.861 144.919 L 349.298 147.022 346.741 145.011 C 344.420 143.185 342.700 143.000 328.068 143.000 L 311.950 143.000 311.014 145.462 C 310.500 146.816 310.173 151.991 310.289 156.963 C 310.405 161.934 310.208 166.001 309.850 166.000 C 309.493 166.000 307.654 164.538 305.765 162.750 C 295.384 152.928 292.983 150.914 287.523 147.445 C 274.645 139.264 259.587 139.128 245.913 147.070 C 239.883 150.572 232.000 158.385 232.000 160.859 C 232.000 163.627 229.380 162.667 223.723 157.826 C 220.300 154.897 217.050 152.006 216.500 151.403 C 215.950 150.799 213.250 148.826 210.500 147.018 C 203.723 142.561 195.959 141.871 186.607 144.892 L 179.964 147.038 174.232 142.769 C 171.079 140.421 168.050 138.023 167.500 137.439 C 166.950 136.856 163.575 133.933 160.000 130.946 C 156.425 127.958 153.140 124.948 152.700 124.256 C 152.260 123.565 151.475 123.000 150.955 123.000 C 150.435 123.000 146.421 120.257 142.034 116.904 L 134.058 110.808 115.779 111.169 C 103.644 111.408 96.758 111.949 95.294 112.776 C 92.284 114.478 91.012 119.786 91.006 130.679 C 91.000 139.821 91.014 139.873 94.545 143.616 C 96.712 145.914 97.975 148.170 97.795 149.421 C 97.517 151.346 97.350 151.304 94.959 148.719 C 92.846 146.434 90.910 145.724 83.459 144.503 C 65.149 141.502 55.314 142.891 44.460 150.009 C 40.587 152.548 36.755 154.880 35.943 155.191 C 35.132 155.503 33.860 157.050 33.117 158.629 C 32.374 160.208 31.284 162.400 30.694 163.500 C 25.914 172.412 25.641 173.489 25.629 183.500 C 25.613 197.448 28.312 202.926 41.718 216.150 C 54.371 228.632 63.486 237.000 64.430 237.000 C 64.842 237.000 65.927 237.871 66.840 238.936 C 67.753 240.000 71.200 242.363 74.500 244.186 L 80.500 247.500 97.078 247.500 L 113.657 247.500 117.373 244.665 L 121.089 241.830 124.478 244.415 C 127.759 246.918 128.324 247.000 142.233 247.000 C 157.872 247.000 159.000 246.638 159.000 241.613 L 159.000 238.626 161.750 241.131 C 167.867 246.703 168.983 247.000 183.774 247.000 C 200.484 247.000 201.243 246.652 201.467 238.900 C 201.650 232.557 202.707 232.332 207.371 237.645 C 209.092 239.605 212.398 242.524 214.717 244.130 L 218.935 247.051 234.717 246.776 L 250.500 246.500 250.783 235.250 C 250.938 229.063 251.388 224.011 251.783 224.024 C 252.177 224.037 256.244 227.635 260.820 232.020 C 266.822 237.771 271.278 241.031 276.820 243.723 L 284.500 247.455 299.000 247.439 C 314.568 247.421 317.159 246.924 328.952 241.682 C 332.318 240.186 332.488 240.221 335.737 243.074 C 339.414 246.303 339.845 246.363 357.846 246.193 C 364.643 246.128 369.738 245.633 370.552 244.957 C 371.571 244.111 372.014 239.519 372.318 226.664 C 372.770 207.563 373.322 203.924 376.156 201.359 C 378.032 199.661 378.195 199.705 380.586 202.548 C 381.952 204.172 383.391 206.175 383.785 207.000 C 384.178 207.825 389.450 213.136 395.500 218.803 C 401.550 224.469 408.335 230.882 410.577 233.053 C 412.819 235.224 414.934 237.000 415.277 237.000 C 415.619 237.000 417.970 238.397 420.500 240.104 C 428.511 245.511 434.165 247.004 446.486 246.965 C 457.243 246.932 468.368 244.790 477.514 240.992 C 480.235 239.861 480.908 239.998 484.440 242.394 C 488.311 245.022 488.512 245.046 503.926 244.775 L 519.500 244.500 519.802 239.250 C 519.969 236.363 520.376 234.000 520.708 234.000 C 521.040 234.000 522.704 235.060 524.406 236.356 C 526.108 237.651 529.408 239.683 531.741 240.871 C 534.073 242.059 539.923 245.629 544.741 248.805 C 549.558 251.980 554.625 255.120 556.000 255.782 C 558.676 257.070 558.658 257.059 569.612 264.250 C 573.591 266.863 577.138 269.000 577.493 269.000 C 577.849 269.000 580.146 270.381 582.599 272.068 C 585.051 273.755 587.832 274.991 588.779 274.814 C 589.968 274.592 591.456 271.633 593.594 265.236 C 595.296 260.144 596.983 255.683 597.344 255.323 C 597.705 254.962 598.000 253.668 598.000 252.448 C 598.000 248.342 600.321 244.413 602.500 244.831 C 603.600 245.042 604.950 245.543 605.500 245.944 C 608.044 247.798 624.814 245.702 630.726 242.791 C 638.034 239.193 638.044 239.164 638.118 221.393 L 638.184 205.500 634.448 202.269 C 632.393 200.493 628.864 198.121 626.606 197.000 C 624.348 195.879 621.431 194.064 620.124 192.968 C 617.872 191.079 617.813 190.741 618.998 186.506 C 619.686 184.049 620.779 181.598 621.427 181.061 C 622.074 180.524 625.345 180.160 628.696 180.253 C 637.433 180.495 638.000 179.772 638.000 168.392 L 638.000 159.028 634.000 156.381 C 631.800 154.925 629.999 153.457 629.998 153.117 C 629.995 152.069 641.015 119.598 641.951 117.897 C 642.436 117.015 643.148 114.197 643.532 111.635 C 643.916 109.072 644.629 106.729 645.115 106.429 C 645.602 106.128 646.000 105.140 646.000 104.233 C 646.000 103.327 647.606 97.391 649.568 91.042 C 651.531 84.694 654.069 76.350 655.209 72.500 C 656.349 68.650 657.894 64.082 658.641 62.349 C 659.388 60.616 660.000 58.022 660.000 56.585 C 660.000 55.148 660.429 53.191 660.954 52.236 C 661.479 51.281 662.876 47.125 664.058 43.000 C 665.240 38.875 666.662 34.271 667.218 32.768 C 669.526 26.524 683.759 27.000 494.848 27.000 L 322.633 27.000 297.316 52.242 M 665.332 32.250 C 664.992 34.038 664.174 36.625 663.513 38.000 C 662.852 39.375 661.725 42.750 661.008 45.500 C 660.292 48.250 659.321 50.927 658.853 51.450 C 658.384 51.972 657.997 53.772 657.994 55.450 C 657.990 57.127 657.315 59.789 656.494 61.364 C 655.672 62.940 655.000 64.918 655.000 65.762 C 655.000 66.605 654.146 69.816 653.101 72.897 C 652.057 75.979 650.659 80.525 649.994 83.000 C 649.329 85.475 648.169 89.075 647.415 91.000 C 646.662 92.925 645.520 96.750 644.878 99.500 C 644.237 102.250 643.377 104.950 642.969 105.500 C 642.560 106.050 641.925 108.525 641.556 111.000 C 640.911 115.339 640.534 116.568 638.188 122.000 C 637.594 123.375 634.990 130.913 632.401 138.750 C 629.813 146.588 627.281 153.000 626.775 153.000 C 625.634 153.000 611.626 142.140 611.167 140.900 C 610.983 140.405 610.307 140.000 609.664 140.000 C 608.656 140.000 599.763 132.421 589.500 122.817 C 587.296 120.754 585.572 120.044 583.000 120.141 C 580.730 120.226 580.280 120.423 581.718 120.702 C 583.830 121.110 583.949 121.666 584.218 132.315 L 584.500 143.500 594.942 143.787 C 600.749 143.947 605.984 144.572 606.736 145.196 C 607.667 145.969 607.996 148.210 607.794 152.409 L 607.500 158.500 596.250 158.783 L 585.000 159.066 585.000 174.398 C 585.000 188.350 585.185 189.965 587.054 192.341 C 590.005 196.093 596.115 197.516 602.822 196.015 C 605.755 195.359 608.410 195.077 608.722 195.389 C 609.682 196.349 610.280 205.695 609.610 209.266 C 609.057 212.211 608.189 213.019 602.831 215.572 C 597.217 218.247 595.812 218.490 586.593 218.386 C 572.583 218.228 565.606 214.788 560.708 205.624 C 558.693 201.855 558.460 199.691 558.001 180.500 L 557.500 159.500 553.020 159.181 C 550.555 159.006 547.968 158.388 547.270 157.809 C 545.090 156.000 545.775 151.118 548.572 148.527 C 553.931 143.562 556.719 141.097 563.994 134.892 C 568.115 131.376 572.210 127.825 573.093 127.000 C 573.977 126.175 575.765 124.633 577.068 123.573 C 578.564 122.356 578.988 121.496 578.219 121.240 C 577.549 121.016 576.728 121.546 576.394 122.417 C 576.059 123.288 575.197 124.000 574.476 124.000 C 573.756 124.000 573.017 124.345 572.833 124.766 C 572.650 125.188 568.675 128.809 564.000 132.813 C 546.140 148.112 545.874 148.383 545.134 151.997 C 544.234 156.399 541.851 156.957 538.240 153.614 C 532.427 148.232 530.324 146.750 525.116 144.368 C 522.155 143.013 519.005 142.080 518.116 142.295 C 517.227 142.509 518.605 143.251 521.177 143.943 C 523.987 144.698 527.913 146.958 531.009 149.600 C 533.844 152.020 535.927 154.000 535.638 154.000 C 535.349 154.000 536.095 156.138 537.296 158.750 C 539.327 163.168 539.504 165.305 539.827 189.292 C 540.085 208.440 539.863 215.460 538.965 216.542 C 538.035 217.663 535.122 218.000 526.353 218.000 C 515.033 218.000 514.943 217.981 513.975 215.435 C 513.439 214.024 513.000 203.920 513.000 192.982 C 513.000 171.418 512.498 168.826 507.855 166.425 C 502.709 163.764 498.132 164.789 492.750 169.809 L 490.000 172.374 490.000 193.987 C 490.000 209.464 489.659 215.941 488.800 216.800 C 487.011 218.589 465.613 218.444 464.109 216.632 C 463.298 215.655 463.049 205.293 463.237 180.382 L 463.500 145.500 473.500 144.944 L 483.500 144.387 472.886 144.194 L 462.272 144.000 461.785 148.250 C 461.517 150.588 461.343 155.987 461.399 160.250 C 461.520 169.509 460.540 170.038 454.166 164.154 C 451.875 162.038 449.984 160.576 449.964 160.904 C 449.944 161.232 448.932 160.310 447.714 158.855 C 444.260 154.729 434.779 147.000 433.170 147.000 C 432.373 147.000 433.383 148.128 435.413 149.506 C 444.991 156.005 450.278 166.554 450.448 179.500 L 450.500 183.500 427.531 183.769 C 414.898 183.917 404.149 184.451 403.646 184.954 C 402.570 186.030 405.344 193.582 407.834 196.356 C 408.750 197.377 411.300 199.165 413.500 200.329 C 418.695 203.078 433.715 203.275 441.932 200.701 C 450.883 197.898 451.000 197.963 451.000 205.784 C 451.000 212.140 450.826 212.668 448.250 214.132 C 442.081 217.638 432.773 219.414 420.500 219.426 C 409.880 219.436 407.794 219.143 402.362 216.880 C 395.714 214.110 386.111 207.267 386.043 205.250 C 386.019 204.563 385.655 204.000 385.233 204.000 C 384.811 204.000 383.348 201.188 381.983 197.750 C 379.868 192.427 379.500 189.868 379.500 180.500 C 379.500 170.057 379.669 169.154 382.843 162.663 C 384.681 158.902 387.268 154.885 388.590 153.735 C 390.971 151.665 390.975 151.626 389.039 149.822 C 387.964 148.820 386.830 148.000 386.520 148.000 C 385.936 148.000 383.476 146.490 371.282 138.644 C 367.313 136.090 363.829 134.000 363.542 134.000 C 363.255 134.000 360.062 131.975 356.447 129.500 C 352.831 127.025 349.452 125.000 348.937 125.000 C 348.422 125.000 348.000 124.550 348.000 124.000 C 348.000 123.450 347.509 123.000 346.909 123.000 C 345.337 123.000 324.653 109.934 323.700 108.339 C 323.260 107.603 321.825 107.000 320.509 107.000 C 319.194 107.000 317.837 106.545 317.493 105.988 C 316.856 104.958 306.374 98.000 305.459 98.000 C 304.621 98.000 296.524 92.554 296.167 91.750 C 295.983 91.338 295.008 91.000 294.000 91.000 C 292.992 91.000 292.017 90.651 291.833 90.225 C 291.292 88.967 276.569 79.264 274.447 78.766 C 272.762 78.371 272.718 78.214 274.122 77.597 C 275.015 77.205 286.519 66.110 299.687 52.942 L 323.629 29.000 494.789 29.000 L 665.950 29.000 665.332 32.250 M 206.000 147.761 C 212.001 150.577 215.091 153.587 217.500 158.964 C 219.344 163.078 219.500 165.582 219.500 190.964 L 219.500 218.500 208.143 218.784 C 200.626 218.972 196.315 218.677 195.393 217.911 C 194.281 216.988 194.000 212.391 194.000 195.100 C 194.000 170.994 193.779 170.072 187.493 167.998 C 182.752 166.433 178.650 167.522 174.483 171.451 L 171.000 174.736 171.000 196.168 C 171.000 211.504 170.659 217.941 169.800 218.800 C 168.016 220.584 147.609 220.439 146.109 218.632 C 145.298 217.655 145.049 207.293 145.237 182.382 L 145.500 147.500 158.000 147.500 L 170.500 147.500 170.800 153.250 C 170.965 156.413 171.439 159.000 171.854 159.000 C 172.268 159.000 174.158 157.387 176.054 155.415 C 180.579 150.707 186.753 147.131 192.147 146.094 C 198.049 144.959 200.711 145.279 206.000 147.761 M 275.021 145.098 C 285.232 147.288 293.205 153.609 297.973 163.294 C 300.661 168.755 301.245 171.148 301.360 177.195 L 301.500 184.500 278.250 184.768 C 252.477 185.066 253.597 184.706 256.538 191.746 C 258.539 196.535 260.606 198.742 265.500 201.318 C 270.698 204.053 283.765 204.213 292.500 201.649 C 295.800 200.680 299.288 199.657 300.250 199.376 C 301.801 198.923 302.000 199.677 302.000 206.004 C 302.000 214.352 301.401 215.209 294.055 217.391 C 278.524 222.003 263.045 221.510 251.275 216.028 C 245.016 213.113 236.000 205.074 236.000 202.408 C 236.000 201.634 235.611 201.000 235.136 201.000 C 234.661 201.000 233.423 198.863 232.386 196.250 C 230.980 192.708 230.501 188.957 230.503 181.500 C 230.505 172.303 230.760 170.978 233.678 165.000 C 237.683 156.796 242.144 151.974 248.899 148.551 C 257.412 144.237 265.823 143.125 275.021 145.098 M 87.250 147.851 C 89.997 148.949 90.000 148.961 90.000 159.106 L 90.000 169.262 86.250 168.593 C 84.188 168.224 80.199 167.659 77.387 167.336 C 65.797 166.004 55.000 173.575 55.000 183.033 C 55.000 188.109 57.944 193.009 62.874 196.135 C 66.820 198.637 68.348 199.000 74.952 199.000 C 79.111 199.000 84.055 198.558 85.940 198.017 C 87.825 197.477 89.597 197.263 89.877 197.544 C 90.157 197.824 90.576 202.008 90.807 206.842 C 91.284 216.818 90.606 218.170 84.216 219.974 C 78.015 221.726 66.834 222.285 60.766 221.148 C 34.180 216.166 20.300 188.519 32.835 165.513 C 33.739 163.856 34.543 162.050 34.623 161.500 C 34.704 160.950 34.821 160.706 34.885 160.958 C 34.948 161.210 36.913 159.563 39.250 157.297 C 43.927 152.764 49.369 149.451 55.500 147.404 C 60.258 145.816 82.962 146.135 87.250 147.851 M 339.949 146.439 C 340.606 147.230 341.143 150.380 341.143 153.439 C 341.143 156.497 341.464 159.000 341.856 159.000 C 342.248 159.000 344.999 156.539 347.970 153.531 C 353.230 148.205 359.438 145.000 364.497 145.000 C 368.962 145.000 376.874 148.027 377.491 149.972 C 377.873 151.176 376.541 155.210 373.947 160.701 C 371.660 165.540 369.379 170.563 368.877 171.862 C 368.246 173.495 367.430 174.049 366.232 173.656 C 355.751 170.216 353.128 170.338 348.187 174.496 C 343.050 178.818 341.765 183.714 341.099 201.500 L 340.500 217.500 327.500 217.500 L 314.500 217.500 314.235 182.500 C 313.993 150.484 314.116 147.393 315.677 146.250 C 318.230 144.379 338.369 144.535 339.949 146.439 M 127.800 148.200 C 129.519 149.919 129.519 217.081 127.800 218.800 C 126.150 220.450 104.850 220.450 103.200 218.800 C 101.481 217.081 101.481 149.919 103.200 148.200 C 103.989 147.411 108.200 147.000 115.500 147.000 C 122.800 147.000 127.011 147.411 127.800 148.200 M 575.568 223.499 C 577.731 225.424 579.838 226.999 580.250 226.999 C 580.663 227.000 581.000 227.675 581.000 228.500 C 581.000 229.325 581.338 230.002 581.750 230.005 C 582.163 230.007 583.850 231.269 585.500 232.809 C 587.150 234.349 589.963 236.469 591.750 237.520 C 593.538 238.571 595.000 239.784 595.000 240.216 C 595.000 240.647 595.900 241.000 597.000 241.000 C 599.402 241.000 599.477 241.922 597.469 246.729 C 596.626 248.745 596.169 250.998 596.452 251.735 C 596.735 252.472 596.345 253.314 595.587 253.605 C 594.828 253.896 593.909 256.119 593.546 258.544 C 593.182 260.969 592.460 263.215 591.942 263.536 C 591.424 263.856 591.000 265.014 591.000 266.109 C 591.000 267.204 590.311 269.432 589.469 271.060 C 587.812 274.264 587.822 274.267 582.359 269.250 C 581.012 268.013 579.367 266.999 578.705 266.999 C 578.042 266.998 574.944 265.223 571.821 263.055 C 566.839 259.597 562.666 257.101 555.870 253.513 C 554.841 252.970 554.000 252.182 554.000 251.763 C 554.000 251.343 553.199 251.000 552.221 251.000 C 551.242 251.000 549.793 250.100 549.000 249.000 C 548.207 247.900 546.813 247.000 545.902 247.000 C 544.039 247.000 541.467 244.402 542.701 243.767 C 543.141 243.542 548.525 243.439 554.667 243.538 C 560.809 243.638 566.434 243.350 567.167 242.898 C 568.094 242.326 568.592 239.094 568.801 232.287 C 569.236 218.150 569.367 217.980 575.568 223.499 M 129.472 114.909 C 131.907 115.485 132.688 116.417 133.787 120.056 C 135.420 125.462 134.798 135.133 132.603 138.483 C 131.074 140.817 130.568 140.904 116.882 141.197 C 107.554 141.397 101.268 141.069 98.416 140.233 L 94.091 138.966 94.296 129.009 C 94.562 116.054 95.296 115.199 107.080 114.133 C 115.673 113.356 124.153 113.650 129.472 114.909 M 619.000 179.062 C 619.000 180.821 616.196 190.846 615.429 191.831 C 615.287 192.013 614.233 191.660 613.086 191.046 C 611.368 190.127 611.000 188.980 611.000 184.548 C 611.000 179.588 611.215 179.088 613.750 178.162 C 617.943 176.631 619.000 176.812 619.000 179.062 "/></g>
<g fill="#7F0D00FF" stroke="#7F0D00FF">
<path d="M 324.200 30.200 C 323.540 30.860 323.000 31.030 323.000 30.578 C 323.000 30.125 322.330 30.311 321.511 30.991 C 320.692 31.671 320.312 32.695 320.666 33.268 C 321.019 33.840 320.863 34.033 320.317 33.696 C 319.771 33.359 317.586 34.864 315.460 37.041 C 313.334 39.219 311.910 41.056 312.297 41.125 C 312.684 41.194 312.628 41.306 312.173 41.375 C 311.097 41.538 304.538 48.097 304.375 49.173 C 304.306 49.628 304.194 49.684 304.125 49.297 C 304.056 48.910 302.208 50.344 300.018 52.482 C 297.828 54.620 296.291 56.624 296.602 56.935 C 296.912 57.246 296.757 57.500 296.256 57.500 C 295.192 57.500 288.559 63.958 288.375 65.173 C 288.306 65.628 288.194 65.684 288.125 65.297 C 288.056 64.910 286.219 66.334 284.041 68.460 C 281.864 70.586 280.359 72.771 280.696 73.317 C 281.033 73.863 280.857 74.030 280.305 73.689 C 279.753 73.347 278.369 74.140 277.230 75.451 C 275.189 77.798 275.187 77.859 277.079 79.572 C 278.584 80.933 279.014 81.005 279.063 79.905 C 279.098 79.132 279.544 79.541 280.055 80.814 C 280.565 82.087 281.437 82.848 281.992 82.505 C 282.546 82.162 283.000 82.303 283.000 82.818 C 283.000 83.333 285.474 85.047 288.498 86.627 C 291.521 88.207 293.996 89.838 293.998 90.250 C 293.999 90.663 294.675 91.000 295.500 91.000 C 296.325 91.000 297.000 91.436 297.000 91.969 C 297.000 92.501 297.749 92.650 298.664 92.299 C 299.701 91.901 300.082 92.058 299.675 92.716 C 299.300 93.323 301.361 94.956 304.511 96.550 C 307.530 98.077 310.000 99.620 310.000 99.978 C 310.000 100.337 311.463 101.415 313.250 102.374 C 320.022 106.008 326.073 109.656 332.951 114.250 C 336.862 116.863 340.305 119.000 340.601 119.000 C 340.897 119.000 343.021 120.283 345.320 121.852 C 347.619 123.420 350.125 124.487 350.889 124.222 C 351.730 123.931 352.005 124.183 351.586 124.861 C 351.167 125.538 352.397 126.677 354.697 127.741 C 356.789 128.708 358.653 129.847 358.840 130.271 C 359.260 131.222 364.794 134.143 365.470 133.770 C 365.740 133.622 366.676 134.520 367.549 135.767 C 368.422 137.013 369.556 137.774 370.068 137.458 C 370.581 137.141 371.000 137.359 371.000 137.941 C 371.000 138.523 371.434 139.000 371.965 139.000 C 372.495 139.000 374.852 140.311 377.201 141.913 C 379.551 143.515 381.817 144.613 382.236 144.354 C 382.656 144.094 383.000 144.288 383.000 144.784 C 383.000 145.279 384.468 146.475 386.261 147.441 C 389.464 149.166 389.611 149.151 394.410 146.599 C 397.098 145.169 400.157 144.000 401.208 144.000 C 402.258 144.000 402.868 143.595 402.562 143.100 C 402.095 142.345 407.139 141.287 413.000 140.911 C 415.310 140.763 423.102 141.811 427.004 142.795 C 432.853 144.270 436.802 146.814 446.338 155.250 C 448.047 156.763 449.795 158.000 450.223 158.000 C 450.650 158.000 451.028 158.563 451.062 159.250 C 451.129 160.600 459.959 167.454 460.062 166.236 C 460.097 165.831 460.307 160.837 460.530 155.138 C 460.754 149.439 461.169 144.039 461.454 143.138 C 461.912 141.690 463.625 141.558 476.236 142.000 C 488.805 142.441 490.933 142.769 494.140 144.764 L 497.781 147.028 502.786 144.514 C 505.538 143.131 508.963 142.000 510.395 142.000 C 511.828 142.000 513.000 141.613 513.000 141.140 C 513.000 140.039 520.174 140.530 522.630 141.800 C 523.659 142.332 525.850 143.381 527.500 144.132 C 529.150 144.883 530.725 145.734 531.000 146.023 C 531.275 146.312 533.939 148.465 536.921 150.807 C 540.675 153.755 542.569 154.698 543.079 153.873 C 543.484 153.218 543.581 152.072 543.296 151.328 C 542.786 149.999 546.606 145.990 554.407 139.667 C 556.556 137.925 559.035 135.825 559.916 135.000 C 573.702 122.097 579.132 118.000 582.446 118.000 C 584.892 118.000 586.949 118.894 589.347 121.000 C 591.226 122.650 593.267 124.000 593.882 124.000 C 594.497 124.000 595.000 124.514 595.000 125.142 C 595.000 125.770 596.278 127.457 597.840 128.892 C 609.706 139.789 627.671 152.987 627.183 150.448 C 626.975 149.364 627.284 149.058 628.088 149.554 C 628.884 150.046 629.051 149.892 628.568 149.111 C 628.161 148.452 628.429 147.171 629.164 146.264 C 630.117 145.089 630.141 144.832 629.250 145.367 C 628.563 145.780 628.000 145.641 628.000 145.059 C 628.000 144.477 628.389 144.000 628.864 144.000 C 629.743 144.000 632.736 136.967 633.462 133.198 C 633.681 132.061 634.378 130.162 635.011 128.979 C 635.644 127.796 635.899 126.566 635.578 126.244 C 635.256 125.923 635.688 124.599 636.538 123.302 C 637.388 122.005 637.813 120.506 637.483 119.972 C 637.152 119.437 637.407 119.000 638.048 119.000 C 638.689 119.000 638.955 118.325 638.638 117.500 C 638.322 116.675 638.499 116.000 639.031 116.000 C 639.564 116.000 640.000 115.109 640.000 114.020 C 640.000 112.931 640.674 110.344 641.499 108.270 C 642.323 106.197 643.164 103.043 643.366 101.262 C 643.569 99.481 644.187 97.456 644.741 96.762 C 645.704 95.554 648.946 84.422 649.409 80.732 C 649.532 79.760 650.006 79.310 650.463 79.732 C 650.921 80.155 651.046 79.488 650.741 78.250 C 650.437 77.013 650.502 76.000 650.886 76.000 C 651.950 76.000 654.125 67.011 653.361 65.775 C 652.961 65.129 653.157 64.979 653.845 65.405 C 654.578 65.857 655.062 65.275 655.171 63.809 C 655.515 59.162 655.694 58.427 657.436 54.500 C 658.412 52.300 659.275 48.774 659.355 46.665 C 659.435 44.556 659.807 43.138 660.182 43.514 C 661.032 44.366 664.167 34.079 663.424 32.877 C 663.126 32.394 663.359 32.000 663.941 32.000 C 664.523 32.000 665.000 31.325 665.000 30.500 C 665.000 29.173 645.467 29.000 495.200 29.000 C 364.467 29.000 325.124 29.276 324.200 30.200 M 476.383 37.981 C 479.450 38.480 483.951 39.769 486.384 40.846 C 490.433 42.637 491.919 43.928 497.842 50.803 C 498.933 52.069 500.401 55.444 501.103 58.303 C 502.593 64.365 502.695 74.938 501.273 75.862 C 500.732 76.213 499.737 78.197 499.061 80.271 C 498.332 82.507 496.250 85.312 493.945 87.164 C 491.808 88.882 490.266 90.621 490.519 91.030 C 490.771 91.439 490.222 92.387 489.297 93.137 C 488.141 94.074 487.851 94.110 488.367 93.250 C 488.835 92.472 488.552 92.000 487.618 92.000 C 486.793 92.000 485.880 92.386 485.588 92.857 C 484.256 95.013 472.682 96.092 454.000 95.802 C 437.198 95.542 434.569 95.292 435.000 94.000 C 435.275 93.175 435.500 81.475 435.500 68.000 C 435.500 54.525 435.275 42.150 435.000 40.500 L 434.500 37.500 451.000 36.978 C 460.075 36.691 468.244 36.595 469.153 36.765 C 470.063 36.935 473.316 37.482 476.383 37.981 M 610.932 38.059 C 616.881 39.024 622.644 41.331 624.112 43.335 C 624.448 43.795 625.011 44.132 625.362 44.085 C 627.358 43.818 628.048 44.113 627.500 45.000 C 626.947 45.895 627.333 46.067 629.687 45.973 C 630.065 45.957 630.472 46.607 630.590 47.415 C 630.861 49.261 633.976 53.791 634.067 52.473 C 634.105 51.938 634.332 53.075 634.572 55.000 C 634.813 56.925 635.368 59.625 635.806 61.000 C 637.910 67.612 634.493 82.908 630.376 85.300 C 629.619 85.740 629.000 86.680 629.000 87.389 C 629.000 88.099 627.988 89.208 626.750 89.854 C 625.513 90.501 622.475 92.135 620.000 93.487 C 617.525 94.838 614.401 95.956 613.059 95.972 C 610.684 95.999 610.671 96.042 612.559 97.555 C 614.470 99.086 614.469 99.097 612.500 98.269 C 611.400 97.807 606.525 97.494 601.667 97.575 C 596.531 97.660 593.392 97.367 594.167 96.876 C 595.118 96.273 594.841 96.026 593.202 96.015 C 591.938 96.007 589.125 95.141 586.952 94.091 C 584.648 92.978 583.000 92.630 583.000 93.257 C 583.000 93.849 582.663 93.996 582.250 93.583 C 581.838 93.171 581.500 92.308 581.500 91.667 C 581.500 90.562 579.095 89.941 578.915 91.000 C 578.868 91.275 578.363 90.938 577.793 90.250 C 577.049 89.354 577.144 88.991 578.128 88.970 C 579.058 88.949 578.937 88.611 577.750 87.920 C 576.464 87.171 575.966 87.245 575.872 88.200 C 575.802 88.915 575.641 88.543 575.515 87.372 C 575.220 84.643 572.043 79.950 571.896 82.027 C 571.839 82.837 571.607 81.025 571.380 78.000 C 571.152 74.975 570.486 71.303 569.900 69.841 C 569.140 67.948 569.145 66.598 569.916 65.156 C 570.512 64.043 571.010 61.864 571.022 60.316 C 571.049 56.890 574.010 50.280 576.835 47.340 C 578.739 45.358 578.770 45.115 577.205 44.391 C 575.896 43.786 576.054 43.669 577.885 43.887 C 579.196 44.044 582.482 42.967 585.186 41.495 C 592.693 37.409 600.504 36.367 610.932 38.059 M 566.796 43.477 L 567.091 50.000 547.796 50.115 C 537.183 50.179 527.825 50.291 527.000 50.365 C 525.885 50.465 525.500 51.782 525.500 55.500 C 525.500 59.896 525.742 60.477 527.500 60.312 C 528.600 60.208 537.600 60.068 547.500 60.001 C 557.400 59.934 565.130 59.907 564.679 59.940 C 564.227 59.973 564.511 60.654 565.311 61.454 C 566.347 62.490 566.617 64.285 566.249 67.704 C 565.966 70.342 565.621 72.635 565.483 72.801 C 565.345 72.966 556.839 73.099 546.582 73.095 C 536.324 73.092 527.271 73.342 526.465 73.652 C 525.454 74.040 525.000 75.731 525.000 79.107 L 525.000 84.000 545.250 83.775 L 565.500 83.549 547.750 83.252 C 537.988 83.088 530.000 82.627 530.000 82.227 C 530.000 81.657 544.381 81.555 565.750 81.975 C 566.438 81.989 566.947 82.338 566.882 82.750 C 566.816 83.163 566.861 85.750 566.981 88.500 C 567.160 92.588 567.345 93.044 568.000 91.000 L 568.801 88.500 568.900 91.050 C 569.091 95.919 568.568 96.001 537.550 95.986 C 521.573 95.979 507.543 95.716 506.373 95.402 C 504.427 94.880 504.274 94.260 504.578 88.165 C 505.020 79.302 505.234 79.202 505.997 87.500 C 506.361 91.459 506.699 82.215 506.776 66.225 C 506.851 50.674 507.114 37.624 507.360 37.225 C 507.606 36.826 521.014 36.602 537.154 36.727 L 566.500 36.953 566.796 43.477 M 351.146 39.147 C 352.141 40.441 352.972 42.175 352.993 43.000 C 353.026 44.333 353.138 44.333 354.000 43.000 C 354.760 41.824 354.973 42.074 354.985 44.155 C 355.000 46.775 358.792 55.185 360.250 55.833 C 360.663 56.017 361.000 56.688 361.000 57.324 C 361.000 57.961 362.622 61.765 364.604 65.777 C 367.546 71.731 368.465 72.859 369.604 71.913 C 370.372 71.276 371.000 70.146 371.000 69.402 C 371.000 68.657 371.898 66.575 372.996 64.774 C 375.244 61.088 375.559 59.536 373.845 60.595 C 373.124 61.041 372.963 60.869 373.415 60.138 C 373.813 59.494 374.502 59.192 374.946 59.467 C 375.390 59.741 378.298 54.831 381.408 48.555 L 387.063 37.145 395.715 36.823 C 401.514 36.606 404.761 36.896 405.564 37.702 C 406.223 38.364 407.040 38.626 407.381 38.286 C 407.721 37.945 408.000 38.642 408.000 39.833 C 408.000 41.025 407.550 42.000 407.000 42.000 C 406.450 42.000 406.000 41.518 406.000 40.929 C 406.000 38.400 402.736 43.394 402.490 46.298 C 402.341 48.059 402.150 48.825 402.065 48.000 C 401.981 47.175 401.021 48.188 399.932 50.250 C 398.843 52.313 398.413 54.000 398.976 54.000 C 399.539 54.000 400.000 54.498 400.000 55.107 C 400.000 55.716 399.405 55.986 398.678 55.707 C 397.055 55.084 396.666 55.702 388.463 71.923 C 384.826 79.117 382.189 85.497 382.587 86.141 C 382.999 86.807 382.878 87.042 382.305 86.689 C 381.286 86.059 379.847 88.276 378.045 93.250 C 377.498 94.763 376.315 96.000 375.418 96.000 C 374.340 96.000 373.992 96.538 374.394 97.584 C 374.783 98.598 374.552 99.002 373.751 98.709 C 373.063 98.456 372.613 97.744 372.750 97.125 C 372.967 96.147 363.811 95.333 359.250 95.925 C 357.686 96.128 357.593 94.302 359.141 93.786 C 359.863 93.546 359.314 91.873 357.641 89.223 C 356.188 86.922 355.000 84.356 355.000 83.520 C 355.000 82.684 354.550 82.000 354.000 82.000 C 353.450 82.000 353.000 81.522 353.000 80.937 C 353.000 80.352 351.586 76.942 349.858 73.358 C 347.728 68.942 346.456 67.262 345.912 68.142 C 345.470 68.857 344.777 69.110 344.371 68.704 C 343.965 68.299 344.143 67.457 344.765 66.835 C 346.305 65.295 343.571 60.006 341.224 59.985 C 339.756 59.972 339.721 59.830 340.992 59.026 C 342.180 58.275 342.230 57.830 341.242 56.842 C 340.253 55.853 339.978 55.895 339.890 57.050 C 339.830 57.848 339.660 57.079 339.512 55.343 C 339.214 51.835 336.119 46.529 335.829 49.027 C 335.735 49.837 335.574 49.600 335.471 48.500 C 335.367 47.400 335.219 45.911 335.142 45.191 C 335.064 44.471 334.555 44.157 334.011 44.493 C 333.459 44.834 333.269 44.463 333.580 43.653 C 333.886 42.855 333.656 41.905 333.068 41.542 C 331.722 40.710 331.667 37.278 332.993 36.833 C 333.539 36.650 337.440 36.566 341.661 36.647 C 348.448 36.776 349.545 37.066 351.146 39.147 M 429.547 38.548 C 431.400 40.401 431.490 41.909 431.297 68.001 C 431.186 83.125 431.073 95.107 431.047 94.628 C 431.021 94.148 430.370 94.278 429.601 94.916 C 428.701 95.663 424.940 95.975 419.071 95.789 L 409.941 95.500 409.919 67.500 C 409.907 52.100 409.920 38.965 409.949 38.310 C 410.003 37.054 414.198 36.466 422.547 36.546 C 426.175 36.581 428.143 37.143 429.547 38.548 "/></g>
<g fill="#FFFB00FF" stroke="#FFFB00FF">
<path d="M 440.750 38.816 L 438.000 39.133 438.000 65.485 C 438.000 79.978 437.720 92.567 437.377 93.459 C 436.813 94.931 438.607 95.045 456.627 94.684 C 477.629 94.263 482.824 93.623 483.696 91.349 C 484.112 90.265 484.551 90.212 485.640 91.116 C 486.769 92.053 486.922 91.960 486.416 90.641 C 485.947 89.418 486.361 89.000 488.042 89.000 C 489.304 89.000 491.789 87.465 493.682 85.515 C 496.970 82.130 497.019 81.959 495.418 79.515 C 494.491 78.100 494.236 77.000 494.835 77.000 C 495.421 77.000 496.339 77.784 496.875 78.742 C 498.761 82.112 499.500 78.713 499.500 66.667 C 499.500 56.456 499.216 54.178 497.733 52.500 C 491.740 45.718 490.071 44.182 487.052 42.676 C 485.204 41.754 482.952 41.000 482.046 41.000 C 481.141 41.000 479.947 40.547 479.394 39.994 C 478.453 39.053 447.019 38.095 440.750 38.816 M 476.479 51.564 C 478.117 52.973 479.617 53.648 479.812 53.063 C 480.446 51.163 481.787 51.941 481.856 54.250 C 482.014 59.491 483.287 64.000 484.609 64.000 C 486.482 64.000 486.390 67.913 484.500 68.638 C 482.453 69.424 482.598 72.000 484.689 72.000 C 486.110 72.000 486.031 72.323 484.189 74.039 C 481.711 76.347 481.428 77.629 483.250 78.280 C 483.977 78.539 484.129 79.097 483.613 79.613 C 483.097 80.129 482.539 79.977 482.280 79.250 C 482.034 78.563 481.421 78.000 480.917 78.000 C 479.824 78.000 479.669 80.930 480.750 81.158 C 481.163 81.244 480.825 81.262 480.000 81.197 C 479.175 81.133 476.925 81.821 475.000 82.727 C 472.929 83.701 467.928 84.551 462.750 84.809 L 454.000 85.245 454.000 67.789 C 454.000 58.188 454.300 50.033 454.667 49.667 C 455.033 49.300 459.421 49.001 464.417 49.001 C 472.721 49.002 473.755 49.222 476.479 51.564 "/></g>
<g fill="#FFFB00FF" stroke="#FFFB00FF">
<path d="M 592.500 39.984 C 591.400 40.451 589.600 41.157 588.500 41.554 C 586.622 42.231 586.653 42.327 589.000 43.116 C 590.934 43.766 590.660 43.840 587.788 43.440 C 584.927 43.042 583.609 43.391 582.038 44.962 C 580.917 46.083 579.663 47.006 579.250 47.012 C 578.166 47.030 574.000 53.708 574.000 55.427 C 574.000 56.227 573.519 57.179 572.932 57.542 C 572.345 57.905 571.987 59.626 572.137 61.365 C 572.287 63.105 572.149 64.972 571.830 65.514 C 570.941 67.026 572.554 77.351 573.740 77.747 C 574.316 77.939 574.573 78.916 574.311 79.919 C 573.998 81.115 575.186 83.075 577.765 85.621 C 583.161 90.945 584.396 91.815 587.664 92.597 C 589.224 92.970 591.072 93.727 591.772 94.279 C 593.902 95.958 613.033 95.432 616.500 93.599 C 618.150 92.726 619.275 91.960 619.000 91.895 C 618.725 91.831 619.511 91.860 620.746 91.960 C 622.412 92.095 622.836 91.737 622.389 90.571 C 621.932 89.381 622.444 89.000 624.500 89.000 C 626.656 89.000 627.078 88.646 626.554 87.280 C 626.191 86.335 626.197 85.863 626.566 86.233 C 626.936 86.602 627.904 86.239 628.718 85.425 C 629.909 84.234 629.956 83.652 628.957 82.448 C 628.274 81.625 627.994 80.673 628.334 80.333 C 628.674 79.992 629.237 80.453 629.583 81.357 C 630.460 83.642 632.000 83.414 632.000 81.000 C 632.000 79.900 631.523 79.000 630.941 79.000 C 630.359 79.000 630.165 78.543 630.510 77.984 C 630.856 77.425 631.510 77.197 631.964 77.478 C 633.395 78.362 634.000 75.109 634.000 66.541 C 634.000 60.659 633.594 57.908 632.603 57.086 C 631.835 56.448 631.437 55.043 631.720 53.963 C 632.004 52.878 631.734 52.000 631.117 52.000 C 630.502 52.000 630.000 51.491 630.000 50.868 C 630.000 50.246 628.356 48.186 626.347 46.291 C 622.820 42.965 622.065 42.814 617.500 44.521 C 615.501 45.269 615.501 45.268 617.498 43.716 C 619.848 41.891 619.096 40.750 615.542 40.750 C 614.144 40.750 613.000 40.356 613.000 39.875 C 613.000 38.759 595.163 38.854 592.500 39.984 M 611.024 49.000 C 610.396 49.000 610.171 49.468 610.525 50.041 C 610.879 50.613 612.139 50.773 613.326 50.396 C 615.129 49.824 615.286 49.950 614.283 51.160 C 613.316 52.324 613.563 53.127 615.540 55.260 C 616.893 56.719 618.000 58.613 618.000 59.470 C 618.000 60.326 618.406 61.809 618.903 62.764 C 620.192 65.244 621.760 77.000 620.802 77.000 C 620.361 77.000 620.000 75.875 620.000 74.500 C 620.000 73.125 619.516 72.000 618.923 72.000 C 618.318 72.000 617.969 73.422 618.127 75.250 C 618.281 77.038 618.081 78.601 617.683 78.724 C 617.284 78.847 615.463 80.141 613.636 81.599 C 609.483 84.912 602.894 87.294 601.563 85.963 C 601.034 85.434 599.655 85.000 598.500 85.000 C 597.345 85.000 595.841 84.441 595.158 83.758 C 594.170 82.770 593.733 82.815 593.013 83.979 C 592.516 84.784 591.760 85.093 591.333 84.667 C 590.907 84.240 591.216 83.484 592.021 82.987 C 593.211 82.252 593.244 81.844 592.200 80.800 C 591.156 79.756 590.762 79.768 590.083 80.865 C 589.557 81.717 589.018 81.837 588.619 81.192 C 588.272 80.630 588.553 79.964 589.244 79.710 C 590.249 79.342 590.250 78.985 589.250 77.925 C 587.665 76.245 587.519 59.415 589.081 58.450 C 589.688 58.075 589.894 56.624 589.551 55.141 C 589.149 53.407 589.249 52.964 589.842 53.852 C 590.572 54.945 591.010 54.850 592.134 53.352 C 594.504 50.195 597.742 49.000 603.927 49.000 C 607.482 49.000 610.181 48.516 610.624 47.799 C 611.202 46.865 611.455 46.865 611.766 47.799 C 611.987 48.460 611.653 49.000 611.024 49.000 "/></g>
<g fill="#FFFB00FF" stroke="#FFFB00FF">
<path d="M 508.000 66.750 L 508.000 95.000 537.000 95.000 L 566.000 95.000 566.000 90.000 L 566.000 85.000 544.954 85.000 L 523.909 85.000 524.204 78.250 L 524.500 71.500 544.000 71.500 L 563.500 71.500 564.157 68.589 C 565.377 63.177 565.186 63.113 546.813 62.795 C 537.459 62.633 529.610 62.818 529.371 63.206 C 528.824 64.094 525.744 63.002 524.765 61.573 C 524.361 60.983 524.024 57.913 524.015 54.750 L 524.000 49.000 545.000 49.000 L 566.000 49.000 565.999 43.750 L 565.998 38.500 536.999 38.500 L 507.999 38.500 508.000 66.750 M 539.060 93.000 C 515.854 93.000 514.001 92.871 514.015 91.250 C 514.025 90.148 514.303 89.917 514.765 90.625 C 515.271 91.398 522.912 91.796 539.250 91.897 C 559.913 92.025 563.000 91.847 563.000 90.522 C 563.000 89.223 560.659 89.000 547.000 89.000 C 537.271 89.000 531.000 88.618 531.000 88.025 C 531.000 87.442 537.546 86.939 547.250 86.775 L 563.500 86.500 563.810 89.750 L 564.121 93.000 539.060 93.000 M 545.501 47.000 C 533.343 47.000 527.096 46.653 527.500 46.000 C 527.874 45.395 535.010 45.000 545.559 45.000 L 563.000 45.000 563.168 42.250 C 563.290 40.257 563.444 40.532 563.728 43.250 L 564.121 47.000 545.501 47.000 "/></g>
<g fill="#FFFB00FF" stroke="#FFFB00FF">
<path d="M 334.000 39.606 C 334.000 40.373 334.450 41.000 335.000 41.000 C 335.550 41.000 336.000 41.524 336.000 42.164 C 336.000 44.640 339.456 51.000 340.801 51.000 C 341.765 51.000 342.042 51.718 341.670 53.250 C 340.988 56.050 344.682 61.133 345.930 59.113 C 346.549 58.112 346.849 58.164 347.305 59.352 C 347.625 60.187 347.387 61.038 346.774 61.242 C 345.993 61.502 346.083 62.565 347.075 64.806 C 348.576 68.197 349.551 68.789 350.280 66.750 C 350.539 66.023 351.097 65.871 351.613 66.387 C 352.129 66.903 351.977 67.461 351.250 67.720 C 350.563 67.966 350.000 68.714 350.000 69.384 C 350.000 71.158 352.373 75.983 353.250 75.992 C 353.663 75.996 354.000 75.325 354.000 74.500 C 354.000 73.675 354.466 73.000 355.035 73.000 C 355.727 73.000 355.705 73.682 354.969 75.059 C 353.574 77.665 354.685 83.000 356.623 83.000 C 357.429 83.000 357.969 83.563 357.823 84.250 C 357.678 84.938 358.218 86.963 359.024 88.750 C 360.400 91.804 360.820 92.011 365.994 92.185 L 371.500 92.370 366.250 92.737 C 358.393 93.287 359.922 95.003 368.250 94.982 L 375.500 94.965 377.833 90.031 C 379.405 86.705 379.929 84.350 379.439 82.806 C 378.791 80.767 378.892 80.665 380.356 81.880 C 381.807 83.085 382.000 82.950 382.000 80.729 C 382.000 79.346 382.675 77.955 383.500 77.638 C 384.325 77.322 385.000 75.924 385.000 74.531 C 385.000 73.139 385.437 72.000 385.971 72.000 C 386.505 72.000 388.082 69.507 389.476 66.460 C 391.876 61.213 391.926 60.758 390.431 57.867 C 389.563 56.188 389.048 54.618 389.288 54.379 C 389.527 54.140 390.434 55.412 391.303 57.206 C 392.729 60.151 392.956 60.276 393.636 58.484 C 394.049 57.393 394.991 55.890 395.729 55.144 C 396.765 54.096 396.802 53.466 395.893 52.371 C 394.945 51.228 395.035 51.076 396.359 51.584 C 398.338 52.344 398.668 49.068 396.800 47.200 C 395.867 46.267 395.867 46.000 396.800 46.000 C 397.460 46.000 398.000 46.450 398.000 47.000 C 398.000 47.550 398.450 48.000 399.000 48.000 C 399.550 48.000 400.000 47.100 400.000 46.000 C 400.000 44.889 400.667 44.000 401.500 44.000 C 402.325 44.000 403.000 43.362 403.000 42.582 C 403.000 41.802 403.231 40.564 403.514 39.832 C 403.923 38.772 402.289 38.566 395.514 38.823 C 389.176 39.064 387.000 39.493 387.000 40.502 C 387.000 41.247 386.278 42.579 385.395 43.462 C 384.239 44.618 383.953 46.107 384.371 48.784 C 384.730 51.073 384.644 51.757 384.149 50.566 C 383.174 48.222 383.125 48.289 377.330 59.740 C 374.384 65.562 373.503 68.199 374.330 68.725 C 375.141 69.241 375.158 69.474 374.385 69.485 C 373.771 69.493 371.750 71.075 369.892 73.000 L 366.514 76.500 366.200 73.850 C 365.918 71.463 355.168 48.801 354.887 50.000 C 354.822 50.275 354.840 49.768 354.927 48.873 C 355.013 47.978 354.390 46.980 353.542 46.654 C 352.694 46.329 352.000 45.358 352.000 44.496 C 352.000 43.635 351.344 41.928 350.542 40.704 C 349.323 38.844 348.352 38.537 344.627 38.833 C 340.776 39.140 340.076 39.549 339.477 41.844 L 338.785 44.500 337.906 42.199 C 337.342 40.723 337.380 40.117 338.013 40.508 C 338.556 40.844 339.000 40.529 338.999 39.809 C 338.999 39.089 337.874 38.435 336.499 38.356 C 334.960 38.267 334.000 38.747 334.000 39.606 "/></g>
<g fill="#7F0D00FF" stroke="#7F0D00FF">
<path d="M 571.000 231.220 C 571.000 243.587 570.697 243.957 560.325 244.223 C 555.828 244.338 552.366 244.784 552.632 245.213 C 552.897 245.643 551.934 245.545 550.492 244.997 C 544.675 242.785 541.383 244.673 547.000 247.000 C 548.650 247.683 550.000 248.566 550.000 248.961 C 550.000 249.986 555.241 252.392 556.850 252.106 C 557.593 251.974 557.949 252.274 557.641 252.772 C 557.157 253.555 564.024 258.182 565.473 258.049 C 565.763 258.022 566.788 258.703 567.750 259.562 C 571.368 262.792 577.177 266.009 578.223 265.362 C 578.871 264.961 579.021 265.156 578.595 265.845 C 578.173 266.530 578.517 267.000 579.441 267.000 C 580.298 267.000 581.000 267.525 581.000 268.167 C 581.000 268.808 581.253 269.081 581.562 268.772 C 581.871 268.463 583.299 269.299 584.736 270.631 C 586.173 271.962 587.660 272.703 588.041 272.276 C 589.163 271.020 594.113 255.889 595.002 251.000 C 595.451 248.525 596.061 245.475 596.357 244.223 C 596.666 242.918 596.491 242.197 595.948 242.532 C 595.426 242.854 595.000 242.416 595.000 241.559 C 595.000 240.127 594.384 239.886 590.000 239.596 C 589.175 239.542 588.725 239.256 589.000 238.962 C 589.504 238.423 580.285 229.359 574.250 224.461 L 571.000 221.822 571.000 231.220 "/></g>
<g fill="#FFFB00FF" stroke="#FFFB00FF">
<path d="M 415.312 38.809 C 412.912 39.041 412.047 39.659 411.812 41.309 C 411.640 42.514 411.628 54.386 411.784 67.692 L 412.068 91.883 415.784 92.274 L 419.500 92.664 415.250 92.832 C 412.913 92.924 411.000 93.450 411.000 94.000 C 411.000 94.588 414.500 95.000 419.500 95.000 L 428.000 95.000 428.000 66.743 L 428.000 38.485 423.250 38.493 C 420.638 38.497 417.065 38.639 415.312 38.809 M 426.216 67.267 C 426.438 87.340 426.225 93.001 425.250 93.001 C 424.281 93.000 424.000 86.993 424.000 66.300 C 424.000 49.124 424.345 39.945 424.966 40.566 C 425.522 41.122 426.053 52.456 426.216 67.267 "/></g>
<g fill="#7F0D00FF" stroke="#7F0D00FF">
<path d="M 455.441 51.292 C 455.169 52.003 455.070 59.540 455.223 68.042 L 455.500 83.500 460.373 83.810 C 463.053 83.980 465.978 83.800 466.873 83.410 C 467.768 83.019 469.400 82.538 470.500 82.341 C 475.016 81.531 477.993 79.609 480.428 75.930 C 483.208 71.728 483.674 69.855 481.840 70.250 C 480.959 70.440 480.959 70.305 481.840 69.691 C 483.797 68.326 483.278 60.308 481.134 58.807 C 480.108 58.088 479.208 57.050 479.134 56.500 C 479.060 55.950 478.513 55.500 477.917 55.500 C 477.321 55.500 477.139 55.194 477.514 54.820 C 478.262 54.071 470.853 49.991 468.790 50.015 C 467.863 50.026 467.914 50.292 468.971 50.961 C 471.164 52.348 469.635 53.197 466.404 52.387 C 463.870 51.751 463.779 51.595 465.536 50.908 C 466.823 50.405 465.506 50.116 461.719 50.070 C 457.862 50.023 455.772 50.430 455.441 51.292 "/></g>
<g fill="#7F0D00FF" stroke="#7F0D00FF">
<path d="M 596.500 51.848 C 591.717 54.782 589.132 60.733 589.331 68.353 C 589.482 74.118 589.799 75.056 592.250 76.983 C 593.763 78.172 595.000 79.732 595.000 80.450 C 595.000 82.764 597.795 84.167 602.403 84.167 C 608.741 84.167 610.997 83.254 611.015 80.683 C 611.026 79.095 611.263 78.866 611.881 79.842 C 612.527 80.861 613.275 80.423 614.983 78.024 C 618.907 72.513 617.787 57.000 613.465 57.000 C 612.659 57.000 612.000 56.523 612.000 55.941 C 612.000 55.359 612.445 55.157 612.989 55.493 C 613.546 55.838 613.728 55.455 613.406 54.615 C 613.092 53.796 612.178 53.378 611.376 53.686 C 610.521 54.014 610.038 53.730 610.209 52.998 C 610.369 52.311 609.938 51.544 609.250 51.292 C 608.563 51.040 608.000 51.321 608.000 51.917 C 608.000 52.541 606.008 53.000 603.300 53.000 C 597.947 53.000 598.446 51.384 604.000 50.731 L 607.500 50.320 603.500 50.164 C 601.124 50.071 598.282 50.755 596.500 51.848 "/></g>
<g fill="#000000FF" stroke="#000000FF">
<path d="M 409.607 160.095 C 406.134 162.827 402.800 169.442 403.191 172.826 L 403.500 175.500 415.000 175.500 C 426.451 175.500 426.501 175.490 426.847 173.044 C 428.313 162.653 417.080 154.216 409.607 160.095 "/></g>
<g fill="#000000FF" stroke="#000000FF">
<path d="M 262.315 160.464 C 258.699 162.036 256.359 165.905 255.401 171.895 L 254.744 176.000 266.983 176.000 L 279.223 176.000 278.520 172.250 C 277.221 165.322 275.267 162.010 271.568 160.464 C 267.321 158.690 266.394 158.690 262.315 160.464 "/></g>
<g fill="#FFFB05FF" stroke="#FFFB05FF">
<path d="M 424.000 68.000 C 424.000 83.333 424.361 92.000 425.000 92.000 C 425.639 92.000 426.000 83.333 426.000 68.000 C 426.000 52.667 425.639 44.000 425.000 44.000 C 424.361 44.000 424.000 52.667 424.000 68.000 "/></g>
<g fill="#000000FF" stroke="#000000FF">
<path d="M 486.000 144.737 C 489.315 145.353 489.966 146.587 489.985 152.286 L 490.000 157.073 496.052 152.036 C 499.380 149.266 501.432 147.000 500.611 147.000 C 499.790 147.000 498.854 147.428 498.531 147.951 C 498.205 148.477 496.331 147.807 494.332 146.451 C 491.975 144.851 489.467 144.047 487.110 144.136 C 484.338 144.241 484.080 144.380 486.000 144.737 "/></g>
<g fill="#FFF045FF" stroke="#FFF045FF">
<path d="M 566.208 90.500 L 566.000 95.000 537.000 95.242 L 508.000 95.484 537.250 95.492 L 566.500 95.500 566.458 90.750 L 566.417 86.000 566.208 90.500 "/></g>
<g fill="#FFFB05FF" stroke="#FFFB05FF">
<path d="M 531.000 46.000 C 531.000 46.625 537.000 47.000 547.000 47.000 C 557.000 47.000 563.000 46.625 563.000 46.000 C 563.000 45.375 557.000 45.000 547.000 45.000 C 537.000 45.000 531.000 45.375 531.000 46.000 "/></g>
<g fill="#7F0D00FF" stroke="#7F0D00FF">
<path d="M 614.000 179.941 C 611.918 180.473 611.450 181.263 611.199 184.663 C 610.968 187.784 611.303 188.902 612.616 189.406 C 614.760 190.229 615.443 189.487 616.987 184.658 C 618.387 180.282 617.590 179.024 614.000 179.941 "/></g>
</svg>