<svg xmlns:inkscape="http://www.inkscape.org/namespaces/inkscape" xmlns:sodipodi="http://sodipodi.sourceforge.net/DTD/sodipodi-0.dtd" xmlns="http://www.w3.org/2000/svg" xmlns:svg="http://www.w3.org/2000/svg" version="1.1" id="svg2" xml:space="preserve" sodipodi:docname="022bdf59bd7c390392848a1253f6039b.eps" viewBox="-30 -30 800 700"><defs id="defs6"/><sodipodi:namedview id="namedview4" pagecolor="#ffffff" bordercolor="#666666" borderopacity="1.0" inkscape:pageshadow="2" inkscape:pageopacity="0.0" inkscape:pagecheckerboard="0"/><g id="g8" inkscape:groupmode="layer" inkscape:label="ink_ext_XXXXXX" transform="matrix(1.3333333,0,0,-1.3333333,-0.23072933,631.32665)"><g id="g10" transform="scale(0.1)"><path d="M 5448.06,3.95313 V 4734.95 H 607.914 V 2535.51 H 1831.88 v -4.65 h 4.65 V 3.95313 h 3611.53" style="fill:#4dc6f4;fill-opacity:1;fill-rule:evenodd;stroke:none" id="path12"/><path d="m 2217.43,2909.44 c 13.93,-37.16 18.57,-65.03 55.73,-81.29 25.55,-11.61 39.49,-20.9 39.49,-53.42 0,-46.45 -53.42,-41.8 -85.94,-41.8 h -406.44 c -37.16,0 -85.93,0 -85.93,48.77 0,53.42 67.35,44.13 67.35,78.96 0,13.94 -9.29,37.16 -13.94,48.78 l -99.86,301.92 c -9.29,30.19 -20.91,65.04 -20.91,97.55 0,34.84 18.59,55.74 37.16,83.61 l 188.13,267.09 c 23.23,30.19 41.81,62.71 41.81,102.19 0,44.13 -23.23,65.03 -62.71,81.29 -25.55,11.61 -48.78,18.58 -48.78,51.09 0,48.78 44.13,48.78 78.97,48.78 h 276.39 c 39.48,0 85.93,-2.32 85.93,-53.42 0,-37.16 -30.2,-48.77 -60.39,-60.38 -111.48,-41.81 -148.64,-104.52 -216,-195.1 l -30.19,-41.8 z m -610.83,4.64 c 0,-60.38 -2.32,-69.67 55.74,-88.25 20.91,-6.97 34.84,-20.91 34.84,-44.13 0,-46.45 -53.42,-48.77 -60.39,-48.77 h -457.54 c -6.96,0 -60.38,2.32 -60.38,48.77 0,23.22 16.26,37.16 37.16,44.13 55.74,18.58 53.42,27.87 53.42,88.25 v 847.72 c 0,60.39 2.32,69.68 -53.42,85.94 -20.9,6.96 -37.16,20.9 -37.16,44.13 0,46.45 53.42,51.09 60.38,51.09 h 457.54 c 6.97,0 60.39,-4.64 60.39,-51.09 0,-23.23 -13.93,-37.17 -34.84,-44.13 -58.06,-16.26 -55.74,-25.55 -55.74,-85.94 v -847.72" style="fill:#ffffff;fill-opacity:1;fill-rule:evenodd;stroke:none" id="path14"/><path d="m 2853.8,3534.2 -153.29,-555.09 c -25.55,-97.54 -2.32,-125.41 53.42,-150.96 25.55,-9.29 46.45,-20.9 46.45,-53.42 0,-44.13 -51.09,-41.8 -83.61,-41.8 h -185.81 c -32.51,0 -90.57,0 -90.57,48.77 0,37.16 27.87,37.16 62.7,53.42 34.84,18.58 78.97,55.74 109.17,169.54 l 195.09,710.69 h 4.64 z m 171.86,-487.74 h -234.57 l 20.9,92.9 h 197.42 l -162.58,715.34 20.9,88.26 h 357.67 l 243.87,-1024.23 c 9.29,-44.13 9.29,-74.32 55.74,-95.23 23.22,-9.29 39.48,-20.9 39.48,-48.77 0,-44.13 -58.06,-41.8 -88.26,-41.8 h -401.8 c -32.51,0 -81.28,2.32 -81.28,44.12 0,25.55 11.61,34.84 32.51,46.45 41.81,23.23 48.77,34.84 32.52,97.55 l -32.52,125.41" style="fill:#ffffff;fill-opacity:1;fill-rule:evenodd;stroke:none" id="path16"/><path d="m 3882.68,3761.8 c 0,60.39 2.32,69.68 -53.42,85.94 -20.9,6.96 -37.16,20.9 -37.16,44.13 0,46.45 53.42,51.09 60.38,51.09 h 427.35 V 2914.08 c 0,-60.38 -2.32,-69.67 55.74,-88.25 20.9,-6.97 34.84,-20.91 34.84,-44.13 0,-46.45 -53.42,-48.77 -60.39,-48.77 h -457.54 c -6.96,0 -60.38,2.32 -60.38,48.77 0,23.22 16.26,37.16 37.16,44.13 55.74,18.58 53.42,27.87 53.42,88.25 z m 471.47,181.16 h 6.97 c 104.51,0 215.99,2.32 313.54,-44.13 106.84,-53.42 162.58,-141.67 164.9,-264.77 2.32,-185.8 -120.77,-267.09 -285.67,-306.57 v -2.32 c 144,-20.9 281.02,-65.03 285.67,-234.58 V 2946.6 c 0,-13.94 -4.65,-46.45 16.26,-46.45 25.54,0 30.19,46.45 69.67,46.45 20.9,0 46.46,-23.23 46.46,-46.45 0,-46.45 -53.43,-106.84 -90.59,-134.71 -53.41,-44.13 -111.48,-58.06 -181.15,-58.06 -69.68,0 -132.39,18.58 -183.48,67.35 -55.75,60.39 -65.03,130.06 -65.03,206.7 v 109.16 c 0,74.32 -2.32,164.9 -97.55,176.52 v 95.22 c 85.94,6.97 97.55,60.38 97.55,139.35 v 197.41 c 0,78.97 -18.59,118.45 -97.55,148.65 v 95.22" style="fill:#ffffff;fill-opacity:1;fill-rule:evenodd;stroke:none" id="path18"/><path d="m 1831.88,2530.86 h 285.68 c 34.83,0 92.9,6.97 92.9,-46.45 0,-53.41 -74.32,-39.48 -74.32,-99.87 0,-13.93 4.64,-23.22 9.29,-39.48 l 160.25,-594.56 -106.84,-429.68 h -192.77 l -169.54,668.9 v 541.14 z m 740.89,0 211.35,-808.23 -102.19,-401.81 h -192.77 l -211.35,778.06 111.48,431.98 z m 197.42,-494.7 62.7,253.16 c 4.65,20.91 11.62,41.81 11.62,65.04 0,85.93 -102.19,71.99 -102.19,132.37 0,37.16 32.51,44.13 62.7,44.13 h 209.03 c 30.2,0 65.03,-4.64 65.03,-46.45 0,-23.22 -11.61,-30.19 -32.52,-39.48 -81.28,-37.16 -102.18,-92.9 -123.09,-174.19 l -104.51,-411.08 -2.32,2.32 -46.45,174.18" style="fill:#ffffff;fill-opacity:1;fill-rule:evenodd;stroke:none" id="path20"/><path d="m 3223.08,2530.86 h 427.34 V 1320.82 h -427.34 c -6.97,0 -60.38,2.33 -60.38,48.78 0,23.22 16.25,37.16 37.16,44.13 55.74,18.58 53.41,27.87 53.41,88.26 v 847.72 c 0,58.06 2.33,67.35 -53.41,85.93 -20.91,6.97 -37.16,20.9 -37.16,44.13 0,46.45 53.41,51.09 60.38,51.09 z m 499.34,0 h 362.31 v -329.79 c 0,-6.97 -2.32,-39.49 -51.09,-39.49 -27.87,0 -34.84,16.26 -44.13,41.81 -41.8,130.06 -123.09,209.02 -267.09,232.25 z m 0,-1117.13 c 132.39,16.26 232.26,104.51 276.38,234.57 11.62,23.23 20.91,51.1 48.78,51.1 53.41,0 48.77,-48.77 48.77,-55.74 v -322.84 h -373.93 z m 0,575.99 c 69.68,18.58 99.87,81.29 113.81,141.67 9.29,27.87 18.58,53.42 51.09,53.42 51.1,0 44.13,-58.06 44.13,-69.68 v -350.7 c 0,-11.61 6.97,-72 -44.13,-72 -32.51,0 -41.8,27.87 -51.09,53.42 -13.94,62.71 -44.13,125.42 -113.81,144 v 99.87" style="fill:#ffffff;fill-opacity:1;fill-rule:evenodd;stroke:none" id="path22"/><path d="m 4841.88,1501.99 c 0,-60.39 0,-69.68 55.74,-88.26 20.9,-6.97 34.84,-20.91 34.84,-44.13 0,-46.45 -53.42,-48.78 -58.06,-48.78 h -457.54 c -6.97,0 -60.39,2.33 -60.39,48.78 0,23.22 13.94,37.16 34.84,44.13 55.74,18.58 55.74,27.87 55.74,88.26 v 847.72 c 0,58.06 0,67.35 -55.74,85.93 -20.9,6.97 -34.84,20.9 -34.84,44.13 0,46.45 53.42,51.09 60.39,51.09 h 457.54 c 4.64,0 58.06,-4.64 58.06,-51.09 0,-23.23 -13.94,-37.16 -34.84,-44.13 -55.74,-18.58 -55.74,-27.87 -55.74,-85.93 v -847.72" style="fill:#ffffff;fill-opacity:1;fill-rule:evenodd;stroke:none" id="path24"/><path d="M 5420.19,4734.95 V 3.95313 h 250.83 V 4734.95 h -250.83" style="fill:#289442;fill-opacity:1;fill-rule:evenodd;stroke:none" id="path26"/><path d="M 1.73047,2535.51 H 640.426 V 4734.95 H 1.73047 V 2535.51" style="fill:#c71b00;fill-opacity:1;fill-rule:evenodd;stroke:none" id="path28"/><path d="M 5448.06,3.95313 V 4734.95 H 607.914 V 2535.51 H 1831.88 v -4.65 h 4.65 V 3.95313 h 3611.53" style="fill:#231f20;fill-opacity:1;fill-rule:evenodd;stroke:none" id="path30"/><path d="m 2217.43,2909.44 c 13.93,-37.16 18.57,-65.03 55.73,-81.29 25.55,-11.61 39.49,-20.9 39.49,-53.42 0,-46.45 -53.42,-41.8 -85.94,-41.8 h -406.44 c -37.16,0 -85.93,0 -85.93,48.77 0,53.42 67.35,44.13 67.35,78.96 0,13.94 -9.29,37.16 -13.94,48.78 l -99.86,301.92 c -9.29,30.19 -20.91,65.04 -20.91,97.55 0,34.84 18.59,55.74 37.16,83.61 l 188.13,267.09 c 23.23,30.19 41.81,62.71 41.81,102.19 0,44.13 -23.23,65.03 -62.71,81.29 -25.55,11.61 -48.78,18.58 -48.78,51.09 0,48.78 44.13,48.78 78.97,48.78 h 276.39 c 39.48,0 85.93,-2.32 85.93,-53.42 0,-37.16 -30.2,-48.77 -60.39,-60.38 -111.48,-41.81 -148.64,-104.52 -216,-195.1 l -30.19,-41.8 z m -610.83,4.64 c 0,-60.38 -2.32,-69.67 55.74,-88.25 20.91,-6.97 34.84,-20.91 34.84,-44.13 0,-46.45 -53.42,-48.77 -60.39,-48.77 h -457.54 c -6.96,0 -60.38,2.32 -60.38,48.77 0,23.22 16.26,37.16 37.16,44.13 55.74,18.58 53.42,27.87 53.42,88.25 v 847.72 c 0,60.39 2.32,69.68 -53.42,85.94 -20.9,6.96 -37.16,20.9 -37.16,44.13 0,46.45 53.42,51.09 60.38,51.09 h 457.54 c 6.97,0 60.39,-4.64 60.39,-51.09 0,-23.23 -13.93,-37.17 -34.84,-44.13 -58.06,-16.26 -55.74,-25.55 -55.74,-85.94 v -847.72" style="fill:#ffffff;fill-opacity:1;fill-rule:evenodd;stroke:none" id="path32"/><path d="m 2853.8,3534.2 -153.29,-555.09 c -25.55,-97.54 -2.32,-125.41 53.42,-150.96 25.55,-9.29 46.45,-20.9 46.45,-53.42 0,-44.13 -51.09,-41.8 -83.61,-41.8 h -185.81 c -32.51,0 -90.57,0 -90.57,48.77 0,37.16 27.87,37.16 62.7,53.42 34.84,18.58 78.97,55.74 109.17,169.54 l 195.09,710.69 h 4.64 z m 171.86,-487.74 h -234.57 l 20.9,92.9 h 197.42 l -162.58,715.34 20.9,88.26 h 357.67 l 243.87,-1024.23 c 9.29,-44.13 9.29,-74.32 55.74,-95.23 23.22,-9.29 39.48,-20.9 39.48,-48.77 0,-44.13 -58.06,-41.8 -88.26,-41.8 h -401.8 c -32.51,0 -81.28,2.32 -81.28,44.12 0,25.55 11.61,34.84 32.51,46.45 41.81,23.23 48.77,34.84 32.52,97.55 l -32.52,125.41" style="fill:#ffffff;fill-opacity:1;fill-rule:evenodd;stroke:none" id="path34"/><path d="m 3882.68,3761.8 c 0,60.39 2.32,69.68 -53.42,85.94 -20.9,6.96 -37.16,20.9 -37.16,44.13 0,46.45 53.42,51.09 60.38,51.09 h 427.35 V 2914.08 c 0,-60.38 -2.32,-69.67 55.74,-88.25 20.9,-6.97 34.84,-20.91 34.84,-44.13 0,-46.45 -53.42,-48.77 -60.39,-48.77 h -457.54 c -6.96,0 -60.38,2.32 -60.38,48.77 0,23.22 16.26,37.16 37.16,44.13 55.74,18.58 53.42,27.87 53.42,88.25 z m 471.47,181.16 h 6.97 c 104.51,0 215.99,2.32 313.54,-44.13 106.84,-53.42 162.58,-141.67 164.9,-264.77 2.32,-185.8 -120.77,-267.09 -285.67,-306.57 v -2.32 c 144,-20.9 281.02,-65.03 285.67,-234.58 V 2946.6 c 0,-13.94 -4.65,-46.45 16.26,-46.45 25.54,0 30.19,46.45 69.67,46.45 20.9,0 46.46,-23.23 46.46,-46.45 0,-46.45 -53.43,-106.84 -90.59,-134.71 -53.41,-44.13 -111.48,-58.06 -181.15,-58.06 -69.68,0 -132.39,18.58 -183.48,67.35 -55.75,60.39 -65.03,130.06 -65.03,206.7 v 109.16 c 0,74.32 -2.32,164.9 -97.55,176.52 v 95.22 c 85.94,6.97 97.55,60.38 97.55,139.35 v 197.41 c 0,78.97 -18.59,118.45 -97.55,148.65 v 95.22" style="fill:#ffffff;fill-opacity:1;fill-rule:evenodd;stroke:none" id="path36"/><path d="m 1831.88,2530.86 h 285.68 c 34.83,0 92.9,6.97 92.9,-46.45 0,-53.41 -74.32,-39.48 -74.32,-99.87 0,-13.93 4.64,-23.22 9.29,-39.48 l 160.25,-594.56 -106.84,-429.68 h -192.77 l -169.54,671.22 v 538.82 z m 740.89,0 211.35,-808.23 -102.19,-401.81 h -192.77 l -211.35,778.06 111.48,431.98 z m 197.42,-494.7 62.7,253.16 c 4.65,20.91 11.62,41.81 11.62,65.04 0,85.93 -102.19,71.99 -102.19,132.37 0,37.16 32.51,44.13 62.7,44.13 h 209.03 c 30.2,0 65.03,-4.64 65.03,-46.45 0,-23.22 -11.61,-30.19 -32.52,-39.48 -81.28,-37.16 -102.18,-92.9 -123.09,-174.19 l -104.51,-411.08 -2.32,2.32 -46.45,174.18" style="fill:#ffffff;fill-opacity:1;fill-rule:evenodd;stroke:none" id="path38"/><path d="m 3223.08,2530.86 h 427.34 V 1320.82 h -427.34 c -6.97,0 -60.38,2.33 -60.38,48.78 0,23.22 16.25,37.16 37.16,44.13 55.74,18.58 53.41,27.87 53.41,88.26 v 847.72 c 0,58.06 2.33,67.35 -53.41,85.93 -20.91,6.97 -37.16,20.9 -37.16,44.13 0,46.45 53.41,51.09 60.38,51.09 z m 499.34,0 h 362.31 v -329.79 c 0,-6.97 -2.32,-39.49 -51.09,-39.49 -27.87,0 -34.84,16.26 -44.13,41.81 -41.8,130.06 -123.09,209.02 -267.09,232.25 z m 0,-1117.13 c 132.39,16.26 232.26,104.51 276.38,234.57 11.62,23.23 20.91,51.1 48.78,51.1 53.41,0 48.77,-48.77 48.77,-55.74 v -322.84 h -373.93 z m 0,575.99 c 69.68,18.58 99.87,81.29 113.81,141.67 9.29,27.87 18.58,53.42 51.09,53.42 51.1,0 44.13,-58.06 44.13,-69.68 v -350.7 c 0,-11.61 6.97,-72 -44.13,-72 -32.51,0 -41.8,27.87 -51.09,53.42 -13.94,62.71 -44.13,125.42 -113.81,144 v 99.87" style="fill:#ffffff;fill-opacity:1;fill-rule:evenodd;stroke:none" id="path40"/><path d="m 4841.88,1501.99 c 0,-60.39 0,-69.68 55.74,-88.26 20.9,-6.97 34.84,-20.91 34.84,-44.13 0,-46.45 -53.42,-48.78 -58.06,-48.78 h -457.54 c -6.97,0 -60.39,2.33 -60.39,48.78 0,23.22 13.94,37.16 34.84,44.13 55.74,18.58 55.74,27.87 55.74,88.26 v 847.72 c 0,58.06 0,67.35 -55.74,85.93 -20.9,6.97 -34.84,20.9 -34.84,44.13 0,46.45 53.42,51.09 60.39,51.09 h 457.54 c 4.64,0 58.06,-4.64 58.06,-51.09 0,-23.23 -13.94,-37.16 -34.84,-44.13 -55.74,-18.58 -55.74,-27.87 -55.74,-85.93 v -847.72" style="fill:#ffffff;fill-opacity:1;fill-rule:evenodd;stroke:none" id="path42"/></g></g></svg>