<svg xmlns="http://www.w3.org/2000/svg" version="1.0" style="" preserveAspectRatio="xMidYMid meet" viewBox="0 20 350 300">
<g fill="#000000FF" stroke="#000000FF">
<path d="M 64.292 53.337 C 64.007 53.798 62.925 53.952 61.887 53.681 C 60.849 53.409 60.000 53.643 60.000 54.201 C 60.000 54.758 59.354 54.966 58.565 54.663 C 57.775 54.360 56.979 54.562 56.796 55.111 C 56.613 55.660 55.675 56.225 54.710 56.366 C 53.746 56.508 53.267 56.933 53.645 57.312 C 54.024 57.690 53.808 58.056 53.167 58.125 C 51.341 58.321 49.935 58.737 50.636 58.875 C 50.986 58.944 50.086 60.186 48.636 61.636 C 47.186 63.086 45.944 63.986 45.875 63.636 C 45.806 63.286 45.662 63.338 45.554 63.750 C 44.991 65.898 42.574 70.000 41.871 70.000 C 41.426 70.000 41.322 70.675 41.638 71.500 C 41.955 72.325 41.778 73.000 41.246 73.000 C 40.713 73.000 40.492 74.125 40.755 75.500 C 41.034 76.959 40.768 78.000 40.117 78.000 C 38.731 78.000 38.502 292.574 39.887 293.430 C 40.624 293.886 41.604 297.180 42.585 302.500 C 42.686 303.050 42.821 303.320 42.885 303.100 C 42.948 302.880 44.374 304.597 46.054 306.915 C 47.733 309.234 50.658 312.046 52.554 313.164 C 54.449 314.283 56.000 315.491 56.001 315.849 C 56.001 316.207 57.185 316.569 58.631 316.652 C 60.078 316.736 61.540 317.186 61.881 317.652 C 62.668 318.730 283.296 318.777 284.091 317.699 C 284.416 317.258 285.991 316.727 287.591 316.518 C 289.191 316.309 290.275 316.038 290.000 315.917 C 289.725 315.795 289.950 315.591 290.500 315.463 C 291.050 315.335 291.320 315.179 291.100 315.115 C 290.880 315.052 292.532 313.672 294.772 312.050 C 297.012 310.427 299.316 308.290 299.892 307.300 C 300.468 306.310 301.009 305.838 301.095 306.250 C 301.180 306.663 301.328 306.663 301.424 306.250 C 302.092 303.375 303.273 301.000 304.036 301.000 C 304.532 301.000 304.678 300.325 304.362 299.500 C 304.045 298.675 304.272 298.000 304.867 298.000 C 305.635 298.000 305.948 265.447 305.948 185.500 C 305.948 105.553 305.635 73.000 304.867 73.000 C 304.272 73.000 304.054 72.302 304.382 71.448 C 304.761 70.460 304.571 70.147 303.859 70.587 C 303.198 70.996 302.921 70.736 303.183 69.952 C 303.426 69.222 302.793 67.793 301.776 66.776 C 300.759 65.759 300.238 64.424 300.618 63.809 C 301.006 63.182 300.861 62.968 300.288 63.322 C 299.303 63.931 296.481 61.530 295.821 59.522 C 295.645 58.984 294.837 58.447 294.027 58.328 C 293.217 58.209 292.048 57.419 291.429 56.571 C 290.809 55.724 290.009 55.324 289.651 55.682 C 289.293 56.040 289.000 55.822 289.000 55.198 C 289.000 54.574 288.325 54.322 287.500 54.638 C 286.675 54.955 286.000 54.778 286.000 54.246 C 286.000 53.713 284.875 53.492 283.500 53.755 C 282.125 54.018 281.000 53.843 281.000 53.367 C 281.000 52.250 64.982 52.221 64.292 53.337 M 284.015 68.250 C 286.644 69.582 289.279 71.927 290.477 74.000 C 292.467 77.443 292.504 79.184 292.768 180.250 C 292.975 259.470 292.763 283.000 291.840 283.000 C 291.182 283.000 280.487 280.320 268.072 277.045 C 209.356 261.553 202.414 260.498 192.311 265.532 C 187.591 267.884 180.551 274.498 175.277 281.534 C 173.317 284.149 172.932 284.304 172.029 282.842 C 168.951 277.864 162.534 270.778 158.782 268.215 C 152.029 263.601 147.875 262.661 136.913 263.265 L 127.178 263.801 137.902 247.151 C 143.800 237.993 155.728 219.379 164.409 205.786 L 180.194 181.073 170.456 165.286 C 165.100 156.604 160.217 148.952 159.605 148.282 C 158.090 146.624 109.000 249.026 109.000 253.844 C 109.000 258.001 111.202 262.252 114.658 264.770 C 117.162 266.593 117.222 266.792 115.436 267.333 C 108.627 269.392 55.683 283.000 54.479 283.000 C 53.183 283.000 53.000 270.486 53.000 182.125 C 53.000 126.644 53.295 79.773 53.656 77.969 C 54.419 74.153 60.761 67.366 64.170 66.716 C 65.451 66.472 114.442 66.211 173.038 66.136 L 279.576 66.000 284.015 68.250 M 145.219 279.044 C 151.900 280.899 157.457 287.261 159.377 295.250 L 160.038 298.000 173.408 298.000 L 186.777 298.000 187.401 294.677 C 188.393 289.390 193.283 282.576 197.615 280.445 C 205.152 276.738 211.773 277.694 252.302 288.336 C 272.544 293.651 289.376 298.000 289.707 298.000 C 290.039 298.000 289.454 298.946 288.407 300.102 C 283.780 305.216 288.870 305.000 172.936 305.000 L 64.772 305.000 60.932 302.842 C 58.821 301.655 56.884 300.140 56.629 299.475 C 56.308 298.639 67.129 295.425 91.696 289.061 C 137.905 277.091 138.073 277.059 145.219 279.044 "/></g>
<g fill="#FBE02FFF" stroke="#FBE02FFF">
<path d="M 62.017 68.851 C 60.118 69.870 57.650 71.928 56.532 73.425 C 54.524 76.114 54.497 77.369 54.236 179.398 L 53.973 282.650 84.500 274.644 L 115.027 266.638 112.636 264.069 C 109.253 260.435 107.995 257.635 108.031 253.816 C 108.052 251.586 116.215 233.473 132.949 198.527 C 146.636 169.943 158.210 146.435 158.668 146.287 C 159.125 146.140 164.380 153.913 170.344 163.560 L 181.188 181.100 166.365 204.300 C 158.212 217.060 146.509 235.347 140.359 244.938 L 129.176 262.376 139.838 262.438 C 149.698 262.495 150.898 262.720 155.788 265.430 C 160.896 268.259 165.698 272.819 171.065 279.935 L 173.629 283.336 175.850 279.743 C 179.454 273.912 189.341 265.413 194.608 263.618 C 200.057 261.761 208.155 261.542 216.222 263.033 C 219.296 263.601 237.178 268.101 255.961 273.033 C 274.743 277.965 290.544 282.000 291.074 282.000 C 291.686 282.000 291.939 244.644 291.768 179.250 C 291.510 80.141 291.433 76.401 289.597 73.692 C 288.551 72.148 285.981 70.011 283.887 68.942 C 280.187 67.055 277.045 67.000 172.774 67.000 C 70.249 67.000 65.315 67.082 62.017 68.851 M 222.293 166.233 C 260.594 250.876 264.800 260.672 263.610 262.483 C 260.537 267.164 251.563 267.745 243.206 263.804 C 237.972 261.336 239.741 263.937 194.537 192.250 C 175.376 161.863 159.406 137.000 159.049 137.000 C 158.692 137.000 153.258 146.062 146.972 157.137 C 133.883 180.200 132.051 182.079 121.946 182.810 C 114.498 183.349 111.416 182.565 109.503 179.645 C 108.066 177.451 108.339 176.569 114.375 163.910 C 122.808 146.227 124.462 141.037 124.295 132.779 C 124.101 123.115 118.924 97.657 112.394 74.250 L 111.767 72.000 145.709 72.000 L 179.651 72.000 222.293 166.233 "/></g>
<g fill="#000000FF" stroke="#000000FF">
<path d="M 113.411 74.736 C 115.052 79.958 121.161 105.958 122.941 115.301 C 126.841 135.759 125.790 142.277 114.953 164.840 C 108.250 178.797 108.265 180.186 115.137 182.037 C 120.679 183.529 128.129 181.703 132.632 177.750 C 134.687 175.946 140.516 166.842 147.273 154.883 C 153.448 143.955 158.725 135.012 159.000 135.010 C 159.275 135.007 175.025 159.629 194.000 189.724 C 240.835 264.007 238.328 260.254 242.785 262.759 C 250.150 266.898 260.572 266.536 262.969 262.058 C 263.713 260.668 254.619 239.715 221.663 166.888 L 179.403 73.500 146.130 73.236 C 114.733 72.988 112.888 73.072 113.411 74.736 "/></g>
<g fill="#000000FF" stroke="#000000FF">
<path d="M 876.000 202.485 L 876.000 228.969 870.750 224.963 C 863.491 219.423 857.147 217.737 845.152 218.159 C 836.591 218.460 834.663 218.886 828.808 221.771 C 818.461 226.869 812.462 234.963 809.001 248.496 C 806.594 257.907 806.310 276.080 808.414 286.003 C 811.295 299.596 819.343 311.164 829.080 315.712 C 843.238 322.323 862.268 320.454 872.829 311.414 L 877.000 307.844 877.000 312.422 L 877.000 317.000 890.000 317.000 L 903.000 317.000 903.000 246.500 L 903.000 176.000 889.500 176.000 L 876.000 176.000 876.000 202.485 M 861.500 239.896 C 870.195 243.922 874.941 252.504 875.764 265.690 C 876.956 284.801 868.149 299.000 855.105 299.000 C 841.134 299.000 832.818 285.071 834.257 264.080 C 835.607 244.382 847.804 233.555 861.500 239.896 "/></g>
<g fill="#000000FF" stroke="#000000FF">
<path d="M 1461.000 203.119 L 1461.000 230.237 1457.750 227.029 C 1455.963 225.264 1452.250 222.623 1449.500 221.160 C 1444.854 218.688 1443.614 218.500 1432.000 218.500 C 1420.159 218.500 1419.195 218.655 1413.710 221.432 C 1398.891 228.935 1391.692 244.143 1391.665 268.000 C 1391.627 301.168 1405.526 319.083 1431.500 319.344 C 1442.699 319.456 1449.673 317.438 1456.750 312.037 L 1462.000 308.031 1462.000 312.515 L 1462.000 317.000 1474.500 317.000 L 1487.000 317.000 1487.000 246.500 L 1487.000 176.000 1474.000 176.000 L 1461.000 176.000 1461.000 203.119 M 1446.500 239.890 C 1451.692 242.286 1454.286 245.198 1457.520 252.263 C 1464.619 267.768 1459.795 290.492 1448.093 296.672 C 1436.388 302.854 1424.973 296.752 1420.582 281.964 C 1418.764 275.841 1418.513 263.372 1420.062 256.148 C 1423.104 241.962 1435.059 234.610 1446.500 239.890 "/></g>
<g fill="#000000FF" stroke="#000000FF">
<path d="M 497.500 184.088 C 481.538 186.334 464.638 194.776 456.040 204.797 C 450.590 211.151 445.576 220.936 442.847 230.545 C 439.847 241.109 439.593 263.949 442.363 274.000 C 448.303 295.547 463.953 310.903 485.596 316.421 C 504.560 321.255 527.084 320.440 550.772 314.061 L 555.000 312.923 555.000 276.961 L 555.000 241.000 528.000 241.000 L 501.000 241.000 501.000 252.000 L 501.000 263.000 515.000 263.000 L 529.000 263.000 529.000 279.531 C 529.000 294.335 528.817 296.138 527.250 296.781 C 526.288 297.177 520.100 297.481 513.500 297.458 C 499.583 297.410 493.433 295.572 485.068 288.960 C 474.566 280.658 469.929 270.541 469.237 254.417 C 468.542 238.220 471.690 228.522 480.808 218.774 C 486.549 212.637 492.324 209.196 500.856 206.830 C 512.532 203.593 530.812 204.888 543.940 209.883 C 546.933 211.021 549.513 211.820 549.676 211.658 C 549.838 211.496 550.268 206.157 550.631 199.795 L 551.292 188.227 544.396 186.667 C 528.974 183.180 510.988 182.190 497.500 184.088 "/></g>
<g fill="#000000FF" stroke="#000000FF">
<path d="M 1257.500 184.482 C 1241.488 187.052 1230.642 192.333 1220.227 202.629 C 1206.828 215.876 1201.426 232.137 1202.214 256.850 C 1202.581 268.365 1203.076 271.751 1205.378 278.500 C 1212.199 298.491 1226.140 310.755 1248.761 316.666 C 1265.776 321.111 1290.302 320.112 1312.787 314.057 L 1317.000 312.923 1317.000 276.961 L 1317.000 241.000 1290.000 241.000 L 1263.000 241.000 1263.000 252.000 L 1263.000 263.000 1277.000 263.000 L 1291.000 263.000 1291.000 279.393 C 1291.000 298.389 1291.949 296.902 1279.292 297.736 C 1263.321 298.788 1251.316 294.430 1241.762 284.110 C 1222.154 262.930 1228.163 223.086 1252.853 210.575 C 1266.972 203.420 1288.297 203.181 1306.184 209.978 L 1310.949 211.788 1311.436 208.644 C 1311.703 206.915 1312.198 201.653 1312.534 196.950 L 1313.146 188.400 1305.823 186.679 C 1289.981 182.957 1272.075 182.143 1257.500 184.482 "/></g>
<g fill="#000000FF" stroke="#000000FF">
<path d="M 609.000 219.886 C 600.206 222.729 594.981 225.858 588.981 231.875 C 579.660 241.223 575.000 253.596 575.000 269.000 C 575.000 287.775 582.782 303.049 597.000 312.181 C 606.886 318.531 622.792 321.139 636.577 318.669 C 660.113 314.453 674.990 297.693 676.700 273.465 C 678.578 246.851 663.490 224.495 640.000 219.085 C 632.663 217.396 615.317 217.844 609.000 219.886 M 635.824 240.600 C 644.945 245.145 649.467 254.138 649.353 267.505 C 649.184 287.348 640.506 299.000 625.896 299.000 C 614.335 299.000 606.409 291.718 603.439 278.371 C 597.351 251.005 615.119 230.282 635.824 240.600 "/></g>
<g fill="#000000FF" stroke="#000000FF">
<path d="M 953.487 219.799 C 941.676 223.883 934.214 230.511 929.053 241.500 C 924.863 250.422 923.514 257.273 923.541 269.500 C 923.587 290.442 931.212 305.355 945.985 313.395 C 960.493 321.291 986.589 321.584 1003.640 314.041 L 1008.000 312.112 1008.000 301.556 C 1008.000 295.750 1007.601 291.000 1007.112 291.000 C 1006.624 291.000 1003.257 292.389 999.631 294.086 C 982.532 302.087 966.577 302.045 956.784 293.973 C 953.226 291.041 949.806 285.106 948.588 279.750 L 947.962 277.000 981.481 277.000 L 1015.000 277.000 1015.000 271.131 C 1015.000 263.358 1012.502 249.348 1009.972 242.929 C 1005.346 231.193 997.411 223.558 986.145 220.005 C 977.769 217.363 960.840 217.256 953.487 219.799 M 978.599 238.905 C 983.383 241.078 986.686 245.305 988.620 251.731 C 990.961 259.511 992.341 259.000 968.981 259.000 L 947.962 259.000 948.575 256.250 C 949.765 250.918 954.158 243.023 957.103 240.927 C 963.062 236.684 971.881 235.854 978.599 238.905 "/></g>
<g fill="#000000FF" stroke="#000000FF">
<path d="M 1078.500 219.392 C 1072.810 221.183 1070.304 222.679 1065.356 227.240 L 1061.000 231.255 1061.000 225.627 L 1061.000 220.000 1048.500 220.000 L 1036.000 220.000 1036.000 268.500 L 1036.000 317.000 1049.000 317.000 L 1062.000 317.000 1062.000 290.667 C 1062.000 261.327 1062.732 255.510 1067.396 247.777 C 1074.744 235.592 1089.798 234.727 1096.500 246.105 C 1098.376 249.289 1098.519 251.599 1098.799 283.250 L 1099.099 317.000 1112.549 317.000 L 1126.000 317.000 1125.992 287.250 C 1125.988 270.888 1125.556 253.771 1125.032 249.213 C 1123.276 233.940 1116.175 223.292 1105.266 219.575 C 1099.671 217.668 1084.312 217.564 1078.500 219.392 "/></g>
<g fill="#000000FF" stroke="#000000FF">
<path d="M 697.203 257.250 C 697.512 293.809 697.562 294.610 699.902 300.441 C 701.390 304.148 704.041 308.136 706.952 311.047 C 719.273 323.368 743.964 322.275 757.854 308.794 L 762.000 304.770 762.000 310.885 L 762.000 317.000 774.500 317.000 L 787.000 317.000 787.000 268.500 L 787.000 220.000 774.000 220.000 L 761.000 220.000 760.992 242.250 C 760.981 275.676 759.225 285.884 752.196 293.373 C 744.061 302.042 730.565 300.583 725.500 290.487 C 723.642 286.783 723.477 284.138 723.178 253.250 L 722.856 220.000 709.872 220.000 L 696.888 220.000 697.203 257.250 "/></g>
<g fill="#000000FF" stroke="#000000FF">
<path d="M 1529.487 219.738 C 1516.893 224.245 1510.490 230.619 1507.960 241.168 C 1506.475 247.357 1507.336 255.777 1509.983 260.967 C 1513.361 267.588 1518.979 271.419 1531.312 275.509 C 1544.563 279.904 1547.360 281.248 1549.439 284.217 C 1553.004 289.307 1549.448 296.707 1542.303 299.065 C 1536.812 300.877 1524.541 299.702 1516.953 296.637 C 1509.542 293.644 1509.038 293.959 1509.015 301.610 C 1509.007 304.421 1508.724 308.737 1508.386 311.201 L 1507.772 315.681 1516.136 317.287 C 1534.237 320.764 1546.550 320.385 1558.295 315.991 C 1564.945 313.503 1572.321 307.239 1575.207 301.628 C 1578.151 295.906 1578.820 283.985 1576.577 277.231 C 1573.476 267.895 1566.752 263.006 1548.906 257.109 C 1538.013 253.510 1535.000 251.297 1535.000 246.895 C 1535.000 242.448 1536.458 240.434 1540.991 238.620 C 1546.416 236.449 1554.031 236.578 1563.505 239.001 C 1567.809 240.102 1571.437 240.890 1571.567 240.751 C 1571.697 240.613 1572.200 236.128 1572.684 230.785 L 1573.565 221.069 1569.032 219.960 C 1566.540 219.349 1557.750 218.646 1549.500 218.397 C 1536.818 218.014 1533.725 218.222 1529.487 219.738 "/></g>
<g fill="#FBE02FFF" stroke="#FBE02FFF">
<path d="M 131.500 279.697 C 119.432 282.506 59.310 298.400 58.726 298.937 C 58.301 299.327 58.911 300.514 60.081 301.574 C 62.152 303.447 65.199 303.507 171.855 303.754 C 279.772 304.003 281.551 303.976 284.750 302.018 C 286.538 300.924 288.000 299.685 287.999 299.265 C 287.999 298.844 271.686 294.234 251.749 289.020 C 221.703 281.162 214.217 279.537 208.000 279.520 C 196.832 279.490 191.743 283.375 188.486 294.416 L 187.282 298.500 173.355 298.776 L 159.429 299.052 158.156 294.294 C 155.562 284.596 148.246 278.955 138.500 279.138 C 135.750 279.190 132.600 279.441 131.500 279.697 "/></g>
<g fill="#000000FF" stroke="#000000FF">
<path d="M 1345.000 268.500 L 1345.000 317.000 1358.000 317.000 L 1371.000 317.000 1371.000 268.500 L 1371.000 220.000 1358.000 220.000 L 1345.000 220.000 1345.000 268.500 "/></g>
<g fill="#000000FF" stroke="#000000FF">
<path d="M 320.299 67.960 C 316.104 70.517 313.999 74.777 314.004 80.700 C 314.009 87.187 316.823 91.592 322.594 94.145 C 328.410 96.717 333.872 95.930 338.520 91.848 C 346.443 84.892 345.112 72.212 335.961 67.480 C 331.871 65.365 324.167 65.601 320.299 67.960 M 333.510 69.440 C 337.537 71.122 340.993 76.230 340.993 80.500 C 340.993 86.788 334.678 93.005 328.300 92.996 C 322.378 92.988 316.000 86.388 316.000 80.267 C 316.000 77.004 319.598 71.685 323.062 69.827 C 327.171 67.623 329.000 67.555 333.510 69.440 "/></g>
<g fill="#000000FF" stroke="#000000FF">
<path d="M 1345.000 190.500 L 1345.000 203.000 1358.000 203.000 L 1371.000 203.000 1371.000 190.500 L 1371.000 178.000 1358.000 178.000 L 1345.000 178.000 1345.000 190.500 "/></g>
<g fill="#000000FF" stroke="#000000FF">
<path d="M 323.000 80.500 C 323.000 88.245 323.172 89.000 324.940 89.000 C 326.456 89.000 326.951 88.181 327.208 85.250 L 327.537 81.500 329.454 85.250 C 330.831 87.946 332.019 89.000 333.677 89.000 C 335.961 89.000 335.968 88.961 334.415 85.078 C 333.233 82.126 333.112 80.660 333.923 79.144 C 335.373 76.435 335.283 75.426 333.429 73.571 C 332.473 72.616 330.121 72.000 327.429 72.000 L 323.000 72.000 323.000 80.500 "/></g>
</svg>