<svg xmlns="http://www.w3.org/2000/svg" xmlns:xlink="http://www.w3.org/1999/xlink" version="1.1" viewBox="60 50 80 80">
<g enable-background="new">
<g id="Layer-1" data-name="Layer">
<path transform="matrix(1,0,0,-1,91.8574,53.6978)" d="M 0 0 L .682 .874 L 1.837 1.014 L 2.709 .329 L 8.473 .329 L 9.346 1.014 L 10.498 .874 L 11.183 .001 L 16.781 -1.379 L 17.791 -.922 L 18.877 -1.335 L 19.332 -2.348 L 24.431 -5.021 L 25.521 -4.823 L 26.476 -5.48 L 26.676 -6.574 L 30.992 -10.394 L 32.097 -10.464 L 32.865 -11.332 L 32.801 -12.439 L 36.07 -17.176 L 37.129 -17.507 L 37.671 -18.536 L 37.342 -19.594 L 39.386 -24.984 L 40.337 -25.558 L 40.612 -26.686 L 40.041 -27.634 L 40.732 -33.355 L 41.517 -34.14 L 41.517 -35.304 L 40.732 -36.086 L 40.041 -41.802 L 40.615 -42.75 L 40.339 -43.881 L 39.388 -44.452 L 37.344 -49.842 L 37.674 -50.901 L 37.132 -51.932 L 36.075 -52.26 L 32.801 -57.002 L 32.865 -58.113 L 32.097 -58.98 L 30.992 -59.045 L 26.682 -62.865 L 26.48 -63.957 L 25.527 -64.618 L 24.436 -64.415 L 19.331 -67.093 L 18.877 -68.107 L 17.791 -68.518 L 16.779 -68.062 L 11.188 -69.444 L 10.505 -70.316 L 9.352 -70.455 L 8.48 -69.769 L 2.715 -69.769 L 1.842 -70.455 L .689 -70.316 L .006 -69.444 L -5.592 -68.062 L -6.603 -68.518 L -7.688 -68.107 L -8.145 -67.093 L -13.242 -64.42 L -14.333 -64.621 L -15.29 -63.959 L -15.488 -62.868 L -19.805 -59.045 L -20.91 -58.98 L -21.681 -58.113 L -21.616 -57.002 L -24.885 -52.268 L -25.945 -51.937 L -26.484 -50.909 L -26.155 -49.848 L -28.2 -44.457 L -29.148 -43.887 L -29.427 -42.756 L -28.854 -41.81 L -29.548 -36.086 L -30.332 -35.304 L -30.332 -34.14 L -29.548 -33.355 L -28.855 -27.642 L -29.429 -26.691 L -29.15 -25.562 L -28.201 -24.989 L -26.157 -19.599 L -26.488 -18.541 L -25.948 -17.512 L -24.889 -17.181 L -21.614 -12.439 L -21.681 -11.332 L -20.91 -10.464 L -19.805 -10.394 L -15.494 -6.577 L -15.295 -5.485 L -14.338 -4.825 L -13.248 -5.026 L -8.144 -2.348 L -7.688 -1.335 L -6.603 -.922 L -5.592 -1.379 Z " fill="#ffd900"/>
<path transform="matrix(1,0,0,-1,109.7764,122.4902)" d="M 0 0 L -8.883 20.117 L -7.397 -1.826 M -24.649 68.145 L -15.766 48.026 L -17.251 69.969 M -32.442 64.207 L -19.003 46.797 L -25.694 67.749 M -39.072 58.513 L -21.855 44.83 L -33.368 63.568 M -44.142 51.406 L -24.152 42.234 L -39.812 57.677 M -47.368 43.287 L -25.764 39.17 L -44.664 50.411 M -48.554 34.632 L -26.593 35.802 L -47.636 42.195 M -47.636 25.945 L -26.593 32.339 L -48.554 33.512 M -44.664 17.73 L -25.764 28.976 L -47.368 24.859 M -39.812 10.467 L -24.152 25.906 L -44.142 16.735 M -33.368 4.575 L -21.855 23.316 L -39.072 9.628 M -25.694 .394 L -19.003 21.344 L -32.442 3.935 M -17.251 -1.826 L -15.766 20.117 L -24.649 0 M -8.515 -1.959 L -12.325 19.7 L -16.136 -1.959 M 7.793 3.935 L -5.646 21.344 L 1.044 .394 M 14.419 9.628 L -2.794 23.316 L 8.716 4.575 M 19.491 16.735 L -.497 25.906 L 15.161 10.467 M 22.715 24.859 L 1.113 28.976 L 20.012 17.73 M 23.902 33.512 L 1.943 32.339 L 22.985 25.945 M 22.985 42.195 L 1.943 35.802 L 23.902 34.632 M 20.012 50.411 L 1.113 39.17 L 22.715 43.287 M 15.161 57.677 L -.497 42.234 L 19.491 51.406 M 8.716 63.568 L -2.794 44.83 L 14.419 58.513 M 1.044 67.749 L -5.646 46.797 L 7.793 64.207 M -7.397 69.969 L -8.883 48.026 L 0 68.145 M -8.515 70.104 L -12.325 48.443 L -16.136 70.104 "/>
<clipPath id="cp0">
<path transform="matrix(1,0,0,-1,0,200)" d="M 0 200 L 200 200 L 200 0 L 0 0 Z "/>
</clipPath>
<g clip-path="url(#cp0)">
<path transform="matrix(1,0,0,-1,71.0898,70.23241)" d="M 0 0 C .407 .589 .26 1.396 -.33 1.803 C -.92 2.209 -1.729 2.063 -2.136 1.472 C -2.542 .883 -2.394 .076 -1.804 -.331 C -1.215 -.74 -.406 -.591 0 0 M 25.063 -51.51 C 25.063 -52.229 25.644 -52.807 26.362 -52.807 C 27.079 -52.807 27.661 -52.229 27.661 -51.51 C 27.661 -50.791 27.079 -50.21 26.362 -50.21 C 25.644 -50.21 25.063 -50.791 25.063 -51.51 M 52.721 0 C 53.126 -.591 53.938 -.74 54.526 -.331 C 55.117 .076 55.263 .883 54.856 1.472 C 54.451 2.063 53.644 2.209 53.054 1.803 C 52.462 1.396 52.314 .589 52.721 0 M 26.362 13.838 C 27.079 13.838 27.661 14.418 27.661 15.136 C 27.661 15.853 27.079 16.433 26.362 16.433 C 25.644 16.433 25.063 15.853 25.063 15.136 C 25.063 14.418 25.644 13.838 26.362 13.838 M 17.206 11.375 C 17.737 11.331 18.308 11.349 18.828 11.477 C 19.939 11.754 20.811 12.47 20.504 13.703 C 20.33 14.405 19.857 14.831 18.508 14.801 C 17.9 14.782 17.711 14.918 17.662 15.121 C 17.582 15.438 17.758 15.719 18.38 15.874 C 18.646 15.939 19.122 15.965 19.486 15.926 L 19.624 16.941 C 19.062 17.009 18.51 17.009 17.954 16.872 C 17.01 16.635 16.05 15.869 16.317 14.793 C 16.558 13.827 17.225 13.67 17.853 13.642 C 18.48 13.615 19.077 13.717 19.192 13.256 C 19.307 12.784 18.901 12.6 18.497 12.499 C 18.143 12.412 17.615 12.412 17.288 12.429 Z M 9.62 10.695 C 9.094 11.696 9.406 12.449 10.084 12.804 C 10.768 13.165 11.562 12.993 12.089 11.993 C 12.614 10.992 12.304 10.242 11.62 9.88 C 10.94 9.525 10.145 9.697 9.62 10.695 M 8.396 10.054 C 9.09 8.728 10.568 8.121 12.123 8.934 C 13.671 9.75 14.008 11.31 13.313 12.636 C 12.617 13.959 11.139 14.568 9.591 13.755 C 8.039 12.94 7.7 11.378 8.396 10.054 M -1.875 -30.851 C -1.896 -30.317 -1.983 -29.754 -2.175 -29.254 C -2.584 -28.183 -3.398 -27.407 -4.586 -27.86 C -5.261 -28.118 -5.626 -28.637 -5.435 -29.973 C -5.341 -30.578 -5.454 -30.778 -5.648 -30.851 C -5.954 -30.971 -6.255 -30.83 -6.482 -30.233 C -6.581 -29.973 -6.665 -29.504 -6.668 -29.142 L -7.693 -29.124 C -7.692 -29.692 -7.627 -30.239 -7.422 -30.775 C -7.074 -31.683 -6.197 -32.542 -5.162 -32.146 C -4.231 -31.792 -4.157 -31.111 -4.205 -30.484 C -4.252 -29.858 -4.426 -29.277 -3.981 -29.108 C -3.53 -28.936 -3.297 -29.316 -3.148 -29.708 C -3.019 -30.046 -2.953 -30.572 -2.933 -30.9 Z M 57.245 -20.127 C 57.014 -20.606 56.83 -21.146 56.766 -21.677 C 56.631 -22.813 56.991 -23.884 58.253 -24.035 C 58.968 -24.121 59.533 -23.83 59.986 -22.561 C 60.185 -21.979 60.38 -21.854 60.587 -21.88 C 60.909 -21.917 61.11 -22.183 61.035 -22.816 C 61.004 -23.092 60.858 -23.548 60.691 -23.871 L 61.593 -24.361 C 61.854 -23.858 62.051 -23.347 62.119 -22.774 C 62.236 -21.808 61.858 -20.638 60.761 -20.507 C 59.768 -20.388 59.387 -20.958 59.136 -21.531 C 58.888 -22.11 58.772 -22.704 58.3 -22.646 C 57.817 -22.589 57.791 -22.144 57.841 -21.729 C 57.884 -21.367 58.067 -20.875 58.203 -20.575 Z M 40.63 11.996 C 41.155 12.998 41.949 13.168 42.626 12.812 C 43.311 12.453 43.622 11.702 43.097 10.698 C 42.573 9.7 41.775 9.528 41.093 9.888 C 40.414 10.242 40.104 10.995 40.63 11.996 M 39.403 12.638 C 38.708 11.313 39.047 9.75 40.602 8.934 C 42.148 8.124 43.627 8.73 44.323 10.057 C 45.017 11.38 44.678 12.943 43.131 13.755 C 41.578 14.569 40.099 13.962 39.403 12.638 M 31.995 12.244 C 32.446 11.957 32.96 11.707 33.48 11.581 C 34.592 11.308 35.697 11.537 36 12.77 C 36.171 13.472 35.95 14.069 34.742 14.671 C 34.193 14.936 34.092 15.145 34.141 15.347 C 34.218 15.665 34.503 15.833 35.126 15.681 C 35.392 15.615 35.827 15.417 36.13 15.213 L 36.723 16.046 C 36.259 16.369 35.77 16.623 35.213 16.761 C 34.268 16.993 33.063 16.759 32.798 15.684 C 32.563 14.715 33.08 14.267 33.623 13.95 C 34.165 13.633 34.74 13.447 34.628 12.985 C 34.512 12.515 34.066 12.541 33.662 12.638 C 33.307 12.724 32.84 12.968 32.559 13.138 Z M .52 7.061 L 4.318 3.358 C 4.578 3.626 4.842 3.885 5.111 4.143 L 2.746 6.615 L 6.489 5.377 C 6.837 5.672 7.193 5.958 7.555 6.237 L 4.39 10.495 L 3.335 9.664 L 5.576 6.917 L 1.696 8.215 M -6.327 -5.776 L -4.242 -5.948 C -4.391 -6.324 -4.533 -6.693 -4.667 -7.071 L -6.333 -5.792 Z M -7.651 -5.975 L -3.304 -9.813 C -3.179 -9.369 -3.046 -8.932 -2.902 -8.499 L -3.845 -7.738 C -3.648 -7.167 -3.435 -6.605 -3.207 -6.05 L -1.998 -6.104 C -1.812 -5.672 -1.616 -5.237 -1.411 -4.812 L -7.15 -4.656 M -7.681 -13.387 C -7.165 -13.444 -7.101 -13.931 -7.139 -14.249 C -7.16 -14.434 -7.185 -14.646 -7.201 -14.822 L -8.474 -14.695 C -8.452 -14.484 -8.448 -14.291 -8.427 -14.098 C -8.367 -13.564 -8.102 -13.337 -7.681 -13.387 M -9.756 -15.995 L -4.401 -16.305 C -4.376 -15.896 -4.343 -15.489 -4.303 -15.083 L -6.295 -14.888 C -6.291 -14.843 -6.288 -14.76 -6.273 -14.689 C -6.208 -14.335 -5.775 -14.062 -5.312 -13.895 C -4.933 -13.754 -4.116 -13.533 -4.116 -13.533 C -4.049 -13.072 -3.979 -12.626 -3.863 -12.154 C -3.863 -12.154 -5.264 -12.639 -5.769 -12.931 C -6.09 -13.113 -6.269 -13.205 -6.468 -13.439 L -6.493 -13.434 C -6.509 -12.616 -6.992 -12.1 -7.755 -12.048 C -8.686 -11.98 -9.188 -12.821 -9.313 -13.845 L -9.543 -13.827 M -9.202 -24.596 L -7.888 -24.358 C -7.964 -23.936 -8.033 -23.509 -8.093 -23.084 L -4.154 -22.529 C -4.21 -22.133 -4.264 -21.708 -4.307 -21.31 L -8.26 -21.708 C -8.306 -21.268 -8.343 -20.828 -8.371 -20.393 L -9.692 -20.476 M -4.119 -37.589 L -.119 -36.414 L -.111 -36.424 L -2.661 -39.707 L -1.797 -40.816 L 1.376 -36.242 C 1.092 -35.851 .819 -35.452 .555 -35.049 L -4.819 -36.439 M 3.661 -46.291 L 7.001 -42.18 C 6.124 -41.471 5.285 -40.716 4.49 -39.913 L 3.682 -40.718 C 4.206 -41.247 4.748 -41.752 5.307 -42.242 L 2.578 -45.36 M 11.044 -50.916 L 13.311 -46.116 C 12.288 -45.637 11.293 -45.105 10.329 -44.52 L 9.737 -45.494 C 10.371 -45.879 11.019 -46.241 11.68 -46.583 L 9.766 -50.29 M 18.443 -53.445 L 19.621 -48.256 C 19.227 -48.167 18.812 -48.07 18.423 -47.966 L 17.043 -53.099 M 35.772 -52.028 L 36.336 -49.91 C 35.967 -50.024 35.571 -50.142 35.216 -50.241 L 35.708 -52.044 Z M 32.395 -53.815 L 32.18 -52.497 C 32.872 -52.38 33.563 -52.242 34.335 -52.062 L 34.118 -51.197 C 33.419 -51.355 32.816 -51.481 32.192 -51.588 L 32.025 -50.577 C 32.616 -50.473 33.205 -50.353 33.871 -50.199 L 33.648 -49.313 C 32.938 -49.48 32.303 -49.605 31.665 -49.712 L 31.478 -48.589 C 32.518 -48.414 33.549 -48.186 34.566 -47.901 L 34.958 -49.245 C 35.512 -49.092 36.061 -48.92 36.605 -48.735 L 36.875 -47.698 L 37.674 -49.493 L 36.629 -52.833 M 43.772 -49.848 L 41.218 -45.181 C 40.866 -45.379 40.492 -45.574 40.132 -45.757 L 42.502 -50.52 M 51.812 -43.829 L 50.874 -42.881 C 50.572 -43.186 50.261 -43.482 49.94 -43.774 L 47.252 -40.846 C 46.957 -41.116 46.642 -41.4 46.334 -41.661 L 48.903 -44.693 C 48.568 -44.98 48.228 -45.257 47.884 -45.53 L 48.711 -46.572 M 56.492 -38.126 L 52.065 -35.182 C 51.846 -35.515 51.604 -35.869 51.371 -36.195 L 55.672 -39.306 M 60.816 -29.053 L 59.549 -28.655 C 59.42 -29.064 59.279 -29.473 59.136 -29.879 L 55.391 -28.538 C 55.258 -28.913 55.11 -29.311 54.959 -29.687 L 58.642 -31.174 C 58.48 -31.583 58.308 -31.992 58.129 -32.389 L 59.352 -32.933 M 62.369 -15.21 L 58.278 -14.385 L 58.276 -14.372 L 62.062 -12.647 L 61.822 -11.258 L 56.877 -13.837 C 56.948 -14.32 57.001 -14.796 57.048 -15.278 L 62.45 -16.55 M 59.89 -4.703 L 54.951 -6.675 C 55.105 -7.05 55.258 -7.446 55.391 -7.822 L 60.393 -6.045 M 50.156 8.999 L 47.435 5.87 C 47.993 5.377 48.536 4.87 49.058 4.343 L 48.25 3.541 C 47.454 4.343 46.618 5.096 45.74 5.807 L 49.083 9.906 " fill="#ffffff"/>
<path transform="matrix(1,0,0,-1,102.3789,93.3428)" d="M 0 0 C -.405 -.414 -.968 -.669 -1.591 -.669 L -2.899 -.669 C -3.631 -.669 -4.281 -1.024 -4.687 -1.571 L -5.169 -1.571 C -5.573 -1.024 -6.225 -.669 -6.957 -.669 L -8.263 -.669 C -9.493 -.669 -10.488 .326 -10.488 1.555 L -10.488 10.487 " fill="#fc0019"/>
<path transform="matrix(1,0,0,-1,91.8906,82.856)" d="M 0 0 L 11.122 0 L 11.122 -8.932 C 11.122 -9.541 10.882 -10.085 10.488 -10.487 " fill="#ffffff"/>
<path transform="matrix(1,0,0,-1,102.4463,83.4263)" d="M 0 0 L -9.989 0 L -9.989 -8.333 C -9.989 -9.242 -9.247 -9.987 -8.331 -9.987 L -7.024 -9.987 C -6.227 -9.987 -5.522 -10.32 -5.013 -10.852 L -4.978 -10.852 C -4.466 -10.32 -3.762 -9.987 -2.966 -9.987 L -1.658 -9.987 C -.742 -9.987 0 -9.242 0 -8.333 Z M 1.147 -8.333 C 1.147 -9.88 -.11 -11.133 -1.658 -11.133 L -2.966 -11.133 C -3.653 -11.133 -4.242 -11.553 -4.494 -12.147 L -5.497 -12.147 C -5.748 -11.553 -6.336 -11.133 -7.024 -11.133 L -8.331 -11.133 C -9.88 -11.133 -11.136 -9.88 -11.136 -8.333 L -11.136 1.151 L 1.147 1.151 Z "/>
<path transform="matrix(1,0,0,-1,194.334,144.7578)" d="M 0 0 C 0 -.829 .38 -1.183 1.028 -1.183 C 1.566 -1.183 2.078 -.85 2.732 -.065 L 3.046 -.692 C 2.373 -1.9 1.028 -2.73 -.204 -2.73 C -1.727 -2.73 -2.734 -1.876 -2.734 .048 L -2.734 5.42 L -3.92 5.42 L -3.92 6.008 C -2.575 6.564 -1.053 8.201 -.652 9.454 L 0 9.454 L 0 6.654 L 2.929 6.654 L 2.6 5.42 L 0 5.42 Z M -12.591 -.224 C -12.591 -1.633 -12.208 -1.768 -11.426 -1.768 L -11.202 -1.768 L -11.202 -2.483 L -16.872 -2.483 L -16.872 -1.768 L -16.553 -1.768 C -15.409 -1.768 -15.322 -1.319 -15.322 -.132 L -15.322 9.656 C -15.322 10.303 -15.436 10.461 -16.04 10.663 L -16.689 10.887 L -16.689 11.403 L -13.127 12.5 L -12.591 12.5 L -12.591 5.2 C -11.335 6.072 -9.727 6.9 -8.561 6.9 C -6.92 6.9 -6.114 5.582 -6.114 2.938 L -6.114 -.022 C -6.114 -1.345 -5.961 -1.768 -5.107 -1.768 L -4.888 -1.768 L -4.888 -2.483 L -10.173 -2.483 L -10.173 -1.768 L -9.992 -1.768 C -9.053 -1.768 -8.85 -1.406 -8.85 -.132 L -8.85 3.25 C -8.85 4.457 -9.41 5.22 -10.304 5.22 C -10.912 5.22 -11.806 4.887 -12.591 4.37 Z M -17.449 -.334 C -18.479 -1.9 -20.05 -2.73 -22.019 -2.73 C -24.75 -2.73 -26.725 -.869 -26.725 1.706 C -26.725 4.64 -24.189 6.9 -20.924 6.9 C -18.996 6.9 -17.539 6.095 -17.539 4.997 C -17.539 4.327 -17.985 3.875 -18.685 3.875 C -20.248 3.875 -20.582 5.87 -21.882 5.87 C -23.003 5.87 -23.769 4.505 -23.769 2.49 C -23.769 .069 -22.622 -1.564 -20.967 -1.564 C -19.956 -1.564 -19.019 -1.052 -18.1 .025 Z M -31.155 3.068 C -31.178 4.794 -31.782 5.846 -32.749 5.846 C -33.666 5.846 -34.491 4.663 -34.338 3.068 Z M -28.27 .114 C -29.52 -1.651 -31.336 -2.73 -33.063 -2.73 C -35.504 -2.73 -37.16 -.85 -37.16 1.861 C -37.16 4.817 -35.162 6.9 -32.369 6.9 C -31.178 6.9 -30.236 6.52 -29.545 5.825 C -28.223 4.505 -28.848 3.25 -28.064 2.846 L -28.064 2.197 L -34.27 2.197 C -34.09 .337 -32.838 -1.072 -31.514 -1.072 C -30.688 -1.072 -29.881 -.604 -28.779 .542 Z M -40.139 -2.483 L -46.368 -2.483 L -46.368 -1.768 L -46.211 -1.768 C -45.291 -1.768 -44.957 -1.365 -44.957 -.202 L -44.957 3.45 C -44.957 4.457 -45.09 4.684 -45.761 4.951 L -46.368 5.2 L -46.368 5.758 L -42.695 7.146 L -42.222 7.146 L -42.222 4.64 L -42.178 4.64 C -41.351 6.252 -40.991 6.9 -40.229 6.9 C -40.074 6.9 -39.892 6.878 -39.782 6.834 L -38.014 6.183 C -38.281 5.241 -38.64 4.439 -39.082 3.811 C -39.782 4.08 -40.609 4.37 -40.904 4.37 C -41.351 4.37 -41.728 4.055 -42.222 3.362 L -42.222 -.268 C -42.222 -1.345 -41.886 -1.768 -40.72 -1.768 L -40.139 -1.768 Z M -50.441 0 C -50.441 -.829 -50.064 -1.183 -49.413 -1.183 C -48.877 -1.183 -48.362 -.85 -47.712 -.065 L -47.396 -.692 C -48.068 -1.9 -49.413 -2.73 -50.646 -2.73 C -52.166 -2.73 -53.181 -1.876 -53.181 .048 L -53.181 5.42 L -54.364 5.42 L -54.364 6.008 C -53.021 6.564 -51.493 8.201 -51.093 9.454 L -50.441 9.454 L -50.441 6.654 L -47.512 6.654 L -47.846 5.42 L -50.441 5.42 Z M -59.806 11.446 L -54 11.446 L -54 10.574 L -54.159 10.574 C -55.949 10.574 -56.22 9.791 -56.22 8.714 L -56.22 3.14 C -56.22 -1.857 -59.847 -2.795 -62.512 -2.795 C -66.545 -2.795 -69.098 -1.052 -69.098 2.376 L -69.098 9.05 C -69.098 10.173 -69.41 10.574 -70.666 10.574 L -71.048 10.574 L -71.048 11.446 L -64.036 11.446 L -64.036 10.574 L -64.413 10.574 C -65.359 10.574 -66.004 10.149 -66.004 9.05 L -66.004 2.376 C -66.004 -.356 -63.993 -1.297 -61.955 -1.297 C -59.019 -1.297 -57.56 .358 -57.56 2.824 L -57.56 8.267 C -57.56 9.856 -58.01 10.574 -59.4 10.574 L -59.806 10.574 Z M -79.756 -.061 C -79.756 -.889 -79.377 -1.245 -78.727 -1.245 C -78.19 -1.245 -77.672 -.907 -77.023 -.125 L -76.712 -.755 C -77.383 -1.961 -78.727 -2.79 -79.957 -2.79 C -81.48 -2.79 -82.489 -1.937 -82.489 -.016 L -82.489 5.363 L -83.676 5.363 L -83.676 5.946 C -82.335 6.505 -80.811 8.14 -80.405 9.394 L -79.756 9.394 L -79.756 6.594 L -76.826 6.594 L -77.163 5.363 L -79.756 5.363 Z M -85.869 10.648 C -85.869 9.752 -86.723 9.125 -87.64 9.125 C -88.671 9.125 -89.434 9.776 -89.434 10.648 C -89.434 11.454 -88.583 12.172 -87.64 12.172 C -86.609 12.172 -85.869 11.499 -85.869 10.648 M -84.815 -2.545 L -90.418 -2.545 L -90.418 -1.826 L -90.171 -1.826 C -89.249 -1.826 -88.917 -1.424 -88.917 -.26 L -88.917 4.038 C -88.917 4.623 -89.049 4.781 -89.68 5.004 L -90.418 5.274 L -90.418 5.811 L -86.587 7.086 L -86.185 7.086 L -86.185 -.418 C -86.185 -1.335 -85.804 -1.826 -84.815 -1.826 Z M -94.542 3.012 C -94.565 4.733 -95.172 5.789 -96.129 5.789 C -97.053 5.789 -97.881 4.602 -97.718 3.012 Z M -91.653 .053 C -92.905 -1.713 -94.722 -2.79 -96.452 -2.79 C -98.887 -2.79 -100.547 -.907 -100.547 1.8 C -100.547 4.759 -98.551 6.843 -95.756 6.843 C -94.565 6.843 -93.624 6.461 -92.929 5.766 C -91.609 4.445 -92.233 3.19 -91.451 2.784 L -91.451 2.138 L -97.656 2.138 C -97.479 .276 -96.224 -1.132 -94.903 -1.132 C -94.069 -1.132 -93.264 -.665 -92.169 .481 Z M -104.729 -.061 C -104.729 -.889 -104.353 -1.245 -103.702 -1.245 C -103.166 -1.245 -102.655 -.907 -102 -.125 L -101.688 -.755 C -102.359 -1.961 -103.702 -2.79 -104.938 -2.79 C -106.458 -2.79 -107.469 -1.937 -107.469 -.016 L -107.469 5.363 L -108.655 5.363 L -108.655 5.946 C -107.311 6.505 -105.787 8.14 -105.384 9.394 L -104.729 9.394 L -104.729 6.594 L -101.798 6.594 L -102.136 5.363 L -104.729 5.363 Z M -110.85 10.648 C -110.85 9.752 -111.699 9.125 -112.62 9.125 C -113.648 9.125 -114.41 9.776 -114.41 10.648 C -114.41 11.454 -113.56 12.172 -112.62 12.172 C -111.589 12.172 -110.85 11.499 -110.85 10.648 M -109.796 -2.545 L -115.399 -2.545 L -115.399 -1.826 L -115.149 -1.826 C -114.233 -1.826 -113.896 -1.424 -113.896 -.26 L -113.896 4.038 C -113.896 4.623 -114.025 4.781 -114.656 5.004 L -115.399 5.274 L -115.399 5.811 L -111.567 7.086 L -111.165 7.086 L -111.165 -.418 C -111.165 -1.335 -110.784 -1.826 -109.796 -1.826 Z M -123.863 .099 L -123.146 .099 C -122.765 -1.156 -121.779 -1.826 -120.818 -1.826 C -120.19 -1.826 -119.657 -1.355 -119.657 -.798 C -119.657 .748 -123.863 1.284 -123.863 3.998 C -123.863 5.7 -122.451 6.843 -120.352 6.843 C -119.498 6.843 -118.779 6.708 -117.839 6.37 L -117.796 3.975 L -118.516 3.975 C -118.917 5.206 -119.657 5.876 -120.619 5.876 C -121.201 5.876 -121.647 5.518 -121.647 5.027 C -121.647 3.19 -117.235 3.122 -117.235 .053 C -117.235 -1.603 -118.422 -2.769 -120.146 -2.769 C -121.696 -2.769 -122.209 -2.453 -122.523 -2.453 C -122.656 -2.453 -122.788 -2.545 -122.97 -2.745 L -123.619 -2.745 Z M -127.406 -2.545 L -133.628 -2.545 L -133.628 -1.826 L -133.473 -1.826 C -132.556 -1.826 -132.222 -1.424 -132.222 -.26 L -132.222 3.393 C -132.222 4.4 -132.356 4.623 -133.028 4.893 L -133.628 5.14 L -133.628 5.7 L -129.96 7.086 L -129.487 7.086 L -129.487 4.579 L -129.439 4.579 C -128.614 6.191 -128.257 6.843 -127.494 6.843 C -127.335 6.843 -127.157 6.818 -127.047 6.774 L -125.28 6.123 C -125.545 5.184 -125.904 4.378 -126.351 3.751 C -127.047 4.019 -127.875 4.309 -128.167 4.309 C -128.614 4.309 -128.996 3.998 -129.487 3.301 L -129.487 -.324 C -129.487 -1.401 -129.15 -1.826 -127.985 -1.826 L -127.406 -1.826 Z M -137.91 3.012 C -137.93 4.733 -138.537 5.789 -139.501 5.789 C -140.42 5.789 -141.248 4.602 -141.091 3.012 Z M -135.021 .053 C -136.277 -1.713 -138.088 -2.79 -139.812 -2.79 C -142.259 -2.79 -143.911 -.907 -143.911 1.8 C -143.911 4.759 -141.919 6.843 -139.12 6.843 C -137.93 6.843 -136.996 6.461 -136.3 5.766 C -134.973 4.445 -135.604 3.19 -134.819 2.784 L -134.819 2.138 L -141.025 2.138 C -140.845 .276 -139.592 -1.132 -138.271 -1.132 C -137.442 -1.132 -136.636 -.665 -135.537 .481 Z M -155.537 6.594 L -149.849 6.594 L -149.849 5.876 L -150.631 5.876 C -151.105 5.876 -151.301 5.453 -150.922 4.623 L -148.932 .163 L -147.186 4.108 C -146.669 5.274 -146.936 5.722 -148.504 5.876 L -148.504 6.594 L -144.049 6.594 L -144.049 5.876 C -145.214 5.766 -145.503 5.474 -145.93 4.535 L -149.129 -2.701 L -150.474 -2.701 L -153.811 4.487 C -154.234 5.407 -154.555 5.766 -155.537 5.876 Z M -156.836 10.648 C -156.836 9.752 -157.69 9.125 -158.605 9.125 C -159.639 9.125 -160.397 9.776 -160.397 10.648 C -160.397 11.454 -159.546 12.172 -158.605 12.172 C -157.581 12.172 -156.836 11.499 -156.836 10.648 M -155.785 -2.545 L -161.383 -2.545 L -161.383 -1.826 L -161.137 -1.826 C -160.218 -1.826 -159.884 -1.424 -159.884 -.26 L -159.884 4.038 C -159.884 4.623 -160.019 4.781 -160.646 5.004 L -161.383 5.274 L -161.383 5.811 L -157.554 7.086 L -157.147 7.086 L -157.147 -.418 C -157.147 -1.335 -156.772 -1.826 -155.785 -1.826 Z M -164.14 -.507 C -164.14 -1.603 -163.741 -1.826 -162.863 -1.826 L -162.863 -2.545 L -168.151 -2.545 L -168.151 -1.826 C -167.232 -1.761 -166.873 -1.132 -166.873 .705 L -166.873 2.653 C -166.873 4.445 -167.368 5.14 -168.261 5.14 C -168.957 5.14 -169.696 4.804 -170.638 4.153 L -170.638 -.395 C -170.638 -1.401 -170.21 -1.826 -169.317 -1.826 L -169.116 -1.826 L -169.116 -2.545 L -174.781 -2.545 L -174.781 -1.826 L -174.648 -1.826 C -173.706 -1.826 -173.372 -1.424 -173.372 -.26 L -173.372 4.108 C -173.372 4.602 -173.639 4.893 -174.425 5.115 L -174.892 5.25 L -174.892 5.789 L -171.064 7.086 L -170.638 7.086 L -170.638 5.096 C -169.005 6.169 -167.57 6.843 -166.495 6.843 C -164.857 6.843 -164.14 5.675 -164.14 2.99 Z M -180.469 11.389 L -174.667 11.389 L -174.667 10.515 L -174.826 10.515 C -176.614 10.515 -176.887 9.73 -176.887 8.653 L -176.887 3.076 C -176.887 -1.918 -180.513 -2.855 -183.179 -2.855 C -187.213 -2.855 -189.765 -1.112 -189.765 2.315 L -189.765 8.992 C -189.765 10.109 -190.077 10.515 -191.333 10.515 L -191.714 10.515 L -191.714 11.389 L -184.699 11.389 L -184.699 10.515 L -185.081 10.515 C -186.023 10.515 -186.674 10.089 -186.674 8.992 L -186.674 2.315 C -186.674 -.418 -184.655 -1.355 -182.62 -1.355 C -179.682 -1.355 -178.227 .301 -178.227 2.767 L -178.227 8.207 C -178.227 9.796 -178.678 10.515 -180.066 10.515 L -180.469 10.515 Z "/>
</g>
</g>
</g>
</svg>