<?xml version="1.0" encoding="utf-8"?>
<!DOCTYPE svg PUBLIC "-//W3C//DTD SVG 20010904//EN" "http://www.w3.org/TR/2001/REC-SVG-20010904/DTD/svg10.dtd">
<svg version="1.0" xmlns="http://www.w3.org/2000/svg" width="624pt" height="720pt" viewBox="-120 -120 700 800" style="" preserveAspectRatio="xMidYMid meet">
<g fill="#F67000FF" stroke="#F67000FF">
<path d="M 126.000 0.920 C 125.175 1.397 119.100 2.501 112.500 3.374 C 90.900 6.232 71.211 14.117 54.089 26.766 C 44.289 34.007 37.129 40.788 30.088 49.500 C 21.354 60.305 17.984 65.961 10.427 82.500 C 7.853 88.133 4.272 100.491 3.577 106.138 C 3.196 109.239 2.249 112.614 1.474 113.638 C -0.679 116.480 -0.701 427.419 1.451 431.568 C 2.249 433.106 3.208 436.870 3.582 439.932 C 3.956 442.994 5.103 447.654 6.131 450.287 C 7.159 452.920 8.000 455.721 8.000 456.513 C 8.000 459.274 17.813 478.565 23.409 486.803 C 37.947 508.208 56.235 523.080 81.500 534.042 C 86.847 536.362 99.467 539.984 108.000 541.648 C 116.996 543.402 125.700 543.500 272.000 543.500 C 418.300 543.500 427.004 543.402 436.000 541.648 C 444.533 539.984 457.153 536.362 462.500 534.042 C 487.765 523.080 506.053 508.208 520.591 486.803 C 526.187 478.565 536.000 459.274 536.000 456.513 C 536.000 455.721 536.841 452.920 537.869 450.287 C 538.897 447.654 540.044 442.994 540.418 439.932 C 540.792 436.870 541.751 433.106 542.549 431.568 C 544.701 427.419 544.679 116.480 542.526 113.638 C 541.751 112.614 540.804 109.239 540.423 106.138 C 539.728 100.491 536.147 88.133 533.573 82.500 C 526.016 65.961 522.646 60.305 513.912 49.500 C 497.004 28.581 473.078 13.200 446.500 6.165 C 425.382 0.574 429.539 0.713 272.500 0.370 C 191.859 0.194 126.834 0.438 126.000 0.920 M 290.500 31.970 C 313.681 33.574 332.426 37.768 360.000 47.519 C 367.242 50.080 391.893 62.455 399.500 67.349 C 423.726 82.933 443.154 100.159 459.930 120.925 C 467.912 130.806 478.028 145.199 480.365 150.000 C 480.767 150.825 482.172 153.300 483.488 155.500 C 484.804 157.700 487.297 162.425 489.028 166.000 C 499.192 186.989 503.704 199.848 508.090 220.330 C 509.130 225.187 510.205 229.523 510.479 229.967 C 511.495 231.610 513.999 262.694 513.979 273.411 C 513.954 287.115 511.685 311.165 509.535 320.510 C 506.381 334.222 503.844 343.574 501.936 348.519 C 500.871 351.280 500.000 354.080 500.000 354.743 C 500.000 355.405 499.046 358.096 497.881 360.723 C 492.916 371.915 492.066 373.794 489.389 379.500 C 482.352 394.500 469.429 414.342 457.466 428.517 C 451.984 435.013 436.478 450.824 430.997 455.507 C 417.080 467.399 405.781 475.295 388.500 485.206 C 375.722 492.534 354.016 501.384 338.000 505.795 C 322.479 510.070 317.583 511.063 302.457 513.006 C 282.242 515.601 261.758 515.601 241.543 513.006 C 226.417 511.063 221.521 510.070 206.000 505.795 C 189.984 501.384 168.278 492.534 155.500 485.206 C 138.219 475.295 126.920 467.399 113.003 455.507 C 107.522 450.824 92.016 435.013 86.534 428.517 C 74.571 414.342 61.648 394.500 54.611 379.500 C 51.934 373.794 51.084 371.915 46.119 360.723 C 44.954 358.096 44.000 355.405 44.000 354.743 C 44.000 354.080 43.129 351.280 42.064 348.519 C 40.156 343.574 37.619 334.222 34.465 320.510 C 32.315 311.165 30.046 287.115 30.021 273.411 C 30.001 262.694 32.505 231.610 33.521 229.967 C 33.795 229.523 34.870 225.187 35.910 220.330 C 40.296 199.848 44.808 186.989 54.972 166.000 C 56.703 162.425 59.196 157.700 60.512 155.500 C 61.828 153.300 63.233 150.825 63.635 150.000 C 65.972 145.199 76.088 130.806 84.070 120.925 C 100.846 100.159 120.274 82.933 144.500 67.349 C 152.107 62.455 176.758 50.080 184.000 47.519 C 223.593 33.518 252.300 29.327 290.500 31.970 "/></g>
<g fill="#F67000FF" stroke="#F67000FF">
<path d="M 255.500 76.036 C 232.663 77.549 210.036 83.724 185.000 95.279 C 157.251 108.085 124.721 136.769 106.496 164.500 C 90.716 188.510 78.764 221.055 75.970 247.619 C 74.749 259.228 74.756 287.248 75.984 297.923 C 77.476 310.902 81.630 328.050 86.061 339.519 C 87.127 342.280 88.000 344.877 88.000 345.290 C 88.000 347.305 104.006 378.259 105.948 380.000 C 106.255 380.275 107.845 382.525 109.482 385.000 C 121.131 402.608 144.753 425.837 162.500 437.133 C 174.306 444.648 174.920 444.999 184.500 449.694 C 188.350 451.581 192.282 453.547 193.237 454.063 C 197.260 456.235 220.591 463.955 223.215 463.982 C 224.158 463.992 226.969 464.692 229.460 465.538 C 232.839 466.685 234.499 466.803 235.995 466.003 C 237.984 464.938 238.000 464.007 238.000 346.625 L 238.000 228.321 235.453 227.161 C 233.667 226.347 221.782 225.996 195.703 225.988 C 155.610 225.975 152.102 225.615 144.330 220.708 C 135.783 215.313 129.000 203.291 129.000 193.538 C 129.000 191.256 129.967 186.526 131.148 183.028 C 132.862 177.951 134.529 175.439 139.404 170.583 C 150.376 159.655 139.270 160.500 272.000 160.500 C 404.730 160.500 393.624 159.655 404.596 170.583 C 414.321 180.270 417.165 191.395 413.006 203.484 C 409.758 212.923 401.743 221.100 392.584 224.319 C 390.666 224.993 373.743 225.610 347.832 225.951 C 324.914 226.253 305.890 226.774 305.556 227.109 C 304.732 227.936 304.757 464.797 305.582 466.132 C 305.942 466.715 307.644 466.950 309.368 466.654 C 318.666 465.059 337.436 459.698 341.927 457.355 C 343.342 456.617 345.049 456.010 345.719 456.006 C 346.922 456.000 348.689 455.193 360.500 449.258 C 369.479 444.746 370.152 444.357 381.500 437.133 C 399.247 425.837 422.869 402.608 434.518 385.000 C 436.155 382.525 437.745 380.275 438.052 380.000 C 439.994 378.259 456.000 347.305 456.000 345.290 C 456.000 344.877 456.873 342.280 457.939 339.519 C 465.678 319.487 468.991 299.517 468.975 273.000 C 468.960 248.638 467.535 237.728 461.730 217.500 C 457.444 202.567 452.777 191.516 443.785 175.000 C 429.289 148.378 401.766 120.230 374.000 103.632 C 361.762 96.317 356.943 94.007 338.000 86.381 C 327.173 82.022 302.730 77.091 286.500 75.991 C 271.342 74.964 271.684 74.964 255.500 76.036 "/></g>
<g fill="#F67000FF" stroke="#F67000FF">
<path d="M 365.459 574.367 C 360.321 576.759 356.250 580.764 353.256 586.370 C 351.928 588.855 351.576 592.385 351.546 603.500 C 351.508 617.213 351.567 617.602 354.440 622.500 C 359.444 631.030 366.287 634.850 376.730 634.944 C 389.660 635.060 398.376 628.373 401.348 616.057 C 404.485 603.060 402.505 588.108 396.653 580.616 C 390.130 572.265 376.037 569.441 365.459 574.367 M 384.548 586.030 C 388.648 588.564 391.000 594.932 391.000 603.500 C 391.000 616.386 386.205 623.000 376.864 623.000 C 371.499 623.000 365.383 619.225 364.262 615.222 C 363.275 611.697 363.275 595.303 364.262 591.778 C 366.145 585.051 377.677 581.783 384.548 586.030 "/></g>
<g fill="#F67000FF" stroke="#F67000FF">
<path d="M 437.571 573.571 C 436.218 574.925 436.002 578.979 436.015 602.821 C 436.024 618.045 436.361 630.995 436.765 631.600 C 437.169 632.205 438.569 633.264 439.875 633.952 C 441.903 635.021 442.633 634.918 444.875 633.246 C 447.483 631.300 447.502 631.191 447.776 616.075 C 448.020 602.693 448.247 600.902 449.669 601.182 C 451.225 601.488 456.248 608.125 465.521 622.129 C 470.383 629.470 475.488 635.000 477.403 635.000 C 478.089 635.000 479.630 633.958 480.826 632.686 C 482.949 630.425 483.000 629.731 483.000 602.841 C 483.000 577.439 482.859 575.182 481.171 573.655 C 479.151 571.827 475.320 571.511 473.000 572.982 C 471.779 573.756 471.492 576.726 471.456 588.960 C 471.430 597.837 470.992 604.408 470.386 605.014 C 469.021 606.379 466.006 603.279 460.644 595.000 C 446.690 573.452 442.024 569.118 437.571 573.571 "/></g>
<g fill="#F67000FF" stroke="#F67000FF">
<path d="M 302.200 574.200 C 301.324 575.076 301.000 582.895 301.000 603.127 L 301.000 630.855 303.635 632.927 C 307.090 635.646 308.428 635.542 310.927 632.365 C 312.685 630.131 313.000 628.324 313.000 620.488 C 313.000 609.168 313.382 608.737 323.838 608.260 C 330.287 607.966 332.116 607.471 335.388 605.136 C 343.782 599.147 346.152 588.781 340.944 580.835 C 336.811 574.530 332.071 573.000 316.673 573.000 C 307.683 573.000 303.013 573.387 302.200 574.200 M 330.119 586.895 C 332.131 588.524 332.320 589.192 331.462 591.645 C 330.140 595.430 323.692 597.639 317.660 596.373 C 313.741 595.551 313.482 595.278 313.185 591.680 C 312.730 586.146 314.158 585.000 321.512 585.000 C 326.173 585.000 328.378 585.486 330.119 586.895 "/></g>
<g fill="#F67000FF" stroke="#F67000FF">
<path d="M 141.107 573.371 C 140.300 574.343 140.046 583.141 140.234 603.592 L 140.500 632.442 142.937 633.656 C 145.300 634.834 146.106 634.654 150.000 632.073 C 151.131 631.324 151.623 628.302 152.000 619.790 L 152.500 608.500 156.754 608.192 C 160.428 607.927 161.391 608.304 163.824 610.968 C 165.373 612.664 168.156 617.637 170.008 622.019 C 171.860 626.401 174.661 631.218 176.233 632.723 C 178.939 635.316 179.232 635.380 181.795 633.949 C 185.630 631.806 185.843 627.280 182.444 620.154 C 180.961 617.044 178.657 612.201 177.326 609.391 C 175.994 606.582 173.576 603.010 171.952 601.454 C 170.329 599.899 169.000 598.295 169.000 597.891 C 169.000 597.486 172.375 593.216 176.500 588.401 C 184.293 579.305 185.357 576.538 182.171 573.655 C 180.280 571.943 176.267 571.479 174.477 572.765 C 173.915 573.169 169.249 578.338 164.108 584.250 C 155.449 594.208 152.046 596.872 151.969 593.750 C 151.505 574.759 151.515 574.847 149.559 573.418 C 147.090 571.614 142.586 571.590 141.107 573.371 "/></g>
<g fill="#F67000FF" stroke="#F67000FF">
<path d="M 195.607 574.582 C 195.273 575.452 195.000 588.412 195.000 603.382 C 195.000 623.218 195.325 630.925 196.200 631.800 C 197.690 633.290 229.599 633.483 233.435 632.025 C 235.508 631.237 236.000 630.384 236.000 627.581 C 236.000 622.042 233.543 621.000 220.477 621.000 C 213.195 621.000 208.989 620.589 208.200 619.800 C 207.540 619.140 207.000 616.488 207.000 613.907 C 207.000 608.279 207.492 608.000 217.391 608.000 C 225.978 608.000 228.333 606.709 228.333 602.000 C 228.333 597.236 226.001 596.000 217.009 596.000 C 208.673 596.000 207.000 595.145 207.000 590.882 C 207.000 585.183 207.360 585.000 218.542 585.000 C 228.736 585.000 233.740 584.006 235.214 581.687 C 236.529 579.619 236.066 577.066 234.000 575.000 C 232.149 573.149 230.667 573.000 214.107 573.000 C 198.713 573.000 196.129 573.221 195.607 574.582 "/></g>
<g fill="#F67000FF" stroke="#F67000FF">
<path d="M 95.440 574.307 C 91.619 576.138 89.539 578.043 86.940 582.093 L 83.500 587.454 83.500 602.477 C 83.500 616.577 83.648 617.746 85.909 621.500 C 89.809 627.975 93.034 630.869 98.722 632.997 C 105.377 635.487 109.468 635.494 118.962 633.028 C 128.675 630.506 132.161 626.431 128.608 621.750 C 126.937 619.548 120.848 619.437 115.000 621.500 C 109.346 623.495 106.689 623.392 101.994 620.997 C 96.124 618.002 95.500 616.194 95.500 602.168 L 95.500 589.836 98.766 586.918 C 101.424 584.543 102.912 584.008 106.766 584.044 C 109.370 584.068 113.300 584.736 115.500 585.529 C 117.700 586.321 120.428 586.977 121.561 586.985 C 123.740 587.001 128.000 583.633 128.000 581.895 C 128.000 577.008 119.827 573.007 108.500 572.348 C 101.516 571.941 99.858 572.190 95.440 574.307 "/></g>
<g fill="#F67000FF" stroke="#F67000FF">
<path d="M 493.518 574.624 C 492.472 575.671 492.002 577.525 492.197 579.835 C 492.550 584.009 494.143 584.742 503.215 584.900 C 507.779 584.980 509.138 585.390 509.965 586.934 C 510.584 588.092 511.000 597.325 511.000 609.934 C 511.000 629.667 511.127 631.127 513.000 633.000 C 515.690 635.690 517.615 635.518 520.575 632.325 L 523.054 629.649 522.959 608.339 C 522.907 596.618 523.146 586.572 523.491 586.014 C 523.836 585.456 527.051 585.000 530.636 585.000 C 536.571 585.000 537.427 584.727 540.210 581.944 L 543.266 578.887 540.446 575.944 L 537.626 573.000 516.384 573.000 C 498.113 573.000 494.916 573.227 493.518 574.624 "/></g>
<g fill="#F67000FF" stroke="#F67000FF">
<path d="M 3.554 575.944 L 0.734 578.887 3.790 581.944 C 6.573 584.727 7.429 585.000 13.364 585.000 C 16.949 585.000 20.165 585.457 20.510 586.016 C 20.856 586.575 21.094 596.549 21.040 608.181 L 20.942 629.330 23.658 632.165 C 26.876 635.523 28.313 635.687 31.000 633.000 C 32.873 631.127 33.000 629.667 33.000 609.934 C 33.000 597.325 33.416 588.092 34.035 586.934 C 34.862 585.390 36.221 584.980 40.785 584.900 C 49.857 584.742 51.450 584.009 51.803 579.835 C 52.362 573.218 51.591 573.000 27.616 573.000 L 6.374 573.000 3.554 575.944 "/></g>
<g fill="#F67000FF" stroke="#F67000FF">
<path d="M 244.580 574.912 C 242.142 577.606 242.873 582.138 246.000 583.712 C 247.375 584.404 251.061 584.977 254.191 584.985 C 257.587 584.994 260.187 585.494 260.639 586.224 C 261.055 586.898 261.272 596.753 261.122 608.124 L 260.848 628.799 263.733 632.027 C 265.969 634.529 267.111 635.099 268.810 634.560 C 272.915 633.257 273.353 630.683 273.102 609.310 C 272.956 596.887 273.262 588.380 273.896 587.194 C 274.734 585.629 276.352 585.176 282.517 584.781 C 286.691 584.513 290.608 583.792 291.220 583.180 C 291.832 582.568 292.333 580.638 292.333 578.892 C 292.333 573.327 290.953 573.000 267.464 573.000 C 247.906 573.000 246.179 573.144 244.580 574.912 "/></g>
<g fill="#F67000FF" stroke="#F67000FF">
<path d="M 413.557 574.223 C 412.243 576.099 412.000 580.587 412.000 603.031 C 412.000 630.465 412.038 630.744 416.178 633.862 C 417.549 634.894 418.420 634.834 420.928 633.537 L 424.000 631.949 424.000 603.174 C 424.000 582.128 423.678 574.078 422.800 573.200 C 420.742 571.142 415.292 571.744 413.557 574.223 "/></g>
<g fill="#F67000FF" stroke="#F67000FF">
<path d="M 62.655 573.829 C 61.199 575.437 61.000 578.979 61.000 603.256 L 61.000 630.855 63.635 632.927 C 66.991 635.567 67.558 635.532 70.590 632.501 L 73.089 630.002 72.795 601.963 C 72.475 571.569 72.570 572.049 66.905 572.015 C 65.478 572.007 63.565 572.823 62.655 573.829 "/></g>
</svg>
