<svg xmlns="http://www.w3.org/2000/svg" xmlns:xlink="http://www.w3.org/1999/xlink" version="1.1" id="layer" x="0px" y="0px" style="enable-background:new -153 -46 652 652;" xml:space="preserve" viewBox="-131.21 198.3 600.31 153.1">
<style type="text/css">
	.st0{fill:#D9272E;}
</style>
<g>
	<path class="st0" d="M406.3,252.4c-15.9,0-28.5,14.2-28.5,33.8s12.5,35.6,28.5,35.6c15.7,0,26.7-16.3,26.7-35.6   S422,252.4,406.3,252.4 M405.4,351.4c-34.2,0-63.1-29.4-63.1-64.3c0-35.3,29.5-64.5,64.2-64.5c34,0,62.6,29,62.6,64   c0,16.9-6.8,33.1-19.1,45.5C437.8,344.4,421.6,351.4,405.4,351.4"/>
	<path class="st0" d="M20.7,350.7c-11.8,0-17.2-11.4-17.2-19.5v-59.3c0-1.5,0.4-14.8-15.4-14.8c-13.3,0-17,4.3-17.2,15.2v61   c0,1.1-0.6,7.5-4.8,12.1c-2.8,3.1-6.8,4.6-11.9,4.6c-12.4,0-18.1-9.4-18.1-15.3v-63.5c0-4.4-2.2-14.3-16.2-14.3   c-13.2,0-16.4,7.4-16.4,14.3v10.7v55.1v0.4c-0.6,4.7-6.9,13.5-18.4,13.5c-10.1,0-16.3-8.6-16.3-16.6v-89.7c0-1.4-0.4-6.6,3.1-10.7   c2.8-3.3,7.1-4.9,12.7-4.9c0.1,0,0.4,0,0.7,0c2.1,0,8.3,0.5,12.9,6.5c4.2-4.1,13-11,28.1-11.3c19.6-0.4,29.3,6.3,35.6,12.8   c4.5-4.5,14.9-12.8,30.4-12.8c19.5,0,29.6,9.3,35.4,16.3c4.9,5.9,10.1,17.8,10.1,30.2v61.1C37.9,338.3,34.2,350.7,20.7,350.7"/>
	<path class="st0" d="M120.2,291.4c-1.9,0.4-4.4,0.8-7.6,1.4c-5.7,1-12.9,2.1-20.9,4.1c-5.6,1.3-12,7.4-12.3,14   c-0.1,2.8,0.9,5.5,2.8,7.6c3.1,3.2,8.2,4.9,14.8,4.9c0.4,0,0.8,0,1.2,0c16.6-0.5,20-9,21.3-15.3   C120.5,302.2,120.4,295.6,120.2,291.4 M90,350.7c-12.3,0-23.1-4.2-32.3-12.5l-0.1-0.1c-0.6-0.6-15-14.6-9.9-36.7l0-0.1   c4.3-16.7,20.9-26.7,52-31.6l0.6-0.1c9-1.9,16.9-3.6,19-8.5c1.9-5,1.6-8.6-5.7-11.9c-12.9-4.1-22.8-1.1-29.3,8.8   c-3.3,5-10,8.5-16.4,8.5c-6.7,0-11.7-3.8-13.3-10c-1.7-6.7-0.5-13,3.6-18.3c7.6-9.8,24.9-15.9,45.3-15.9   c29.4,0,48.4,12.5,48.4,31.8c0,16,1.2,75.7,1.3,78.4c0.1,1.1,0.4,8-3.8,12.7c-2.6,2.9-6.2,4.4-10.7,4.5c-0.3,0-0.5,0-0.8,0h0   c-9.8,0-14.5-4.2-16.6-7.4C115.8,345.3,103.9,350.7,90,350.7"/>
	<path class="st0" d="M179.7,350.6c-7.4,0-12.8-3.9-15.5-11.3c-2-5.4-2-11.2-2-13.3V223.7c0-2-0.8-14.6,4.4-20.4   c2.8-3.2,6.5-4.9,11.2-5h1.6c5.3,0,17.4-0.1,17.4,24.8v52.3l34.2-35.1c0,0,11.7-12.8,19.6-12.7c4.9,0.1,7.9,1.9,11,5.6   c2.4,2.7,3.6,5.9,3.1,9.2c-0.8,5.7-9.4,13.3-10.9,14.8l-20.3,20.6l30.5,43.9c0.7,0.9,5.6,7.5,4.6,14.7c-0.5,3.9-2.6,7.3-6.2,9.9   c-3,2.2-6.1,3.3-9.3,3.4c-9.4,0.1-16.6-12.3-17.2-12.9l-24.7-35l-14.3,14l-0.4,17.9C196.5,339.5,193,350.6,179.7,350.6"/>
	<path class="st0" d="M295.6,350.5c-0.6,0-6.1-0.2-10.2-4.3c-4.5-4.4-6.3-12.4-6.3-27.6v-72.9c-0.1-1.3-0.4-10.1,4.9-15.9   c2.9-3.2,7-4.8,11.9-4.8c7.6,0,12.3,4.9,14.8,8.7c2.1-2.2,5.2-4.8,9.1-6.8c4.2-2.1,8.3-3.2,12.1-3.2c4.9,0,11.7,1.9,16.2,10.8   l0.1,0.3c1.6,4.2,1.3,8.3-0.7,11.9c-2,3.5-6.6,8-17.4,10c-16.9,2.9-17.1,20.5-17.1,21.2c0,5.9,0.3,42.6,0.3,44.4   c0.1,1.4,0.7,15.9-6.5,23.5C303.9,348.9,300.1,350.5,295.6,350.5L295.6,350.5z"/>
</g>
</svg>