<svg xmlns="http://www.w3.org/2000/svg" xmlns:xlink="http://www.w3.org/1999/xlink" xmlns:intaglio="http://purgatorydesign.com/namespaces/intaglio" version="1.1" intaglio:grid="36,36,1,1,0.5,#9999bf,1,0,0,0" intaglio:guides="0.8,#f0f,0,0" viewBox="589.05 380.58 87.9 59.87"><defs><linearGradient id="608002076040" gradientUnits="userSpaceOnUse"><stop offset="0" stop-color="#f00"/><stop offset="1" stop-color="#800000"/></linearGradient><linearGradient id="608002075700" gradientUnits="userSpaceOnUse"><stop offset="0" stop-color="#0f0"/><stop offset="1" stop-color="#008000"/></linearGradient></defs><g><linearGradient id="608000359f40" xlink:href="#608002076040" x1="625.626" y1="411.132" x2="646.184" y2="427.853"/><path fill="url(#608000359f40)" stroke="#000" stroke-width="2.89543" d="M642.565,382.25 C647.281,381.745,652.188,382.003,656.463,384.059 C663.452,387.422,663.514,391.431,666.452,398.609 C668.272,403.056,665.526,424.106,662.253,427.201 C657.249,431.934,655.569,435.26,648.862,436.828 C643.203,438.152,637.968,439.005,631.924,437.769 C626.23,436.605,623.822,433.629,618.098,431.327 C613.495,429.476,610.311,428.537,605.575,427.056 C600.942,425.607,600.074,426.767,594.139,422.062 C588.203,417.357,591.316,412.145,591.316,412.145 C591.316,412.145,590.315,408.63,591.171,406.499 C592.298,403.693,593.577,401.838,596.021,400.057 C599.829,397.28,603.437,397.469,607.892,395.931 C611.608,394.647,614.239,394.175,617.809,392.528 C622.361,390.428,624.739,387.766,629.318,385.724 C634.022,383.626,637.443,382.798,642.565,382.25 Z"/><linearGradient id="60800035b070" xlink:href="#608002075700" x1="653.857" y1="396.799" x2="661.819" y2="418.804"/><path fill="url(#60800035b070)" stroke="#000" stroke-width="2.89543" d="M665.294,382.756 C665.294,382.756,669.121,391.686,669.42,396.003 C669.793,401.399,667.538,405.485,667.538,405.485 L674.487,402.083 L675.5,410.625 L667.393,412.869 C667.393,412.869,671.697,417.864,670.65,421.266 C667.755,430.676,652.047,439,652.047,439 C652.047,439,651.025,433.465,652.337,429.735 C653.595,426.155,655.377,422.641,655.377,422.641 C655.377,422.641,651.977,425.059,647.632,427.853 C643.971,430.206,639.235,429.879,639.235,429.879 C639.235,429.879,640.041,421.43,642.999,416.633 C645.422,412.703,649.731,410.552,649.731,410.552 C649.731,410.552,647.921,410.191,643.506,404.979 C639.09,399.767,639.814,392.89,639.814,392.89 C639.814,392.89,647.11,393.112,650.093,394.121 C654.593,395.642,657.838,399.477,657.838,399.477 C657.838,399.477,656.876,394.826,658.055,391.37 C659.5,387.137,665.294,382.756,665.294,382.756 Z"/><path stroke="#000" stroke-width="0.25335" d="M618.171,397.451 C619.401,396.799,618.605,400.563,617.953,400.129 C617.302,399.695,613.176,400.201,613.176,400.201 C613.176,400.201,616.94,398.102,618.171,397.451"/><path stroke="#000" stroke-width="0.25335" d="M631.555,391.265 C632.786,390.614,631.99,394.378,631.338,393.943 C630.687,393.509,626.561,394.016,626.561,394.016 C626.561,394.016,630.325,391.917,631.555,391.265"/><path stroke="#000" stroke-width="0.25335" d="M647.849,387.1 C649.079,386.448,647.474,389.35,646.822,388.916 C646.171,388.482,642.203,387.823,642.203,387.823 C642.203,387.823,646.618,387.751,647.849,387.1"/><path stroke="#000" stroke-width="0.25335" d="M623.744,418.877 C624.975,418.225,624.468,421.845,623.817,421.41 C623.165,420.976,618.46,419.745,618.46,419.745 C618.46,419.745,622.514,419.528,623.744,418.877"/><path stroke="#000" stroke-width="0.25335" d="M617.953,424.74 C619.184,424.089,617.881,427.129,617.23,426.694 C616.578,426.26,613.104,424.233,613.104,424.233 C613.104,424.233,616.723,425.392,617.953,424.74"/><path stroke="#000" stroke-width="0.25335" d="M637.859,411.349 C639.09,410.697,638.116,413.719,637.465,413.284 C636.813,412.85,633.372,412.434,633.372,412.434 C633.372,412.434,636.629,412,637.859,411.349"/><path stroke="#000" stroke-width="0.25335" d="M636.629,402.083 C637.859,401.432,636.991,404.472,636.339,404.038 C635.688,403.603,631.45,403.624,631.45,403.624 C631.45,403.624,635.398,402.735,636.629,402.083"/><path stroke="#000" stroke-width="0.25335" d="M635.833,420.831 C637.063,420.18,636.293,422.991,635.642,422.557 C634.991,422.122,631.634,421.772,631.634,421.772 C631.634,421.772,634.602,421.483,635.833,420.831"/><path stroke="#000" stroke-width="0.25335" d="M631.345,429.807 C632.575,429.156,631.003,432.151,630.351,431.717 C629.7,431.283,625.699,429.228,625.699,429.228 C625.699,429.228,630.114,430.458,631.345,429.807"/><path stroke="#000" stroke-width="0.25335" d="M623.382,403.965 C624.613,403.314,622.961,406.566,622.31,406.132 C621.658,405.698,617.953,404.979,617.953,404.979 C617.953,404.979,622.152,404.617,623.382,403.965"/><path stroke="#000" stroke-width="0.25335" d="M624.692,410.587 C625.923,409.936,625.126,413.7,624.475,413.266 C623.823,412.831,619.697,413.338,619.697,413.338 C619.697,413.338,623.462,411.239,624.692,410.587"/><path stroke="#000" stroke-width="0.25335" d="M600.074,411.421 C601.305,410.77,601.232,413.81,600.581,413.375 C599.929,412.941,597.541,412.869,595.948,412.217 C594.356,411.566,598.844,412.073,600.074,411.421"/><path stroke="#000" stroke-width="0.25335" d="M604.273,403.241 C605.503,402.59,604.924,405.847,604.273,405.413 C603.621,404.979,600.436,405.051,600.436,405.051 C600.436,405.051,603.042,403.893,604.273,403.241"/><path stroke="#000" stroke-width="0.25335" d="M609.34,407.078 C610.57,406.426,610.051,409.331,609.399,408.897 C608.748,408.462,604.996,408.091,604.996,408.091 C604.996,408.091,608.109,407.729,609.34,407.078"/><path stroke="#000" stroke-width="0.25335" d="M609.919,417.501 C611.149,416.85,609.629,419.601,608.978,419.166 C608.326,418.732,605.431,418.008,605.431,418.008 C605.431,418.008,608.688,418.153,609.919,417.501"/><path stroke="#000" stroke-width="0.25335" d="M604.996,420.469 C606.227,419.818,605.069,423.075,604.417,422.641 C603.766,422.207,600.87,420.035,600.87,420.035 C600.87,420.035,603.766,421.121,604.996,420.469"/><path stroke="#000" stroke-width="0.25335" d="M612.307,411.638 C613.538,410.987,612.999,413.721,612.347,413.286 C611.696,412.852,607.385,412.362,607.385,412.362 C607.385,412.362,611.077,412.29,612.307,411.638"/></g></svg>