<svg xmlns="http://www.w3.org/2000/svg" xmlns:xlink="http://www.w3.org/1999/xlink" xmlns:intaglio="http://purgatorydesign.com/namespaces/intaglio" version="1.1" intaglio:grid="36,36,1,1,0.5,#9999bf,1,0,0,0" intaglio:guides="0.8,#f0f,0,0" viewBox="92 48 630 286.5"><defs><linearGradient id="60c000c6d2c0" gradientUnits="userSpaceOnUse"><stop offset="0" stop-color="#ff0"/><stop offset="1" stop-color="#808000"/></linearGradient></defs><g><linearGradient id="60000014d520" xlink:href="#60c000c6d2c0" x1="304.5" y1="138" x2="306.5" y2="409"/><path fill="url(#60000014d520)" stroke="#000" stroke-width="20" d="M102,70.7774 C102,63.7206,107.882,58,115.137,58 L698.863,58 C706.118,58,712,63.7206,712,70.7774 L712,311.723 C712,318.779,706.118,324.5,698.863,324.5 L115.137,324.5 C107.882,324.5,102,318.779,102,311.723 Z"/><path fill="none" stroke="#000" stroke-width="3.5" d="M149,100.945 C149,95.7288,153.951,91.5,160.059,91.5 L651.441,91.5 C657.549,91.5,662.5,95.7288,662.5,100.945 L662.5,279.055 C662.5,284.271,657.549,288.5,651.441,288.5 L160.059,288.5 C153.951,288.5,149,284.271,149,279.055 Z"/><text font-family="Arial Black" font-weight="900" font-size="140" transform="matrix(1,0,0,1,191,237.5)" xml:space="preserve"><tspan>B F M</tspan></text></g></svg>