<svg xmlns="http://www.w3.org/2000/svg" xmlns:xlink="http://www.w3.org/1999/xlink" xmlns:intaglio="http://purgatorydesign.com/namespaces/intaglio" version="1.1" intaglio:grid="36,36,1,1,0.5,#9999bf,1,0,0,0" intaglio:guides="0.8,#f0f,0,0" viewBox="567.62 400.36 107.27 82.28"><defs><linearGradient id="608002462dc0" gradientUnits="userSpaceOnUse"><stop offset="0" stop-color="#808000"/><stop offset="1" stop-color="#ff0"/></linearGradient><linearGradient id="608002460380" gradientUnits="userSpaceOnUse"><stop offset="0" stop-color="#ff0"/><stop offset="1" stop-color="#808000"/></linearGradient><radialGradient id="608002261200" gradientUnits="userSpaceOnUse"><stop offset="0" stop-color="#ff0"/><stop offset="1" stop-color="#808000"/></radialGradient><radialGradient id="608002464e00" gradientUnits="userSpaceOnUse"><stop offset="0" stop-color="#ff0"/><stop offset="1" stop-color="#808000"/></radialGradient></defs><g><path stroke="#000" stroke-width="3.69258" d="M621.917,402.38 C624.506,402.247,628.543,402.208,638.236,402.208 C642.665,402.208,643.513,411.324,646.6,414.501 C649.022,416.993,648.423,415.588,651.677,416.809 C656.108,418.47,655.923,433.702,662.016,442.841 C663.39,444.902,665.761,445.728,666.724,448.011 C670.022,455.826,672.485,465.721,672.485,465.721 C672.485,465.721,639.033,471.937,624.292,471.971 C615.763,473.122,569.739,466.275,569.739,466.275 C569.739,466.275,571.426,455.719,574.723,447.904 C575.687,445.622,578.057,444.796,579.432,442.734 C585.524,433.595,585.34,418.363,589.771,416.702 C593.025,415.481,592.426,416.887,594.848,414.394 C597.935,411.218,597.257,403.194,601.679,402.947 C616.542,402.116,621.255,402.271,621.917,402.38 Z"/><linearGradient id="60800035a200" xlink:href="#608002462dc0" x1="599.741" y1="403.132" x2="639.845" y2="408.116"/><path fill="url(#60800035a200)" d="M636.574,403.409 C638.111,403.442,638.974,406.086,639.528,407.378 C639.845,408.116,637.137,407.785,636.943,407.932 C636.297,407.494,636.851,405.716,632.882,405.439 C631.679,405.356,616.173,404.516,605.372,405.624 C604.345,405.729,603.895,407.932,603.895,407.932 L599.741,407.655 C599.741,407.655,601.337,403.334,603.71,403.409 C615.527,403.778,623.835,403.132,636.574,403.409 Z M639.664,407.473 Z"/><linearGradient id="60800035dd20" xlink:href="#608002462dc0" x1="590.14" y1="427.133" x2="640.913" y2="426.303"/><path fill="url(#60800035dd20)" d="M640.636,418.456 C641.78,418.415,642.196,419.993,642.298,421.133 C642.718,425.855,643.361,426.64,643.867,431.195 C644.698,438.673,644.148,436.314,643.313,436.365 C637.22,436.734,592.099,437.294,591.525,437.38 C584.14,438.488,586.909,433.965,586.909,433.965 C586.909,433.965,587.518,425.967,590.509,422.241 C592.4,419.886,595.244,418.89,598.264,418.825 C615.527,418.456,627.62,418.917,640.636,418.456 Z"/><linearGradient id="60800035bcd0" xlink:href="#608002462dc0" x1="575.37" y1="449.773" x2="653.727" y2="460.92"/><path fill="url(#60800035bcd0)" d="M621.872,450.027 C632.31,449.773,641.32,450.674,651.141,450.489 C652.74,450.459,652.279,450.947,653.066,452.243 C653.722,453.322,653.727,454.93,653.066,456.006 C652.505,456.919,653.644,457.228,651.429,457.043 C650.303,456.949,637.024,456.113,624.375,456.212 C614.334,456.291,603.401,456.178,590.87,457.782 C586.134,458.388,578.553,460.766,577.584,460.828 C576.14,460.92,575.37,459.578,575.37,459.578 L575.466,458.149 C575.466,458.149,575.426,455.654,576.814,455.012 C582.205,452.52,579.895,453.351,583.746,452.981 C597.622,451.651,607.919,450.368,621.872,450.027 Z"/><linearGradient id="608000359e90" xlink:href="#608002460380" x1="646.238" y1="419.434" x2="655.598" y2="437.261"/><path fill="url(#608000359e90)" d="M647.006,420.117 C647.74,419.596,649.302,419.434,650.052,419.933 C650.942,420.525,651.04,422.079,651.437,423.072 C652.914,426.764,653.468,427.595,654.576,432.857 C654.81,433.971,655.598,435.8,654.668,436.457 C653.876,437.016,652.705,437.261,651.714,437.011 C650.774,436.774,650.144,434.888,650.144,434.888 L646.913,422.241 C646.913,422.241,646.238,420.662,647.006,420.117 Z"/><linearGradient id="60800035d640" xlink:href="#608002462dc0" x1="577.401" y1="440.704" x2="652.756" y2="449.935"/><path fill="url(#60800035d640)" d="M647.929,440.888 C649.105,440.882,649.672,441.196,650.144,442.273 C650.492,443.065,650.552,445.167,650.052,445.873 C649.706,446.363,650.619,445.686,647.283,446.242 C646.052,446.448,626.938,445.151,614.88,445.689 C602.845,446.225,592.817,446.427,582.663,448.643 C581.289,448.942,579.708,449.381,579.708,449.381 C579.708,449.381,577.585,449.935,577.493,448.735 C577.401,447.535,578.416,445.596,578.416,445.596 C578.416,445.596,579.785,444.728,581.093,444.488 C587.648,443.288,590.938,442.327,597.433,441.811 C611.372,440.704,630.297,440.981,647.929,440.888 Z M652.756,445.524 Z"/><linearGradient id="6080005406e0" xlink:href="#608002460380" x1="656.791" y1="443.78" x2="662.613" y2="448.48"/><path fill="url(#6080005406e0)" d="M659.099,444.119 C659.906,444.265,660.588,443.78,661.13,444.396 C661.592,444.923,662.613,447.111,662.607,447.812 C662.601,448.48,660.957,448.077,660.299,448.089 C659.329,448.106,657.714,447.812,657.714,447.812 L656.791,444.119 C656.791,444.119,658.275,443.97,659.099,444.119 Z"/><linearGradient id="60800035c880" xlink:href="#608002460380" x1="659.05" y1="451.011" x2="665.198" y2="459.159"/><path fill="url(#60800035c880)" d="M661.499,451.689 C662.307,451.95,662.847,451.011,663.389,452.111 C663.851,453.05,665.198,456.716,665.192,457.966 C665.186,459.159,664.28,457.668,663.622,457.689 C662.653,457.72,660.945,456.766,660.945,456.766 L659.05,451.617 C659.05,451.617,660.675,451.423,661.499,451.689 Z"/><linearGradient id="60800035f320" xlink:href="#608002462dc0" x1="596.602" y1="410.452" x2="644.368" y2="415.04"/><path fill="url(#60800035f320)" d="M617.65,410.794 C625.538,410.452,631.589,410.609,638.882,410.886 C640.253,410.938,641.409,410.679,642.482,411.532 C643.308,412.189,644.368,414.105,643.313,414.117 C635.189,414.209,633.586,414.236,627.527,414.117 C618.111,413.932,604.91,413.932,602.141,414.486 C599.371,415.04,596.602,414.948,596.602,414.948 C596.602,414.948,597.411,411.635,598.356,411.625 C606.295,411.532,610.584,411.1,617.65,410.794 Z"/><path stroke="#000" stroke-width="4.98498" d="M621.712,464.982 C623.281,465.444,631.866,465.259,632.143,471.352 C632.445,477.992,627.131,479.951,620.696,479.66 C613.91,479.353,609.899,477.212,610.265,470.429 C610.584,464.499,620.604,464.89,621.712,464.982 Z"/><path fill="#ff0" stroke="#000" stroke-width="0.184629" d="M628.174,471.906 C628.174,475.22,625.094,477.906,621.296,477.906 C617.498,477.906,614.419,475.22,614.419,471.906 C614.419,468.592,617.498,465.905,621.296,465.905 C625.094,465.905,628.174,468.592,628.174,471.906 Z"/><g><g><radialGradient id="60800035ec40" xlink:href="#608002261200" cx="569" cy="458.243" r="106.102"/><path fill="url(#60800035ec40)" stroke="#000" stroke-width="2.76943" d="M673.5,467.429 C673.5,472.502,650.107,476.614,621.25,476.614 C592.393,476.614,569,472.502,569,467.429 C569,462.356,592.393,458.243,621.25,458.243 C650.107,458.243,673.5,462.356,673.5,467.429 Z"/><path stroke="#000" stroke-width="0.184629" d="M661.13,466.69 C661.13,468.959,643.296,470.798,621.296,470.798 C599.297,470.798,581.462,468.959,581.462,466.69 C581.462,464.421,599.297,462.582,621.296,462.582 C643.296,462.582,661.13,464.421,661.13,466.69 Z"/></g><g><path stroke="#000" stroke-width="4.98498" d="M621.178,465.444 C622.687,465.905,630.942,465.721,631.208,471.814 C631.499,478.454,626.389,480.413,620.202,480.122 C613.677,479.815,609.82,477.674,610.172,470.89 C610.479,464.961,620.113,465.352,621.178,465.444 Z"/><radialGradient id="60800035ecf0" xlink:href="#608002464e00" cx="613.957" cy="466.09" r="18.2542"/><path fill="url(#60800035ecf0)" d="M627.712,472.09 C627.712,475.404,624.633,478.091,620.835,478.091 C617.036,478.091,613.957,475.404,613.957,472.09 C613.957,468.777,617.036,466.09,620.835,466.09 C624.633,466.09,627.712,468.777,627.712,472.09 Z"/></g></g></g></svg>