<svg xmlns="http://www.w3.org/2000/svg" xmlns:xlink="http://www.w3.org/1999/xlink" xmlns:intaglio="http://purgatorydesign.com/namespaces/intaglio" version="1.1" intaglio:grid="36,36,1,1,0.5,#9999bf,1,0,0,0" intaglio:guides="0.8,#f0f,0,0" viewBox="50.99 30.95 634.99 440.07"><defs><radialGradient id="60800044edf0" gradientUnits="userSpaceOnUse"><stop offset="0" stop-color="#0f0"/><stop offset="1" stop-color="#008000"/></radialGradient><linearGradient id="60800044e4c0" gradientUnits="userSpaceOnUse"><stop offset="0" stop-color="#0f0"/><stop offset="1" stop-color="#008000"/></linearGradient><linearGradient id="60800044fe70" gradientUnits="userSpaceOnUse"><stop offset="0" stop-color="#0f0"/><stop offset="1" stop-color="#008000"/></linearGradient><radialGradient id="60800044eac0" gradientUnits="userSpaceOnUse"><stop offset="0" stop-color="#0f0"/><stop offset="1" stop-color="#008000"/></radialGradient><radialGradient id="60800044ea30" gradientUnits="userSpaceOnUse"><stop offset="0" stop-color="#0f0"/><stop offset="1" stop-color="#008000"/></radialGradient><linearGradient id="60800044e070" gradientUnits="userSpaceOnUse"><stop offset="0" stop-color="#0f0"/><stop offset="1" stop-color="#008000"/></linearGradient><radialGradient id="60800044e520" gradientUnits="userSpaceOnUse"><stop offset="0" stop-color="#0f0"/><stop offset="1" stop-color="#008000"/></radialGradient><radialGradient id="60800044e700" gradientUnits="userSpaceOnUse"><stop offset="0" stop-color="#0f0"/><stop offset="1" stop-color="#008000"/></radialGradient><radialGradient id="608000441c50" gradientUnits="userSpaceOnUse"><stop offset="0" stop-color="#0f0"/><stop offset="1" stop-color="#008000"/></radialGradient><radialGradient id="608000440e40" gradientUnits="userSpaceOnUse"><stop offset="0" stop-color="#008000"/><stop offset="1" stop-color="#0f0"/></radialGradient><radialGradient id="60800044e790" gradientUnits="userSpaceOnUse"><stop offset="0" stop-color="#0f0"/><stop offset="1" stop-color="#008000"/></radialGradient><linearGradient id="60800064eb20" gradientUnits="userSpaceOnUse"><stop offset="0" stop-color="#0f0"/><stop offset="1" stop-color="#008000"/></linearGradient></defs><g><path fill="#0f0" stroke="#000" stroke-width="10" d="M220.5,307 C255.5,309.5,271.86,340.365,270,370.5 C267.975,403.318,237.995,433.296,208,432.5 C175.131,431.628,156.5,407.5,154.5,373 C152.5,338.5,185.5,304.5,220.5,307 Z"/><path fill="#0f0" stroke="#000" stroke-width="10" d="M223.5,307 C258.5,309.5,274.86,340.365,273,370.5 C270.975,403.318,240.995,433.296,211,432.5 C178.131,431.628,159.5,407.5,157.5,373 C155.5,338.5,188.5,304.5,223.5,307 Z"/><path stroke="#000" stroke-width="5.5" d="M649,35.5 C651.423,36.701,652.126,38.941,653,41.5 C665.09,76.8971,654.211,104.046,660,141 C661.584,151.109,663.404,157.748,666.5,167.5 C669.914,178.252,680.169,184.539,677.5,195.5 C674.671,207.12,661.142,219.659,653.5,216.5 C642.448,211.932,659.397,200.896,652,194.5 C645.745,189.091,634.672,191.98,626,196.5 C612.886,203.335,606.953,213.462,601,227 C598.865,231.855,597.04,236.072,599,241 C602.453,249.68,611.53,250.281,618.5,256.5 C622.853,260.384,626.333,262.601,629.5,267.5 C632.658,272.384,633.575,276.362,635,282 C635.695,284.751,634.279,287.244,636,289.5 C641.557,296.781,651.197,293.473,658.5,299 C665.202,304.071,669.21,308.767,672.5,316.5 C675.905,324.504,675.182,330.808,675.5,339.5 C675.864,349.447,677.101,356.542,674,366 C671.002,375.142,666.9,380.795,660,387.5 C654.327,393.013,649.266,395.372,642,398.5 C633.436,402.187,628.002,404.333,618,405 C608.696,405.62,598.538,397.099,591.5,401.5 C583.001,406.815,588.353,415.147,584.5,422.5 C580.584,429.974,576.682,434.262,571,440.5 C563.67,448.547,559.291,455.246,549.5,460 C537.355,465.897,527.829,467.724,514,466 C500.602,464.33,490.233,460.46,480,451 C469.836,441.604,466.602,420.063,462.5,418.5 C449.565,413.571,454.504,418.047,446,416.5 C441.682,415.715,439.747,411.765,434.5,411.5 C425.868,411.064,427.187,413.127,422.5,415.5 C415.782,418.902,413.704,422.138,403.5,422 C395.97,421.898,387.65,415.819,378,412.5 C374.467,411.285,371.849,408.681,368.5,409.5 C364.871,410.387,364.724,413.888,362,416 C358.214,418.936,355.561,421.031,351,422.5 C338.994,426.366,330.779,427.588,317.5,425.5 C305.04,423.541,294.822,420.112,284.5,411.5 C278.47,406.469,279.671,394.282,273,394 C265.154,393.668,266.4,402.978,262,408 C254.922,416.078,251.715,423.921,242,428.5 C231.788,433.313,224.047,433.192,212,431 C200.893,428.979,191.666,425.119,182.5,417 C174.362,409.791,174.954,391.89,167,392.5 C156.16,393.331,162.785,405.271,158.5,412 C153.933,419.171,150.601,424.325,143.5,429 C133.942,435.292,126.95,437.849,114.5,438.5 C103.072,439.097,82,431.5,82,431.5 L64,413.5 C64,413.5,58.2576,404.069,55.5,395.5 C52.9153,387.468,53.406,381.174,55.5,373 C57.1452,366.578,59.6329,362.487,64,357.5 C69.2128,351.547,74.0904,346.277,81.5,343.5 C87.8426,341.123,93.263,338.201,100,337.5 C106.014,336.874,109.075,337.709,115,336.5 C119.012,335.681,124.055,342.332,125.5,338.5 C127.702,332.66,118.391,330.448,116.5,324.5 C113.941,316.451,110.855,308.921,111.5,300.5 C112.084,292.874,116.331,288.961,119.5,282 C122.934,274.457,127.826,270.975,133,264.5 C137.406,258.986,139.327,254.199,145,250 C148.919,247.1,152.175,245.697,157,245 C163.906,244.002,169.049,243.382,176,244 C184.05,244.716,189.313,246.003,197,248.5 C202.047,250.14,209,256,209,256 C209,256,205.69,241.013,208,232.5 C210.629,222.812,215.458,217.153,222.5,210 C227.717,204.701,231.883,201.155,239,199 C247.075,196.555,253.225,197.352,261.5,199 C269.662,200.625,274.931,203.108,282,207.5 C288.772,211.708,298,221.5,298,221.5 C298,221.5,306.029,206.273,314.5,201.5 C321.269,197.686,327.248,197.984,335,198.5 C340.448,198.863,344.159,199.974,349,202.5 C354.789,205.521,357.89,208.875,362.5,213.5 C369.653,220.676,379.5,234.5,379.5,234.5 C379.5,234.5,376.349,217.335,377,207 C377.604,197.42,385.64,191.071,382.5,182 C380.277,175.58,372.006,176.32,368.5,170.5 C363.661,162.468,364.259,155.346,363.5,146 C362.725,136.462,360.904,124.369,364.5,115.5 C370.936,99.6267,379.359,93.4812,395,86.5 C404.246,82.3732,412.452,83.1298,422,86.5 C429.041,88.9855,438.185,94.3153,444,99 C451.685,105.191,450.873,108.675,458,115.5 C463.949,121.197,472.5,132,472.5,132 C472.5,132,484.826,119.687,493.5,114 C499.601,109.999,503.902,107.188,511,105.5 C523.223,102.592,532.533,101.173,544.5,105 C552.037,107.41,555.53,112.307,561.5,117.5 C569.603,124.548,574.33,130.004,581.5,138 C587.013,144.149,587.98,149.942,593,156.5 C598.313,163.44,600.79,171.001,609,174 C614.638,176.06,620.461,174.441,624.5,170 C630.121,163.82,627.451,156.336,628,148 C630.341,112.44,618.414,87.9258,625.5,53 C626.851,46.339,627.403,40.3562,633,36.5 C637.95,33.0892,643.614,32.8301,649,35.5 Z"/><radialGradient id="608000349480" xlink:href="#60800044edf0" cx="212.5" cy="302" r="426.786"/><path fill="url(#608000349480)" stroke="#000" stroke-width="10" d="M72,353 C83,343,111,326.5,145,355.5 C163.693,371.444,164,409,144,425 C126.595,438.924,104.5,440.5,85.5,434 C61.5591,425.81,58,408,58,393 C58,378,61,363,72,353 Z"/><linearGradient id="6080003493d0" xlink:href="#60800044e4c0" x1="179" y1="286" x2="637.5" y2="341"/><path fill="url(#6080003493d0)" stroke="#000" stroke-width="10" d="M222,307.5 C257,310,273.36,340.865,271.5,371 C269.475,403.818,239.495,433.796,209.5,433 C176.631,432.128,158,408,156,373.5 C154,339,187,305,222,307.5 Z"/><linearGradient id="608000349320" xlink:href="#60800044fe70" x1="554" y1="391.5" x2="637.5" y2="341"/><path fill="url(#608000349320)" stroke="#000" stroke-width="10" d="M398,322.5 C421.851,321.541,443,336,444,366.5 C445,397,427.5,420,398.5,420.5 C369.5,421,353.819,397.171,353.5,372.5 C353.175,347.402,372.92,323.508,398,322.5 Z"/><radialGradient id="608000349270" xlink:href="#60800044eac0" cx="432.5" cy="131.5" r="293.113"/><path fill="url(#608000349270)" stroke="#000" stroke-width="10" d="M518.5,99.5 C556.5,95.5,578.373,116.628,580.5,145.5 C582.994,179.349,564.221,208.837,534.5,209.5 C500.567,210.257,466.5,183.5,467.5,157.5 C468.5,131.5,480.5,103.5,518.5,99.5 Z"/><radialGradient id="6080003491c0" xlink:href="#60800044ea30" cx="430.5" cy="197" r="252.161"/><path fill="url(#6080003491c0)" stroke="#000" stroke-width="10" d="M408,87 C446.5,84.5,473.862,108.445,475,140 C476.144,171.729,440.924,196.79,411.5,196 C379.762,195.148,357.5,172,355.5,141 C353.5,110,369.5,89.5,408,87 Z"/><linearGradient id="608000349110" xlink:href="#60800044e070" x1="486.5" y1="373.5" x2="637.5" y2="341"/><path fill="url(#608000349110)" stroke="#000" stroke-width="10" d="M577.5,249 C613,250.5,630.173,267.037,631,293 C632.136,328.667,592.24,357.12,561.5,358 C525.83,359.021,502,350.5,500,310.5 C498,270.5,542,247.5,577.5,249 Z"/><linearGradient id="608000349060" xlink:href="#60800044fe70" x1="247" y1="242" x2="637.5" y2="341"/><path fill="url(#608000349060)" stroke="#000" stroke-width="10" d="M341.5,199.5 C369.5,200.5,383.101,217.037,385,240 C387.284,267.618,359.311,291.829,332,291.5 C304.289,291.167,277,276,281,239.5 C285,203,313.5,198.5,341.5,199.5 Z"/><radialGradient id="608000348fb0" xlink:href="#60800044e520" cx="256" cy="248.5" r="392.554"/><path fill="url(#608000348fb0)" stroke="#000" stroke-width="10" d="M160.5,347.5 C188,345.5,219.825,334.489,222,303.5 C223.882,276.678,204.732,249.891,178,247 C148.767,243.838,118,273.5,113.5,296.5 C109,319.5,133,349.5,160.5,347.5 Z"/><radialGradient id="608000348f00" xlink:href="#60800044e700" cx="414" cy="111" r="320.706"/><path fill="url(#608000348f00)" stroke="#000" stroke-width="10" d="M252.5,197 C283.5,195.5,298.852,210.452,301,233 C303.92,263.649,273.877,290.337,249.5,289 C218.758,287.314,209.5,255.5,207,241 C204.5,226.5,221.5,198.5,252.5,197 Z"/><linearGradient id="608000348e50" xlink:href="#60800044fe70" x1="320.5" y1="222.5" x2="637.5" y2="341"/><path fill="url(#608000348e50)" stroke="#000" stroke-width="10" d="M440,151.5 C472,150.5,492.275,176.991,492.5,206.5 C492.732,236.909,462.691,254.209,433,253.5 C402.598,252.774,377,235,374.5,205 C372,175,408,152.5,440,151.5 Z"/><linearGradient id="608000348da0" xlink:href="#60800044fe70" x1="415.5" y1="390.5" x2="637.5" y2="341"/><path fill="url(#608000348da0)" stroke="#000" stroke-width="10" d="M410.5,225 C441.263,225.205,471.214,251.284,469.5,282 C467.601,316.038,418.5,341,394.5,337 C370.5,333,358.5,307.5,351.5,280.5 C355,242,380.125,224.798,410.5,225 Z"/><radialGradient id="608000348cf0" xlink:href="#608000441c50" cx="463.5" cy="192" r="162.702"/><path fill="url(#608000348cf0)" stroke="#000" stroke-width="10" d="M528.5,193.5 C567.5,195,580.074,220.861,580,249.5 C579.916,281.983,547.216,304.256,523,305.5 C494,300.5,489,304.5,467,260 C463.5,222,489.5,192,528.5,193.5 Z"/><radialGradient id="608000348c40" xlink:href="#608000440e40" cx="542.5" cy="319.5" r="97.4025"/><path fill="url(#608000348c40)" stroke="#000" stroke-width="10" d="M633.5,294.5 C662.38,301.282,686.178,329.485,680,358.5 C673.51,388.981,634.754,409.757,604.5,398.5 C583,390.5,552.5,361,561,329.5 C568.712,300.921,605.496,287.923,633.5,294.5 Z"/><radialGradient id="608000348400" xlink:href="#60800044e790" cx="733" cy="327.5" r="798.35"/><path fill="url(#608000348400)" stroke="#000" stroke-width="10" d="M529,352.5 C575,353.5,588.016,381.008,586.5,412 C584.973,443.221,551.283,465.547,523,466 C491.745,466.501,465,449.5,464,419 C463,388.5,483,351.5,529,352.5 Z"/><linearGradient id="6080003482a0" xlink:href="#60800044fe70" x1="229.5" y1="392.5" x2="626.5" y2="348.5"/><path fill="url(#6080003482a0)" stroke="#000" stroke-width="10" d="M336.5,322 C304.5,317,270.687,343.458,268,372 C265.394,399.679,289.793,425.709,317.5,428 C349.058,430.609,386.109,396.339,378,363 C373.5,344.5,368.5,327,336.5,322 Z"/><linearGradient id="608000348090" xlink:href="#60800044fe70" x1="138" y1="389" x2="637.5" y2="341"/><path fill="url(#608000348090)" stroke="#000" stroke-width="10" d="M292.5,257 C321.5,257,346.306,275.172,348.5,301.5 C351.189,333.765,311.475,351.374,283.5,351 C251.126,350.567,235.5,334,234.5,305.5 C233.5,277,263.5,257,292.5,257 Z"/><linearGradient id="608000348350" xlink:href="#60800064eb20" x1="527" y1="125.5" x2="637.5" y2="341"/><path fill="url(#608000348350)" stroke="#000" stroke-width="10" d="M480,305 C504.525,305.988,525.261,328.466,524.5,353 C523.48,385.874,481,416,461,413.5 C441,411,420.5,398.5,419,361 C417.5,323.5,448.973,303.75,480,305 Z"/></g></svg>