<svg xmlns="http://www.w3.org/2000/svg" xmlns:xlink="http://www.w3.org/1999/xlink" xmlns:intaglio="http://purgatorydesign.com/namespaces/intaglio" version="1.1" intaglio:grid="36,36,1,1,0.5,#9999bf,1,0,0,0" intaglio:guides="0.8,#f0f,0,0" viewBox="505.03 309.8 214.37 161.59"><defs><linearGradient id="7ffb601ca510" gradientUnits="userSpaceOnUse"><stop offset="0" stop-color="#ff0"/><stop offset="1" stop-color="#808000"/></linearGradient><linearGradient id="7ffb608e9ce0" gradientUnits="userSpaceOnUse"><stop offset="0" stop-color="#f00"/><stop offset="1" stop-color="#800000"/></linearGradient><linearGradient id="7ffb6043ac70" gradientUnits="userSpaceOnUse"><stop offset="0" stop-color="#f00"/><stop offset="1" stop-color="#800000"/></linearGradient><linearGradient id="7ffb604fac30" gradientUnits="userSpaceOnUse"><stop offset="0" stop-color="#808000"/><stop offset="1" stop-color="#ff0"/></linearGradient><radialGradient id="7ffb60443440" gradientUnits="userSpaceOnUse"><stop offset="0" stop-color="#e1a683"/><stop offset="1" stop-color="#ff0080"/></radialGradient><radialGradient id="7ffb60444ff0" gradientUnits="userSpaceOnUse"><stop offset="0" stop-color="#e1a683"/><stop offset="1" stop-color="#ff0080"/></radialGradient></defs><g><path stroke="#000" stroke-width="1.26621" d="M552.077,376.986 C552.077,376.986,552.499,387.281,551.487,393.694 C550.631,399.112,543.402,399.98,538.323,402.048 C532.95,404.236,528.913,406.221,524.568,410.065 C521.045,413.181,519.164,415.437,517.143,419.684 C514.71,424.795,514.476,427.551,513.936,433.185 C513.686,435.798,514.37,441.309,513.599,443.818 C513.261,444.915,509.014,445.135,507.354,447.868 C506.419,449.408,505.667,452.34,505.667,452.34 C505.667,452.34,510.654,454.145,512.08,454.872 C514.545,456.128,520.687,453.944,520.687,453.944 C520.687,453.944,523.088,461.147,524.798,463.249 C526.955,465.902,528.82,467.629,532.033,468.797 C541.989,472.413,549.661,469.913,560.252,470.003 C574.275,470.121,582.428,468.136,596.429,467.35 C607.94,466.703,617.348,467.285,628.444,464.154 C633.31,462.781,635.163,461.972,638.991,458.669 C641.499,456.505,643.192,455.88,646.417,455.125 C650.383,454.197,652.071,454.366,657.556,452.256 C663.596,449.933,664.787,448.797,669.369,444.746 C671.101,443.215,671.901,443.311,673.251,441.033 C674.545,438.849,674.296,437.653,673.167,435.379 C671.101,431.223,664.581,432.305,662.112,428.376 C660.608,425.982,661.184,419.178,661.184,419.178 C661.184,419.178,667.258,419.752,670.044,418.25 C673.666,416.297,672.238,417.912,675.782,414.284 C676.551,413.497,677.217,410.486,677.217,410.486 C677.217,410.486,669.997,410.247,668.272,410.149 C664.942,409.959,661.184,410.149,661.184,410.149 C661.184,410.149,660.611,403.121,660.172,400.782 C659.556,397.504,659.065,387.878,659.075,385.678 C659.089,382.199,659.328,375.299,659.328,375.299"/><g><linearGradient id="7ffb601bdb60" xlink:href="#7ffb601ca510" x1="546.866" y1="440.217" x2="521.542" y2="402.471"/><path fill="none" stroke="url(#7ffb601bdb60)" stroke-width="3.97951" stroke-linecap="round" d="M522.507,444.678 C522.507,444.678,532.879,443.785,538.787,440.94 C544.059,438.402,546.372,435.303,549.64,430.449 C552.074,426.833,553.755,424.315,555.187,420.198 C557.209,414.384,557.335,410.697,558.443,404.642"/><linearGradient id="7ffb60443490" xlink:href="#7ffb601ca510" x1="546.866" y1="440.217" x2="521.542" y2="402.471"/><path fill="none" stroke="url(#7ffb60443490)" stroke-width="3.97951" stroke-linecap="round" d="M542.525,427.675 C542.525,427.675,541.632,420.113,542.887,416.098 C544.22,411.833,546.143,409.828,549.278,406.813"/><linearGradient id="7ffb6083c020" xlink:href="#7ffb601ca510" x1="546.866" y1="440.217" x2="521.542" y2="402.471"/><path fill="none" stroke="url(#7ffb6083c020)" stroke-width="3.97951" stroke-linecap="round" d="M527.738,422.248 C527.738,422.248,527.25,418.446,527.936,416.427 C528.664,414.282,528.631,413.273,530.345,411.757"/><linearGradient id="7ffb6087b140" xlink:href="#7ffb601ca510" x1="546.866" y1="440.217" x2="521.542" y2="402.471"/><path fill="none" stroke="url(#7ffb6087b140)" stroke-width="3.97951" stroke-linecap="round" d="M534.407,424.057 C534.407,424.057,533.812,419.206,534.648,416.629 C535.536,413.893,535.853,412.606,537.942,410.672"/></g><path fill="none" stroke="#ff0" stroke-width="3.25596" stroke-linecap="round" d="M654.998,394.196 C654.998,394.196,654.956,398.534,654.661,401.061 C654.396,403.335,654.567,405.74,654.795,408.019 C655.027,410.325,655.297,412.198,656.966,413.807 C657.584,414.402,658.302,414.332,659.137,414.531 C662.783,415.398,668.18,414.032,668.18,414.032"/><path fill="none" stroke="#ff0" stroke-width="3.25596" stroke-linecap="round" d="M615.763,391.318 C615.763,391.318,616.975,389.381,618.444,388.722 C620.507,387.795,622.234,385.605,622.234,385.605"/><path fill="#e1a683" d="M564.227,384.553 C564.227,384.553,565.116,393.403,564.706,398.452 C564.344,402.927,564.69,405.585,563.628,409.948 C562.526,414.478,561.64,419.874,559.834,424.172 C556.951,431.034,554.947,433.327,550.604,439.372 C547.293,443.981,542.606,444.717,541.922,449.743 C541.627,451.909,542.685,453.615,544.334,455.049 C549.386,459.444,554.975,459.203,561.671,459.237 C577.087,459.317,585.757,458.827,600.288,457.461 C617.701,455.824,629.615,456.103,646.595,451.914 C653.738,450.152,658.876,449.107,664.925,444.92 C667.506,443.133,670.568,441.787,670.472,438.649 C670.367,435.197,666.847,434.033,663.96,432.137 C658.401,428.485,653.602,427.115,649.73,421.766 C646.276,416.993,645.448,412.251,645.461,406.359 C645.474,400.839,648.402,398.236,649.489,392.824 C649.936,390.6,650.643,384.264,650.733,381.997 C650.91,377.569,650.279,378.139,649.535,373.77 C648.618,368.384,645.148,361.229,645.148,361.229 L645.148,361.229"/><g><path stroke="#000" stroke-width="0.361774" d="M574.135,420.422 C574.135,420.422,575.776,420.038,575.881,421.12 C575.986,422.203,570.777,427.618,570.748,432.4 C570.733,434.773,571.4,437.961,573.053,439.664 C576.027,442.729,576.955,442.188,583.224,443.955 C587.335,445.114,594.011,445.793,600.431,444.692 C607.682,443.449,613.526,441.06,619.221,437.443 C621.557,435.959,624.371,432.847,625.19,433.102 C626.866,433.622,627.041,433.902,626.272,434.705 C624.066,437.011,623.179,438.049,620.125,439.794 C615.3,442.553,611.874,443.569,606.577,445.251 C599.943,447.358,595.13,448.457,588.289,449.743 C582.591,450.815,578.78,451.118,573.087,451.572 C567.971,451.98,563.303,452.833,559.347,449.562 C557.694,448.196,557.432,446.278,557.538,444.136 C557.678,441.315,559.059,439.62,560.614,437.262 C565.184,430.328,574.135,420.422,574.135,420.422 Z"/><path fill="#fff" d="M566.522,439.384 C567.629,441.294,568.315,441.131,570.154,442.353 C572.147,443.677,572.902,443.692,575.148,444.518 C576.999,445.199,576.754,444.972,577.907,446.962 C579.307,449.381,576.266,449.624,573.472,449.651 C569.805,449.686,567.445,451.092,564.078,449.896 C562.472,449.325,561.376,448.837,560.69,447.276 C559.942,445.574,560.059,444.102,560.586,442.318 C561.181,440.301,561.249,439.524,563.17,438.476 C565.09,437.429,566.122,438.694,566.522,439.384 Z"/></g><g><g><path fill="#fff" stroke="#000" stroke-width="0.361774" d="M592.217,396.464 C597.543,396.092,598.344,397.458,598.186,402.795 C597.992,409.38,586.616,408.56,586.616,408.56 C586.616,408.56,571.053,409.669,567.074,408.403 C572.61,400.524,583.769,397.055,592.217,396.464 Z"/><path fill="#0080ff" d="M586.486,397.279 C590.386,396.417,589.692,398.823,591.325,403.904 C591.722,409.619,582.33,408.693,582.33,408.693 C582.33,408.693,569.771,409.8,566.8,408.534 C572.567,401.126,580.451,398.612,586.486,397.279 Z"/><path stroke="#000" stroke-width="0.361774" d="M580.074,399.206 C582.723,398.484,582.252,400.499,583.362,404.754 C583.631,409.54,576.589,409.063,576.589,409.063 C576.589,409.063,568.718,409.692,566.7,408.631 C571.641,403.004,575.974,400.322,580.074,399.206 Z"/><path fill="none" stroke="#000" stroke-width="0.361774" d="M592.257,396.383 C597.584,396.01,598.384,397.377,598.227,402.714 C598.033,409.299,586.656,408.479,586.656,408.479 C586.656,408.479,571.094,409.588,567.114,408.322 C572.651,400.443,583.809,396.974,592.257,396.383 Z"/></g><g><path fill="#fff" stroke="#000" stroke-width="0.314549" d="M633.289,395.453 C638.055,395.139,638.771,396.29,638.631,400.784 C638.457,406.329,628.277,405.639,628.277,405.639 C628.277,405.639,614.351,406.572,610.789,405.506 C615.744,398.871,625.729,395.95,633.289,395.453 Z"/><path fill="#0080ff" d="M628.16,396.139 C631.65,395.413,631.029,397.439,632.491,401.717 C632.846,406.53,624.441,405.75,624.441,405.75 C624.441,405.75,613.203,406.683,610.544,405.616 C615.705,399.378,622.76,397.262,628.16,396.139 Z"/><path stroke="#000" stroke-width="0.314549" d="M622.423,397.761 C624.794,397.153,624.372,398.85,625.365,402.433 C625.606,406.463,619.304,406.062,619.304,406.062 C619.304,406.062,612.261,406.591,610.455,405.698 C614.877,400.96,618.754,398.701,622.423,397.761 Z"/><path fill="none" stroke="#000" stroke-width="0.314549" d="M633.325,395.384 C638.092,395.071,638.807,396.221,638.667,400.716 C638.493,406.261,628.313,405.57,628.313,405.57 C628.313,405.57,614.387,406.504,610.826,405.437 C615.78,398.803,625.765,395.882,633.325,395.384 Z"/></g><path fill="none" stroke="#000" stroke-width="1.62798" stroke-linecap="round" d="M605.985,398.955 C605.985,398.955,605.1,402.929,605.985,405.027 C606.809,406.979,608.22,407.873,610.033,408.969 C611.579,409.903,612.836,410.138,614.614,410.46 C617.348,410.955,619.239,410.764,622.018,410.78 C625.135,410.797,626.785,411.142,629.901,411.046 C633.363,410.939,636.186,411.099,637.198,412.963 C638.73,415.786,637.959,417.533,635.12,419.035 C629.767,421.87,618.59,421.364,612.537,421.592 C603.949,421.916,595.551,421.93,592.083,422.018 C587.875,422.125,586.42,422.959,583.881,419.728 C582.123,417.491,583.561,413.922,586.544,413.176 C588.551,412.675,591.977,412.218,591.977,412.218"/></g><g><path stroke="#000" stroke-width="0.361774" d="M610.332,379.218 C610.332,379.218,611.339,383.123,608.602,385.135 C606.386,386.764,602.967,394.473,603.893,394.875 C604.818,395.278,604.303,393.442,608.561,393.547 C612.565,393.646,619.571,395.86,623.534,395.278 C626.941,394.777,629.349,393.184,630.336,389.884 C631.624,385.578,633.827,387.195,634.441,385.135 C635.257,382.398,635.34,377.952,635.34,377.952"/><path fill="none" stroke="#ff0" stroke-width="3.25596" stroke-linecap="round" d="M609.852,390.027 C609.852,390.027,611.805,386.033,613.221,385.268 C615.327,384.131,616.127,384.384,616.127,384.384"/><path fill="none" stroke="#ff0" stroke-width="3.25596" stroke-linecap="round" d="M615.76,391.321 C615.76,391.321,616.972,389.384,618.44,388.725 C620.504,387.798,622.23,385.609,622.23,385.609"/><path fill="none" stroke="#ff0" stroke-width="3.25596" stroke-linecap="round" d="M623.329,391.417 C625.392,390.49,626.993,389.059,627.793,385.732"/></g><g><linearGradient id="7ffb608c9340" xlink:href="#7ffb608e9ce0" x1="548.573" y1="363.964" x2="658.644" y2="401.782"/><path fill="url(#7ffb608c9340)" stroke="#000" stroke-width="1.98976" stroke-linecap="round" d="M620.547,365.088 C634.132,366.247,644.99,365.351,654.554,374.494 C657.51,377.321,657.2,380.811,658.013,384.819 C658.644,387.933,658.437,391.71,658.437,391.71 C658.437,391.71,655.769,391.244,653.831,390.412 C646.672,387.34,641.409,385.494,633.84,383.653 C626.567,381.884,622.423,380.523,614.969,379.836 C611.095,379.48,607.911,379.735,604.102,380.525 C595.403,382.332,589.804,385.513,581.467,388.583 C569.845,392.862,549.555,401.782,549.555,401.782 C549.555,401.782,549.389,398.993,549.237,397.86 C548.573,392.922,550.363,384.142,550.363,384.142 L564.352,376.906 C564.352,376.906,576.499,370.668,584.37,368.706 C597.6,365.409,607.364,363.964,620.547,365.088 Z"/><linearGradient id="7ffb608e2320" xlink:href="#7ffb6043ac70" x1="665.176" y1="332.767" x2="611.325" y2="365.657"/><path fill="url(#7ffb608e2320)" stroke="#000" stroke-width="3.61774" d="M604.428,312.011 C610.226,311.02,610.487,312.065,613.937,313.022 C617.603,314.039,620.449,315.737,621.963,319.227 C623.837,323.545,623.042,322.397,622.975,327.793 C622.933,331.149,620.479,332.716,631.068,331.907 C633.591,331.714,641.185,328.123,651.052,327.092 C661.788,325.969,665.954,326.09,668.972,329.951 C671.144,332.729,669.309,340.135,669.309,340.135 C669.309,340.135,681.971,336.467,686.575,336.223 C694.196,335.818,698.772,332.937,700.603,337.167 C705.676,348.89,711.674,356.048,717.599,364.752 C716.587,371.227,704.11,378.645,694.668,382.759 C691.375,384.194,691.361,381.851,688.328,379.927 C684.246,377.338,685.272,367.375,683.809,366.978 C679.088,365.696,659.934,370.08,657.978,372.643 C656.85,374.122,657.439,385.794,657.439,385.794 C657.439,385.794,636.531,377.102,625.605,375.206 C617.987,373.884,612.704,372.803,605.035,373.789 C594.183,375.186,587.603,379.19,577.383,383.097 C567.561,386.851,550.068,394.36,550.068,394.36 L550.068,374.801 C550.068,374.801,544.139,375.913,543.256,375.678 C538.074,374.295,535.924,374.184,535.23,368.866 C534.623,364.212,533.544,361.515,535.365,357.603 C537.132,353.806,547.421,350.442,550.742,347.891 C559.87,340.878,558.754,338.478,567.806,331.367 C570.758,329.048,574.753,327.739,577.99,325.837 C583.11,322.828,584.561,321.868,590.264,318.755 C595.428,315.937,600.893,312.615,604.428,312.011 Z"/><linearGradient id="7ffb6041dc60" xlink:href="#7ffb604fac30" x1="665.996" y1="383.319" x2="695.449" y2="390.512"/><path fill="url(#7ffb6041dc60)" stroke="#000" stroke-width="2.89419" d="M693.695,383.616 C694.664,387.424,689.641,391.989,682.476,393.811 C675.311,395.633,668.718,394.022,667.75,390.214 C666.781,386.406,671.804,381.842,678.969,380.02 C686.134,378.198,692.727,379.808,693.695,383.616 Z"/><path fill="none" stroke="#000" stroke-width="3.61774" stroke-linecap="round" d="M642.186,353.69 C642.186,353.69,646.695,348.376,650.118,346.08 C653.194,344.018,655.613,343.187,659.147,342.082 C661.85,341.237,663.383,341.356,666.192,341.001 C668.116,340.758,668.997,340.008,668.997,340.008"/><path fill="none" stroke="#000" stroke-width="3.61774" stroke-linecap="round" d="M657.808,372.787 C657.808,372.787,659.147,366.796,658.83,364.785 C658.571,363.144,657.218,360.658,657.218,360.658"/><path d="M609.453,330.84 C615.241,326.499,624.474,315.074,624.406,320.469 C624.364,323.826,621.24,331.838,631.829,331.028 C634.351,330.835,629.498,347.813,627.542,350.376 C626.413,351.855,615.965,373.288,615.965,373.288 C615.965,373.288,613.464,371.924,605.795,372.911 C594.943,374.307,588.363,378.312,578.143,382.218 C568.322,385.972,550.828,393.482,550.828,393.482 L550.828,373.923 C550.828,373.923,544.899,375.035,544.016,374.8 C538.835,373.417,536.684,373.306,535.99,367.988 C535.383,363.334,534.304,360.636,536.125,356.724 C537.893,352.928,548.182,349.564,551.503,347.013 C560.63,339.999,559.514,337.6,568.566,330.489 C571.518,328.169,575.995,329.992,577.858,333.252 C580.752,338.317,581.802,346.012,587.505,342.899 C592.669,340.081,606.584,332.992,609.453,330.84 Z"/><linearGradient id="7ffb608d1780" xlink:href="#7ffb604fac30" x1="549.157" y1="330.117" x2="573.034" y2="347.241"/><path fill="url(#7ffb608d1780)" stroke="#000" stroke-width="2.89419" d="M573.034,338.679 C573.034,343.407,567.689,347.241,561.096,347.241 C554.502,347.241,549.157,343.407,549.157,338.679 C549.157,333.95,554.502,330.117,561.096,330.117 C567.689,330.117,573.034,333.95,573.034,338.679 Z"/><path fill="none" stroke="#000" stroke-width="1.98976" stroke-linecap="round" d="M604.791,380.366 L605.851,374.588"/><path fill="none" stroke="#000" stroke-width="1.98976" stroke-linecap="round" d="M571.342,391.976 L574.284,385.959"/><path fill="none" stroke="#000" stroke-width="1.98976" stroke-linecap="round" d="M634.503,383.414 L634.211,377.504"/></g><radialGradient id="7ffb601b9ae0" xlink:href="#7ffb60443440" cx="636.555" cy="418.325" r="246.478"/><path fill="url(#7ffb601b9ae0)" d="M640.405,408.171 C644.188,409.552,645.032,412.798,644.788,417.178 C644.728,418.258,644.188,420.84,641.666,423.482 C640.019,425.208,634.073,425.519,632.119,423.302 C630.193,421.116,635.301,422.762,636.983,421.201 C639.667,418.708,643.066,414.837,638.604,411.173 C634.142,407.509,620.707,409.456,623.413,408.591 C629.237,406.73,633.675,405.714,640.405,408.171 Z"/><radialGradient id="7ffb60833480" xlink:href="#7ffb60444ff0" cx="574.209" cy="422.546" r="204.937"/><path fill="url(#7ffb60833480)" d="M577.179,418.378 C574.903,418.558,574.056,415.076,571.414,419.459 C568.743,423.892,564.186,428.698,562.648,424.323 C561.56,421.229,563.673,417.604,565.11,414.656 C566.894,410.994,568.892,411.233,569.973,411.053 C575.848,410.074,573.308,410.693,579.941,410.573 C586.573,410.452,579.46,418.198,577.179,418.378 Z"/></g></svg>