<svg xmlns="http://www.w3.org/2000/svg" xmlns:xlink="http://www.w3.org/1999/xlink" xmlns:intaglio="http://purgatorydesign.com/namespaces/intaglio" version="1.1" intaglio:grid="36,36,1,1,0.5,#9999bf,1,0,0,0" intaglio:guides="0.8,#f0f,0,0" viewBox="531.8 378.69 146.68 100.1"><defs><linearGradient id="60c000e696c0" gradientUnits="userSpaceOnUse"><stop offset="0" stop-color="#f00"/><stop offset="1" stop-color="#800000"/></linearGradient><linearGradient id="60c001860dc0" gradientUnits="userSpaceOnUse"><stop offset="0" stop-color="#f00"/><stop offset="1" stop-color="#800000"/></linearGradient><linearGradient id="60c00067ab80" gradientUnits="userSpaceOnUse"><stop offset="0" stop-color="#f00"/><stop offset="1" stop-color="#800000"/></linearGradient><linearGradient id="60c00067d880" gradientUnits="userSpaceOnUse"><stop offset="0" stop-color="#0f0"/><stop offset="1" stop-color="#008040"/></linearGradient></defs><g><linearGradient id="60c000156f20" xlink:href="#60c000e696c0" x1="620.134" y1="471.002" x2="512.441" y2="361.245"/><path fill="url(#60c000156f20)" stroke="#000" stroke-width="3.39956" d="M574.726,450.726 C574.726,450.726,560.706,450.491,556.392,449.269 C552.951,448.295,550.558,447.65,547.529,445.748 C545.591,444.532,544.679,443.213,543.037,441.62 C540.979,439.626,539.417,438.447,537.695,436.157 C536.695,434.828,536.169,433.824,535.509,432.297 C534.655,430.319,534.168,428.933,533.809,426.808 C533.369,424.203,533.511,422.408,533.567,419.766 C533.604,417.986,533.616,416.784,533.931,415.031 C534.282,413.074,534.697,411.797,535.388,409.932 C536.031,408.193,536.574,407.072,537.452,405.439 C538.391,403.693,538.983,402.478,540.244,400.947 C541.904,398.933,543.341,397.885,545.344,396.212 C546.916,394.899,547.803,393.673,549.715,392.934 C551.975,392.06,553.728,392.441,556.149,392.327 C559.106,392.188,561.086,392.174,564.041,392.327 C568.018,392.532,570.789,392.278,574.604,393.42 C577.257,394.213,578.785,395.396,581.16,396.819 C584.476,398.805,587.23,399.642,589.659,402.647 C592.445,406.092,592.608,409.421,594.152,413.574 C595.807,418.028,597.571,420.879,598.158,425.594 C598.615,429.264,598.795,431.992,597.43,435.428 C595.351,440.662,592.37,443.582,587.96,447.084 C584.786,449.604,578.246,451.819,578.246,451.819 L578.246,451.819"/><linearGradient id="60c000348140" xlink:href="#60c001860dc0" x1="615.156" y1="443.199" x2="512.441" y2="361.245"/><path fill="url(#60c000348140)" stroke="#000" stroke-width="3.39956" d="M634.946,397.062 C634.946,397.062,641.304,395.828,643.809,395.848 C645.542,395.862,646.762,396.582,648.423,396.091 C650.796,395.389,651.411,392.981,653.765,392.218 C656.58,391.304,658.781,391.52,661.657,392.218 C664.643,392.941,666.746,393.819,668.942,395.969 C671.605,398.578,672.201,401.287,673.677,404.711 C675.005,407.792,675.939,409.897,676.469,413.21 C676.991,416.472,676.761,418.728,676.469,422.018 C676.264,424.343,676.022,425.901,675.377,428.144 C674.671,430.597,674.057,432.22,672.827,434.457 C671.207,437.402,669.946,439.329,667.606,441.742 C665.572,443.841,663.941,445.007,661.414,446.477 C658.892,447.944,657.018,448.587,654.251,449.512 C650.868,450.644,648.564,451.383,645.023,451.819 C642.086,452.181,640.091,451.819,637.132,451.819 C632.852,451.819,630.943,454.844,625.719,451.819 C622.015,449.674,620.559,443.177,617.706,437.857 C615.492,433.73,612.701,431.334,612.121,426.687 C611.197,419.287,612.488,413.627,616.37,407.261 C619.569,402.015,628.997,396.819,628.997,396.819"/><linearGradient id="60c000151930" xlink:href="#60c00067ab80" x1="668.578" y1="408.353" x2="512.441" y2="361.245"/><path fill="url(#60c000151930)" stroke="#000" stroke-width="3.39956" d="M596.458,422.018 C596.458,422.018,590.11,420.984,586.745,422.387 C584.444,423.346,583.392,424.94,581.889,426.93 C579.729,429.789,578.814,432.087,577.518,435.428 C576.324,438.507,575.773,440.673,575.211,443.927 C574.706,446.852,574.456,448.855,574.604,451.819 C574.733,454.406,574.828,456.225,575.818,458.618 C576.794,460.976,578.057,462.255,579.703,464.203 C581.761,466.638,583.374,468.055,585.774,470.152 C588.119,472.202,589.521,473.906,592.33,475.252 C594.471,476.277,596.142,476.358,598.489,476.709 C600.577,477.021,601.996,477.038,604.107,477.073 C607.007,477.121,608.952,477.121,611.837,476.83 C614.518,476.56,616.365,476.474,618.92,475.616 C621.545,474.734,623.302,473.932,625.476,472.216 C628.263,470.017,629.698,468.007,631.668,465.053 C632.911,463.19,633.463,461.772,634.339,459.711 C635.567,456.822,636.529,454.9,637.132,451.819 C637.7,448.912,637.533,446.89,637.496,443.927 C637.464,441.371,637.638,439.606,637.01,437.128 C636.522,435.201,635.858,433.996,634.825,432.297 C633.794,430.602,632.79,429.69,631.547,428.144 C630.736,427.135,630.334,426.326,629.361,425.473 C627.71,424.024,626.392,423.276,624.383,422.387 C619.909,420.405,616.27,418.801,611.837,418.795 C606.943,418.788,600.465,422.018,600.465,422.018"/><linearGradient id="60c000346300" xlink:href="#60c00067d880" x1="567.077" y1="380.021" x2="634.542" y2="425.363"/><path fill="url(#60c000346300)" stroke="#000" stroke-width="3.64238" d="M567.077,402.404 C567.077,402.404,575.399,394.723,581.039,390.991 C586.1,387.643,589.645,385.491,595.366,383.464 C599.961,381.835,603.253,381.292,608.114,380.914 C612.43,380.578,615.545,380.021,619.648,381.4 C623.587,382.723,625.583,385.028,628.754,387.713 C630.597,389.273,632.183,390.159,633.246,392.327 C634.542,394.969,634.424,397.156,634.339,400.097 C634.286,401.954,634.489,403.473,633.368,404.954 C631.979,406.789,629.025,407.64,628.39,407.746 C626.12,408.125,629.546,408.076,630.575,409.568 C631.898,411.485,631.552,413.483,631.061,415.76 C630.623,417.791,629.922,419.211,628.39,420.616 C627.179,421.726,625.954,421.905,624.383,422.387 C621.596,423.242,619.61,423.296,616.734,423.773 C613.418,424.323,612.298,425.363,607.871,425.108 C604.516,424.915,600.451,423.946,596.458,422.018 C593.657,420.666,591.961,419.315,589.781,417.095 C587.355,414.625,586.903,411.998,584.439,409.568 C582.037,407.2,572.419,403.011,572.419,403.011 Z"/><path stroke="#000" stroke-width="3.39956" d="M614.427,399.854 C614.427,399.854,599.108,394.784,602.043,395.726 C604.799,396.611,617.94,400.929,620.498,402.283 C624.152,404.217,627.054,407.868,627.054,407.868 L627.054,407.868 L627.054,407.868"/><path d="M564.77,391.963 C564.77,391.963,561.334,392.728,559.549,393.784 C556.386,395.655,554.563,397.473,552.264,400.34 C550.989,401.931,549.596,406.773,551.536,405.318 C552.507,404.59,558.494,397.999,560.156,396.941 C563.283,394.949,567.805,392.327,567.805,392.327"/><path d="M551.657,437.614 C551.657,437.614,554.584,439.202,556.514,439.556 C559.067,440.025,560.853,439.164,563.434,439.435 C565.247,439.625,567.035,439.102,568.169,440.528 C568.566,441.027,568.396,441.632,568.169,442.228 C567.78,443.252,567.227,443.964,566.227,444.413 C564.316,445.271,563.105,444.9,560.642,444.413 C558.587,444.007,554.45,441.863,554.45,441.863"/><path d="M590.388,468.21 C590.388,468.21,591.401,468.076,589.781,465.66 C588.692,464.036,587.474,462.989,586.26,460.682 C585.374,459,584.637,456.671,584.074,454.854 C583.72,453.713,583.655,452.222,583.103,451.819 C582.138,451.115,581.938,451.628,581.282,451.819 C580.712,451.985,580.178,452.122,579.946,452.669 C579.33,454.124,580.279,455.304,580.796,456.797 C581.263,458.144,581.753,458.98,582.496,460.197 C583.379,461.642,586.26,464.689,586.26,464.689"/><path d="M659.593,438.464 C659.593,438.464,659.399,438.34,657.65,439.192 C655.924,440.034,655.142,440.983,653.401,441.378 C651.528,441.803,649.272,441.415,648.544,441.378 C646.762,441.286,647.299,441.167,646.602,441.378 C645.816,441.615,645.195,441.883,644.781,442.592 C644.181,443.616,643.687,444.921,644.538,445.748 C645.785,446.961,647.453,445.637,649.152,445.263 C651.078,444.838,652.367,444.45,654.129,443.563 C656.352,442.445,659.593,439.799,659.593,439.799"/><path d="M647.209,396.819 C647.209,396.819,652.585,394.458,650.73,396.576 C648.342,399.303,638.224,406.896,638.224,406.896"/></g></svg>