<svg xmlns="http://www.w3.org/2000/svg" xmlns:xlink="http://www.w3.org/1999/xlink" xmlns:intaglio="http://purgatorydesign.com/namespaces/intaglio" version="1.1" intaglio:grid="36,36,1,1,0.5,#9999bf,1,0,0,0" intaglio:guides="0.8,#f0f,0,0" viewBox="559.12 369.98 112.34 78.29"><defs><radialGradient id="608001a6d840" gradientUnits="userSpaceOnUse"><stop offset="0" stop-color="#80ff00"/><stop offset="1" stop-color="#008000"/></radialGradient></defs><g><radialGradient id="60800015f480" xlink:href="#608001a6d840" cx="610.928" cy="408.538" r="81.4539"/><path fill="url(#60800015f480)" stroke="#000" stroke-width="3.75887" d="M567.795,410.029 C567.795,410.029,560.48,404.478,561.029,400.269 C561.67,395.351,566.557,391.521,571.46,390.777 C581.985,389.18,591.006,395.1,591.006,395.1 C591.006,395.1,582.398,389.126,583.676,381.286 C584.689,375.074,592.534,372.428,598.806,371.889 C604.966,371.36,611.774,378.279,611.774,378.279 C611.774,378.279,622.111,368.318,630.85,373.393 C635.61,376.157,639.19,379.265,638.932,384.763 C638.591,392.011,628.971,398.295,628.971,398.295 C628.971,398.295,642.528,389.721,651.148,388.146 C657.499,386.986,664.271,389.771,668.627,394.536 C672.408,398.673,663.74,405.813,663.74,405.813 C663.74,405.813,669.995,409.643,668.815,413.425 C666.938,419.436,663.697,422.536,656.128,423.104 C648.611,423.667,635.643,420.66,635.643,420.66 C635.643,420.66,651.757,426.076,660.921,430.809 C663.171,431.972,666.212,432.375,666.747,434.85 C666.935,435.719,664.398,438.421,664.398,438.421 L659.323,439.079 C659.323,439.079,651.574,437.11,646.543,435.038 C640.876,432.704,631.602,427.238,631.602,427.238 C631.602,427.238,639.777,438.327,629.534,443.965 C620.287,449.056,609.236,441.616,609.236,441.616 C609.236,441.616,601.305,447.077,597.584,446.315 C594.02,445.585,588.397,444.865,586.025,441.898 C583.891,439.228,581.529,436.048,583.018,432.971 C588.751,421.13,592.04,421.976,592.04,421.976 C592.04,421.976,582.492,427.762,577.474,427.896 C568.911,428.125,565.677,426.2,562.345,422.446 C559.763,419.537,562.432,414.639,563.472,413.049 C565.446,410.029,567.795,410.029,567.795,410.029 Z"/><path d="M614.217,390.12 C615.627,395.194,614.969,406.283,614.969,406.283 C614.969,406.283,630.098,404.685,639.213,405.813 C640.099,405.922,640.47,408.303,639.589,408.444 C631.978,409.666,629.44,406.941,623.52,409.008 C619.341,410.467,616.492,409.614,614.593,413.613 C612.807,417.371,614.593,425.265,613.559,425.641 C612.013,426.203,613.841,426.111,609.988,426.205 C608.343,426.245,609.33,410.417,609.33,410.417 L581.421,409.948 C581.421,409.948,580.28,406.898,581.139,406.847 C593.637,406.095,609.8,406.471,609.8,406.471 C609.8,406.471,608.767,394.724,610.176,390.401 C610.705,388.781,613.761,388.477,614.217,390.12 Z"/></g></svg>