<svg xmlns="http://www.w3.org/2000/svg" xmlns:xlink="http://www.w3.org/1999/xlink" xmlns:intaglio="http://purgatorydesign.com/namespaces/intaglio" version="1.1" intaglio:grid="36,36,1,1,0.5,#9999bf,1,0,0,0" intaglio:guides="0.8,#f0f,0,0" viewBox="498.16 349.72 191.92 130.21"><defs><linearGradient id="60400127f6c0" gradientUnits="userSpaceOnUse"><stop offset="0" stop-color="#ff0"/><stop offset="1" stop-color="#a3a300"/></linearGradient></defs><g><linearGradient id="604000158730" xlink:href="#60400127f6c0" x1="583.29" y1="410.107" x2="597.156" y2="458.402"/><path fill="url(#604000158730)" stroke="#000" stroke-width="4.67379" d="M567.399,355.423 C587.178,349.984,603.023,351.516,622.706,357.293 C636.54,361.353,644.307,366.734,654.955,376.455 C659.675,380.765,660.758,384.985,665.393,389.386 C672.149,395.802,681.261,395.142,686.114,403.096 C688.899,407.661,687.394,411.792,686.893,417.117 C686.612,420.098,686.633,421.866,684.867,424.284 C682.268,427.844,678.973,428.681,675.675,431.606 C666.326,439.9,662.881,447.525,653.085,455.286 C642.677,463.533,635.026,469.261,622.394,473.358 C611.014,477.05,599.975,477.366,590.768,477.565 C578.807,477.824,574.678,476.419,565.841,473.826 C553.505,470.206,546.727,466.304,536.708,458.247 C526.012,449.644,517.83,438.128,512.405,431.45 C508.354,426.465,510.379,429.892,502.901,425.997 C500.982,424.998,499.022,411.222,502.122,404.654 C505.79,396.885,513.128,397.406,519.571,391.723 C525.928,386.116,528.333,380.487,534.839,375.053 C546.023,365.712,553.349,359.287,567.399,355.423 Z"/><path stroke="#000" stroke-width="0.155793" d="M678.012,408.081 C680.219,408.844,680.089,409.176,680.193,411.509 C680.311,414.119,680.501,415.329,678.947,417.429 C676.981,420.086,674.916,421.186,672.56,423.505 C669.291,426.721,667.073,428.833,663.991,432.229 C658.612,438.156,656.433,443.467,650.281,448.587 C642.077,455.416,635.573,459.048,625.51,462.609 C615.46,466.165,609.091,467.143,597.467,467.283 C586.807,467.41,577.682,466.946,566.776,462.92 C555.023,458.582,548.133,453.107,538.578,445.004 C533.434,440.643,529.829,437.328,525.803,431.918 C523.063,428.236,522.443,423.559,519.883,422.258 C515.791,420.18,512.56,421.791,512.56,421.791 L511.937,419.143 C511.937,419.143,513.579,417.925,515.676,417.896 C517.761,417.868,520.298,418.189,522.064,419.298 C526.337,421.985,526.32,425.664,529.853,429.269 C538.33,437.915,545.361,444.568,556.338,449.678 C568.782,455.471,578.447,456.882,592.17,457.156 C607.391,457.46,617.954,455.799,632.209,450.457 C642.549,446.582,649.195,442.541,657.292,435.033 C661.893,430.766,662.506,425.747,667.107,421.479 C669.068,419.66,672.515,420.331,673.183,417.74 C673.568,416.246,671.55,415.65,671.157,414.157 C670.637,412.18,671.078,411.16,672.248,409.483 C673.994,406.983,675.13,407.085,678.012,408.081 Z"/></g></svg>