<svg xmlns="http://www.w3.org/2000/svg" xmlns:xlink="http://www.w3.org/1999/xlink" xmlns:intaglio="http://purgatorydesign.com/namespaces/intaglio" version="1.1" intaglio:grid="36,36,1,1,0.5,#9999bf,1,0,0,0" intaglio:guides="0.8,#f0f,0,0" viewBox="538.46 365.22 161.1 108.81"><defs><linearGradient id="600000e7ce40" gradientUnits="userSpaceOnUse"><stop offset="0" stop-color="#0f0"/><stop offset="1" stop-color="#008000"/></linearGradient><radialGradient id="600001a6c080" gradientUnits="userSpaceOnUse"><stop offset="0" stop-color="#ff8000"/><stop offset="1" stop-color="#f00"/></radialGradient></defs><g><linearGradient id="600000342470" xlink:href="#600000e7ce40" x1="630.216" y1="393.261" x2="655.235" y2="449.903"/><path fill="url(#600000342470)" stroke="#000" stroke-width="5.07996" d="M590.465,372.687 C590.465,372.687,620.437,361.512,653.838,372.814 C667.617,377.477,674.045,379.868,685.206,389.197 C691.784,394.695,692.909,396.775,695.874,404.818 C697.707,409.788,697.075,415.788,695.874,420.947 C693.833,429.715,682.75,439.669,676.444,446.093 C664.937,457.814,638.182,467.598,627.168,468.953 C612.975,470.698,596.958,472.078,585.893,471.239 C578.116,470.649,553.508,463.492,553.508,463.492"/><path fill="none" stroke="#000" stroke-width="2.53998" d="M608.88,381.704 C608.88,381.704,619.722,380.374,628.184,381.069 C642.094,382.213,658.39,385.458,670.856,391.737 C687.746,400.246,691.967,409.969,691.302,414.343 C690.033,422.693,683.383,427.881,677.333,433.774 C667.472,443.377,656.872,447.244,643.932,451.935 C628.577,457.501,614.867,458.971,604.816,459.301 C588.492,459.836,578.146,456.507,578.146,456.507"/><path fill="none" stroke="#000" stroke-width="2.53998" d="M610.404,402.659 C610.404,402.659,627.321,402.446,637.455,402.913 C648.96,403.444,656.653,403.878,668.062,405.453 C675.991,406.548,681.612,406.476,689.016,409.517 C690.128,409.974,690.236,410.36,690.413,411.549 C690.614,412.888,690.365,413.142,689.397,414.089 C684.599,418.788,681.156,421.847,675.301,425.138 C665.145,430.846,657.515,431.948,646.218,434.79 C635.127,437.58,622.348,437.034,614.722,437.33 C603.294,437.773,596.434,435.425,596.434,435.425"/><path fill="#fff" stroke="#000" stroke-width="5.07996" d="M606.213,371.798 C620.107,374.646,623.485,404.691,611.674,429.329 C603.419,453.205,557.18,474.707,545.762,458.285 C530.903,435.171,554.524,397.579,566.081,387.673 C578.211,377.277,590.719,368.624,606.213,371.798 Z"/><radialGradient id="600000343700" xlink:href="#600001a6c080" cx="579.162" cy="417.264" r="16.0009"/><path fill="url(#600000343700)" stroke="#000" stroke-width="3.80997" d="M597.831,385.387 C612.567,390.121,604.943,418.026,595.926,431.615 C581.321,448.252,566.462,453.84,559.985,449.141 C548.809,442.918,552.238,428.44,556.429,418.28 C562.271,407.612,578.832,379.284,597.831,385.387 Z"/><path fill="none" stroke="#000" stroke-width="2.53998" d="M584.623,403.548 L588.052,396.817"/><path fill="none" stroke="#000" stroke-width="2.53998" d="M588.052,408.882 L594.148,404.437"/><path fill="none" stroke="#000" stroke-width="2.53998" d="M573.574,402.532 L578.146,408.374"/><path fill="none" stroke="#000" stroke-width="2.53998" d="M565.573,415.867 L573.193,415.867"/><path fill="none" stroke="#000" stroke-width="2.53998" d="M585.512,417.645 L594.783,417.772"/><path fill="none" stroke="#000" stroke-width="2.53998" d="M582.21,424.122 L584.75,431.488"/><path fill="none" stroke="#000" stroke-width="2.53998" d="M570.272,423.487 L563.795,427.805"/><path fill="none" stroke="#000" stroke-width="2.53998" d="M573.574,430.726 L569.891,436.695"/></g></svg>