<svg xmlns="http://www.w3.org/2000/svg" xmlns:xlink="http://www.w3.org/1999/xlink" xmlns:intaglio="http://purgatorydesign.com/namespaces/intaglio" version="1.1" intaglio:grid="36,36,1,1,0.5,#9999bf,1,0,0,0" intaglio:guides="0.8,#f0f,0,0" viewBox="92.47 45.25 611.03 444.89"><defs><linearGradient id="7ff9652202c0" gradientUnits="userSpaceOnUse"><stop offset="0" stop-color="#00f"/><stop offset="1" stop-color="#000080"/></linearGradient></defs><g><linearGradient id="7ff9650f0ec0" xlink:href="#7ff9652202c0" x1="341.5" y1="175.5" x2="382.5" y2="435.5"/><path fill="url(#7ff9650f0ec0)" stroke="#000" stroke-width="20" d="M368,56 C385.624,55.7712,397.444,54.4416,415,56 C433.025,57.6,444.806,60.7097,462.5,64.5 C476.107,67.4148,485.824,67.759,498.5,73.5 C512.003,79.6154,522.752,84.1512,535,92.5 C549.18,102.166,555.574,110.812,569,121.5 C582.076,131.91,590.609,139.322,601.5,152 C608.617,160.285,613.132,166.223,618,176 C622.229,184.492,624.356,190.657,626,200 C628.438,213.855,627.287,223.435,627,237.5 C626.716,251.404,627.718,260.971,624.5,274.5 C622.381,283.41,616.163,287.915,615,297 C613.845,306.022,618.105,311.913,618.5,321 C619.063,333.947,620.591,343.203,616.5,355.5 C611.887,369.366,604.797,377.157,595,388 C584.281,399.864,575.117,405.857,562,415 C546.831,425.573,536.483,435.621,520,444 C503.606,452.334,493.389,458.512,476,464.5 C457.682,470.808,444.128,472.429,425,475.5 C410.53,477.823,390.648,479.031,376,479.5 C355.386,480.16,341.588,480.533,323.5,479.5 C302.909,478.324,300.219,473.282,282.5,469.5 C267.306,466.257,257.231,463.233,243,457 C227.768,450.329,218.724,443.613,204.5,435 C192.309,427.619,183.727,423.278,172.5,414.5 C161.32,405.759,154.857,398.71,145,388.5 C137.711,380.95,132.469,376.132,126.5,367.5 C120.584,358.945,117.782,352.478,113.5,343 C109.127,333.32,105.406,326.949,103.5,316.5 C101.347,304.695,103.189,296.496,103.5,284.5 C103.688,277.274,101.948,272.013,104.5,265.25 C108.765,253.949,123.5,239,123.5,239 C123.5,239,115.073,218.779,117.5,203 C120.062,186.342,132.227,166.891,141,152.5 C148.602,140.029,156.035,133.149,167,123.5 C179.65,112.368,189.287,106.214,204,98 C219.027,89.6108,229.944,85.6966,246,79.5 C260.935,73.7358,271.046,70.178,286.5,66 C302.403,61.7005,313.137,58.9091,329.5,57 C343.845,55.3263,353.559,56.1875,368,56 Z"/><path stroke="#000" d="M615.5,266.5 L623,306 C623,306,620.845,310.647,616,314.5 C602.801,324.995,589.964,336.046,576,345.5 C557.114,358.287,543.055,365.044,521.5,372.5 C501.587,379.389,487.368,381.08,466.5,384 C445.835,386.892,431.366,389.017,410.5,389 C392.639,388.986,377.692,387.449,360,385 C342.37,382.56,334.23,379.458,317,375 C300.064,370.618,288.787,367.385,272.5,361 C254.15,353.807,241.916,348.616,225,338.5 C212.802,331.205,204.677,325.921,194.5,316 C183.784,305.554,170,284.5,170,284.5 C170,284.5,186.827,299.766,198,307.5 C211.883,317.11,221.901,322.442,237,330 C252.323,337.67,262.826,342.341,279,348 C303.044,356.412,319.458,361.332,344.5,366 C368.398,370.455,385.862,372.277,409,372.5 C433.309,372.735,447.74,371.669,470.5,367.5 C487.778,364.335,498.929,360.325,515.5,354.5 C533.897,348.034,546.557,344.153,563.5,334.5 C576.305,327.204,586.017,317.341,596,306.5 C604.388,297.392,615.5,266.5,615.5,266.5 Z"/><path fill="#0f0" stroke="#000" stroke-width="10" d="M674.5,282 C684.464,282.181,698.5,284.5,698.5,284.5 C698.5,284.5,684.134,325.045,678.5,326 C662.106,328.78,661.5,319,661.5,319 C661.5,319,639.705,318.467,630.5,318.5 C616.781,318.55,606,317,606,317 L614.5,288.5 C614.5,288.5,632.193,284.162,646,282.5 C654.692,281.453,665.747,281.841,674.5,282 Z"/></g></svg>