<svg xmlns="http://www.w3.org/2000/svg" xmlns:xlink="http://www.w3.org/1999/xlink" xmlns:intaglio="http://purgatorydesign.com/namespaces/intaglio" version="1.1" intaglio:grid="36,36,1,1,0.5,#9999bf,1,0,0,0" intaglio:guides="0.8,#f0f,0,0" viewBox="533.02 397.03 158.46 103"><defs><linearGradient id="608002079b00" gradientUnits="userSpaceOnUse"><stop offset="0" stop-color="#ff8000"/><stop offset="1" stop-color="#bc5e00"/></linearGradient></defs><g><linearGradient id="608000545c20" xlink:href="#608002079b00" x1="608.11" y1="430.749" x2="626.788" y2="487.649"/><path fill="url(#608000545c20)" stroke="#000" stroke-width="4.94778" d="M608.605,399.578 C641.384,398.218,688.66,415.188,689.006,447.572 C689.357,480.415,645.341,496.957,612.192,497.544 C577.31,498.163,535.873,479.114,535.501,449.056 C535.13,418.998,574.527,400.993,608.605,399.578 Z"/><path stroke="#000" stroke-width="0.247389" d="M665.999,467.61 C665.999,467.61,633.096,486.783,610.213,485.546 C587.329,484.309,561.106,469.713,561.106,469.713 C572.785,472.918,597.688,480.243,610.708,479.98 C630.157,479.587,665.999,467.61,665.999,467.61 Z M572.777,472.429 Z"/><path stroke="#000" stroke-width="0.247389" d="M671.689,437.553 C672.281,437.819,673.367,437.282,673.916,436.934 C675.387,436,673.298,434.665,675.029,434.46 C676.209,434.321,675.615,436.151,675.895,437.305 C677.389,443.467,675.147,451.425,674.039,452.272 C669.002,456.123,672.83,452.354,671.937,451.283 C670.113,449.095,672.679,447.943,671.689,445.345 C670.675,442.684,660.557,450.169,658.33,448.067 C656.104,445.964,667.999,447.166,668.473,441.758 C668.95,436.309,659.196,430.502,659.196,430.502 C659.724,429.909,660.928,427.286,660.928,427.286 C660.928,427.286,666.741,435.326,671.689,437.553 Z"/></g></svg>