<?xml version="1.0" encoding="UTF-8"?>
<svg width="763px" height="96px" viewBox="0 0 763 96" version="1.1" xmlns="http://www.w3.org/2000/svg" xmlns:xlink="http://www.w3.org/1999/xlink">
    <!-- Generator: Sketch 55.2 (78181) - https://sketchapp.com -->
    <title>Untitled</title>
    <desc>Created with Sketch.</desc>
    <g id="Page-1" stroke="none" stroke-width="1" fill="none" fill-rule="evenodd">
        <g id="Untitled" transform="translate(1.000000, 1.000000)">
            <polygon id="Path" fill="#FFFFFF" fill-rule="nonzero" points="4 19.7751823 6.34877652 71.1063086 7.09601675 94 20.3344733 91.7413034 50.9747824 86.9162774 92.9322468 80.7563607 94 13"></polygon>
            <polygon id="Path" stroke="#000000" stroke-width="0.865393172" points="4 19.7751823 6.34877652 71.1063086 7.09601675 94 20.3344733 91.7413034 50.9747824 86.9162774 92.9322468 80.7563607 94 13"></polygon>
            <path d="M587.774222,9.88493062 L621.806777,7 L621.877204,20.3639238 L620.809059,20.3124234 L614.60154,20.3124234 L608.947506,20.6449177 L601.187881,21.9757986 L597.751398,25.1932236 L596.199293,30.0740239 L595.755963,34.0675702 L597.751398,40.7237819 L602.628928,45.7157147 L609.511826,49 L586,48.7108745 L587.774222,9.88493062 Z M621.916029,27.6245886 L622,43.5770894 L620.809059,43.164182 L616.485917,41.1674088 L612.273833,38.3936108 L609.72401,34.0675702 L610.721728,29.6303969 L614.047152,27.7447564 L620.809059,27.5224911 L621.916029,27.6245886 Z" id="Shape" fill="#C31F04"></path>
            <path d="M587.774222,9.88493062 L621.806777,7 L621.877204,20.3639238 L620.809059,20.3124234 L614.60154,20.3124234 L608.947506,20.6449177 L601.187881,21.9757986 L597.751398,25.1932236 L596.199293,30.0740239 L595.755963,34.0675702 L597.751398,40.7237819 L602.628928,45.7157147 L609.511826,49 L586,48.7108745 L587.774222,9.88493062 Z M621.916029,27.6245886 L622,43.5770894 L620.809059,43.164182 L616.485917,41.1674088 L612.273833,38.3936108 L609.72401,34.0675702 L610.721728,29.6303969 L614.047152,27.7447564 L620.809059,27.5224911 L621.916029,27.6245886 Z" id="Shape" stroke="#C31F04" stroke-width="0.5"></path>
            <path d="M663,4 L660.219645,50.736054 L633.4312,50.4471392 L629.479085,47.7269793 L618.895654,44.004703 L618.813299,28.1352865 L626.730956,28.8757442 L630.79765,31.3297027 L634.424823,36.0150283 L636.403119,40.2533536 L652.778211,41.4807871 L651.679855,37.687645 L649.371247,33.003228 L644.86503,28.8757442 L639.699979,25.1943521 L632.88605,22.6286435 L625.192182,21.1786184 L618.775703,20.863356 L618.707671,7.80495313 L663,4 Z M619.13287,55.2178672 L619.083636,71.5751681 L617.279001,70.9291982 L613.322411,68.029148 L609.915446,65.5751895 L605.848752,61.5594557 L601.562744,61.5594557 L594.968128,61.113364 L588.374407,61.3359556 L591.011538,66.1330312 L593.869771,70.3713565 L598.595301,74.3870902 L605.739543,78.4028239 L613.652724,80.2989408 L619.056782,80.5769531 L619.037983,86.7141208 L582,84.5381746 L583.450153,49.7384803 L607.907611,50.0437487 L615.631019,53.7505799 L619.13287,55.2178672 Z M657.944158,88.9936402 L657.944158,89 L653.947285,88.7655974 L657.944158,88.9936402 Z" id="Shape" fill="#000000"></path>
            <path d="M663,4 L660.219645,50.736054 L633.4312,50.4471392 L629.479085,47.7269793 L618.895654,44.004703 L618.813299,28.1352865 L626.730956,28.8757442 L630.79765,31.3297027 L634.424823,36.0150283 L636.403119,40.2533536 L652.778211,41.4807871 L651.679855,37.687645 L649.371247,33.003228 L644.86503,28.8757442 L639.699979,25.1943521 L632.88605,22.6286435 L625.192182,21.1786184 L618.775703,20.863356 L618.707671,7.80495313 L663,4 Z M619.13287,55.2178672 L619.083636,71.5751681 L617.279001,70.9291982 L613.322411,68.029148 L609.915446,65.5751895 L605.848752,61.5594557 L601.562744,61.5594557 L594.968128,61.113364 L588.374407,61.3359556 L591.011538,66.1330312 L593.869771,70.3713565 L598.595301,74.3870902 L605.739543,78.4028239 L613.652724,80.2989408 L619.056782,80.5769531 L619.037983,86.7141208 L582,84.5381746 L583.450153,49.7384803 L607.907611,50.0437487 L615.631019,53.7505799 L619.13287,55.2178672 Z M657.944158,88.9936402 L657.944158,89 L653.947285,88.7655974 L657.944158,88.9936402 Z" id="Shape" stroke="#000000" stroke-width="0.5"></path>
            <path d="M637.156005,49 L664,49.3118224 L661.549161,91 L622,88.5687753 L622.019055,81.7918356 L625.899021,82.0056566 L632.695314,81.8838974 L637.596993,81.3978505 L642.944196,78.7240973 L646.620909,75.3207787 L648.180699,69.9732724 L648.849439,62.9241067 L646.732517,56.9687942 L642.164755,51.9855756 L637.156005,49 Z M622.047184,71.8006505 L622.09709,53.9406524 L626.122237,55.7531819 L633.92028,57.4548411 L638.59965,60.8581597 L639.825523,65.4761007 L637.708601,70.4593193 L632.806922,73.1330725 L626.456154,73.4983501 L622.047184,71.8006505 Z" id="Shape" fill="#C31F04"></path>
            <path d="M637.156005,49 L664,49.3118224 L661.549161,91 L622,88.5687753 L622.019055,81.7918356 L625.899021,82.0056566 L632.695314,81.8838974 L637.596993,81.3978505 L642.944196,78.7240973 L646.620909,75.3207787 L648.180699,69.9732724 L648.849439,62.9241067 L646.732517,56.9687942 L642.164755,51.9855756 L637.156005,49 Z M622.047184,71.8006505 L622.09709,53.9406524 L626.122237,55.7531819 L633.92028,57.4548411 L638.59965,60.8581597 L639.825523,65.4761007 L637.708601,70.4593193 L632.806922,73.1330725 L626.456154,73.4983501 L622.047184,71.8006505 Z" id="Shape" stroke="#C31F04" stroke-width="0.5"></path>
            <path d="M619.25729,43.4082569 C621.943983,44.6225245 627.862248,45.8988013 630.38826,47.3851685 C633.896311,49.4499788 640.64132,54.6726254 643.393542,57.6120416 C644.443803,58.7346839 645.567672,62.0785474 645.598192,63.6343278 C645.650256,66.3673555 645.103582,72.6219445 643.72388,74.7709761 C642.403424,76.8265313 637.286768,79.9584534 634.796663,80.4526751 C629.985211,81.4068748 619.549029,80.8904408 614.517651,80.5655872 C612.495225,80.4350904 608.38305,79.552155 606.582346,78.6340502 C603.423485,77.0236647 597.191039,72.9597553 594.679389,70.4525517 C592.837393,68.6135656 588.044792,62.088728 589.168661,61.248366 C591.047461,59.844369 602.755626,60.1488614 606.692758,61.4760411 C610.002426,62.5912793 615.114594,68.9578549 618.154964,71.0208142 C619.384757,71.8556232 622.328181,72.8588748 623.776104,73.0661888 C625.30392,73.2846089 628.563319,73.1069112 630.057921,72.7256015 C631.346062,72.3961204 634.002234,71.1577895 634.907075,70.225802 C635.738307,69.3687808 636.883719,66.7634733 637.001313,65.5667904 C637.104544,64.5191143 636.430402,62.0720689 635.788576,61.248366 C634.969911,60.1969879 632.438513,58.5606882 631.160246,58.0664664 C629.352361,57.3677072 625.268911,57.2085197 623.444868,56.4755167 C617.774357,54.1978393 606.462957,49.053861 601.18203,46.0218939 C599.684735,45.1620962 597.189244,42.4031542 596.332877,40.9084574 C595.480999,39.4202391 594.593214,35.8181586 594.349051,34.0902335 C594.207221,33.0916095 594.57167,30.9990339 594.789801,29.9994843 C595.068076,28.7259841 595.686563,26.0799542 596.332877,24.9998854 C596.927127,24.0068143 598.644349,21.9457061 599.749367,21.7041483 C604.375003,20.6953436 614.38749,19.9836273 619.25729,20 C622.901785,20.012318 630.23476,21.0785043 633.804749,21.8179858 C635.580319,22.1863384 639.108118,23.45336 640.638627,24.4316229 C643.24094,26.0956879 648.441975,29.9883782 650.336933,32.3863717 C651.720226,34.1355835 654.906017,40.3670347 653.753423,41.022295 C651.654696,42.2134249 640.70236,41.3527017 637.331651,39.7719325 C635.191632,38.7677554 633.379259,32.6751305 631.711409,30.6815843 C630.954683,29.7773622 628.778757,28.3650356 627.633345,28.1817849 C623.984361,27.5977888 616.210635,27.3414228 612.533825,27.6135224 C611.609236,27.6820101 609.718766,28.8055779 609.227747,29.5450594 C608.644269,30.4242929 608.052711,33.0240473 608.235834,34.0902335 C608.437807,35.2684063 609.83636,37.732111 610.770822,38.5224955 C612.591275,40.0616168 617.040072,42.4068563 619.25729,43.4082569 Z" id="Path" fill="#FFFFFF" fill-rule="nonzero"></path>
            <path d="M619.25729,43.4082569 C621.943983,44.6225245 627.862248,45.8988013 630.38826,47.3851685 C633.896311,49.4499788 640.64132,54.6726254 643.393542,57.6120416 C644.443803,58.7346839 645.567672,62.0785474 645.598192,63.6343278 C645.650256,66.3673555 645.103582,72.6219445 643.72388,74.7709761 C642.403424,76.8265313 637.286768,79.9584534 634.796663,80.4526751 C629.985211,81.4068748 619.549029,80.8904408 614.517651,80.5655872 C612.495225,80.4350904 608.38305,79.552155 606.582346,78.6340502 C603.423485,77.0236647 597.191039,72.9597553 594.679389,70.4525517 C592.837393,68.6135656 588.044792,62.088728 589.168661,61.248366 C591.047461,59.844369 602.755626,60.1488614 606.692758,61.4760411 C610.002426,62.5912793 615.114594,68.9578549 618.154964,71.0208142 C619.384757,71.8556232 622.328181,72.8588748 623.776104,73.0661888 C625.30392,73.2846089 628.563319,73.1069112 630.057921,72.7256015 C631.346062,72.3961204 634.002234,71.1577895 634.907075,70.225802 C635.738307,69.3687808 636.883719,66.7634733 637.001313,65.5667904 C637.104544,64.5191143 636.430402,62.0720689 635.788576,61.248366 C634.969911,60.1969879 632.438513,58.5606882 631.160246,58.0664664 C629.352361,57.3677072 625.268911,57.2085197 623.444868,56.4755167 C617.774357,54.1978393 606.462957,49.053861 601.18203,46.0218939 C599.684735,45.1620962 597.189244,42.4031542 596.332877,40.9084574 C595.480999,39.4202391 594.593214,35.8181586 594.349051,34.0902335 C594.207221,33.0916095 594.57167,30.9990339 594.789801,29.9994843 C595.068076,28.7259841 595.686563,26.0799542 596.332877,24.9998854 C596.927127,24.0068143 598.644349,21.9457061 599.749367,21.7041483 C604.375003,20.6953436 614.38749,19.9836273 619.25729,20 C622.901785,20.012318 630.23476,21.0785043 633.804749,21.8179858 C635.580319,22.1863384 639.108118,23.45336 640.638627,24.4316229 C643.24094,26.0956879 648.441975,29.9883782 650.336933,32.3863717 C651.720226,34.1355835 654.906017,40.3670347 653.753423,41.022295 C651.654696,42.2134249 640.70236,41.3527017 637.331651,39.7719325 C635.191632,38.7677554 633.379259,32.6751305 631.711409,30.6815843 C630.954683,29.7773622 628.778757,28.3650356 627.633345,28.1817849 C623.984361,27.5977888 616.210635,27.3414228 612.533825,27.6135224 C611.609236,27.6820101 609.718766,28.8055779 609.227747,29.5450594 C608.644269,30.4242929 608.052711,33.0240473 608.235834,34.0902335 C608.437807,35.2684063 609.83636,37.732111 610.770822,38.5224955 C612.591275,40.0616168 617.040072,42.4068563 619.25729,43.4082569 Z" id="Path" stroke="#FFFFFF" stroke-width="0.5"></path>
            <polygon id="Path" fill="#000000" fill-rule="nonzero" points="400.506226 14.6463733 479 13 476.379644 78 398 72.5100022"></polygon>
            <polygon id="Path" stroke="#000000" stroke-width="0.5" points="400.506226 14.6463733 479 13 476.379644 78 398 72.5100022"></polygon>
            <path d="M564,49.5 C564,71.867222 546.539213,90 525,90 C503.460787,90 486,71.867222 486,49.5 C486,27.1318422 503.460787,9 525,9 C546.539213,9 564,27.1318422 564,49.5 Z" id="Path" fill="#FFFFFF" fill-rule="nonzero"></path>
            <path d="M564,49.5 C564,71.867222 546.539213,90 525,90 C503.460787,90 486,71.867222 486,49.5 C486,27.1318422 503.460787,9 525,9 C546.539213,9 564,27.1318422 564,49.5 Z" id="Path" stroke="#000000" stroke-width="0.865393172"></path>
            <polygon id="Path" fill="#C31F04" fill-rule="nonzero" points="511.83043 11.8557364 536.859038 87.8291192 533.94618 88.8573332 529.739012 89.4286666 524.128576 90 518.41094 89.3142138 512.477146 87.4866914 507.082867 84.2875966 499.962842 78.8040988 495 72.8627899 547 18.1394732 544.841937 15.6261646 541.390443 13.6841894 537.398554 11.8557364 533.406665 10.256189 528.659981 9.34242783 524.884249 9 520.676203 9.22797505 516.685192 9.91376121"></polygon>
            <polygon id="Path" stroke="#C31F04" stroke-width="0.5" points="511.83043 11.8557364 536.859038 87.8291192 533.94618 88.8573332 529.739012 89.4286666 524.128576 90 518.41094 89.3142138 512.477146 87.4866914 507.082867 84.2875966 499.962842 78.8040988 495 72.8627899 547 18.1394732 544.841937 15.6261646 541.390443 13.6841894 537.398554 11.8557364 533.406665 10.256189 528.659981 9.34242783 524.884249 9 520.676203 9.22797505 516.685192 9.91376121"></polygon>
            <path d="M496.177862,38.5244687 C498.422765,35.7003276 510.975361,32.239272 513.008958,33.7065479 C514.780606,34.9849394 511.366538,45.5788902 511.400591,49.5034882 C511.420674,51.7126144 512.591586,56.1263043 513.223756,58.2414446 C513.503168,59.1785666 514.429595,60.9989742 515.046048,61.7152749 C515.635433,62.3996387 517.187917,63.6013814 518.047983,63.84319 C520.565313,64.5531033 526.033061,65.8433571 528.553884,65.5239873 C530.669558,65.2557167 534.938454,62.8823433 536.593971,61.4908036 C537.537861,60.6978542 538.557715,58.0397854 538.952385,56.7851185 C539.924216,53.6990942 541.744761,47.3436362 542.06172,44.1253016 C542.414478,40.5383231 540.895174,32.3022335 541.632997,29.5611286 C541.860019,28.7170799 545.690586,28.8521277 545.921101,29.7855999 C547.003824,34.1737402 547.150515,45.6354643 546.885947,50.8475786 C546.747987,53.561309 545.189391,58.9303707 544.312735,61.4908036 C543.876153,62.7682826 542.474726,65.1745056 541.632997,66.1964888 C540.812223,67.1910974 538.81006,69.0060301 537.666216,69.557171 C535.031009,70.8264377 529.35894,72.7928428 526.516794,73.4781191 C524.829842,73.8850874 521.269082,74.1314583 519.548951,73.9261492 C516.096463,73.5155309 508.745302,72.6733073 505.826317,71.0134971 C503.277553,69.5644709 499.383245,64.0786111 497.67883,61.4908036 C496.837101,60.2133246 495.743027,57.1044882 495.64174,55.5532637 C495.367567,51.3631326 494.080524,41.1624628 496.177862,38.5244687 Z" id="Path" fill="#000000" fill-rule="nonzero"></path>
            <path d="M496.177862,38.5244687 C498.422765,35.7003276 510.975361,32.239272 513.008958,33.7065479 C514.780606,34.9849394 511.366538,45.5788902 511.400591,49.5034882 C511.420674,51.7126144 512.591586,56.1263043 513.223756,58.2414446 C513.503168,59.1785666 514.429595,60.9989742 515.046048,61.7152749 C515.635433,62.3996387 517.187917,63.6013814 518.047983,63.84319 C520.565313,64.5531033 526.033061,65.8433571 528.553884,65.5239873 C530.669558,65.2557167 534.938454,62.8823433 536.593971,61.4908036 C537.537861,60.6978542 538.557715,58.0397854 538.952385,56.7851185 C539.924216,53.6990942 541.744761,47.3436362 542.06172,44.1253016 C542.414478,40.5383231 540.895174,32.3022335 541.632997,29.5611286 C541.860019,28.7170799 545.690586,28.8521277 545.921101,29.7855999 C547.003824,34.1737402 547.150515,45.6354643 546.885947,50.8475786 C546.747987,53.561309 545.189391,58.9303707 544.312735,61.4908036 C543.876153,62.7682826 542.474726,65.1745056 541.632997,66.1964888 C540.812223,67.1910974 538.81006,69.0060301 537.666216,69.557171 C535.031009,70.8264377 529.35894,72.7928428 526.516794,73.4781191 C524.829842,73.8850874 521.269082,74.1314583 519.548951,73.9261492 C516.096463,73.5155309 508.745302,72.6733073 505.826317,71.0134971 C503.277553,69.5644709 499.383245,64.0786111 497.67883,61.4908036 C496.837101,60.2133246 495.743027,57.1044882 495.64174,55.5532637 C495.367567,51.3631326 494.080524,41.1624628 496.177862,38.5244687 Z" id="Path" stroke="#000000" stroke-width="0.5"></path>
            <path d="M474.855924,41.0105699 C477.610582,41.4348883 485.750133,41.5751778 485.750133,41.5751778 L486,54 L473.228218,53.0110738 C473.228218,53.0110738 472.101266,40.5874015 474.855924,41.0105699 Z" id="Path" fill="#000000" fill-rule="nonzero"></path>
            <path d="M474.855924,41.0105699 C477.610582,41.4348883 485.750133,41.5751778 485.750133,41.5751778 L486,54 L473.228218,53.0110738 C473.228218,53.0110738 472.101266,40.5874015 474.855924,41.0105699 Z" id="Path" stroke="#000000" stroke-width="0.5"></path>
            <path d="M761,49.5 C761,71.8675452 743.539647,90 722,90 C700.460353,90 683,71.8675452 683,49.5 C683,27.1324548 700.460353,9 722,9 C743.539647,9 761,27.1324548 761,49.5 Z" id="Path" fill="#C31F04" fill-rule="nonzero"></path>
            <path d="M761,49.5 C761,71.8675452 743.539647,90 722,90 C700.460353,90 683,71.8675452 683,49.5 C683,27.1324548 700.460353,9 722,9 C743.539647,9 761,27.1324548 761,49.5 Z" id="Path" stroke="#C31F04" stroke-width="0.5"></path>
            <polygon id="Path" fill="#000000" fill-rule="nonzero" points="696 18.8113959 742.302442 83.4974763 732.187742 89.4294728 719.825839 90 709.036521 88.4027096 697.348322 85.209058 745 16.1873423 739.043769 12.7651081 728.254451 9 717.128281 9.68481852 707.57561 11.7383449 701.05735 14.0195246"></polygon>
            <polygon id="Path" stroke="#000000" stroke-width="0.5" points="696 18.8113959 742.302442 83.4974763 732.187742 89.4294728 719.825839 90 709.036521 88.4027096 697.348322 85.209058 745 16.1873423 739.043769 12.7651081 728.254451 9 717.128281 9.68481852 707.57561 11.7383449 701.05735 14.0195246"></polygon>
            <path d="M761,49.5 C761,71.8675452 743.538945,90 722.000452,90 C700.461055,90 683,71.8675452 683,49.5 C683,27.1324548 700.461055,9 722.000452,9 C743.538945,9 761,27.1324548 761,49.5 Z" id="Path" stroke="#000000" stroke-width="0.5"></path>
            <polygon id="Path" fill="#FFFFFF" fill-rule="nonzero" points="693 32.0387781 707.653069 30.4022933 707.762541 32.0387781 744.008473 29 744.449052 37.6489031 710.406913 39.9870105 710.847492 44.8964649 739.491415 45.0126087 739.491415 53.8957033 712.169229 55.1818528 712.169229 62.3113669 745 62.0781273 744.889631 71.8960841 703.466221 74 701.042588 40.2202501 693.881158 40.9218727"></polygon>
            <polygon id="Path" stroke="#FFFFFF" stroke-width="0.5" points="693 32.0387781 707.653069 30.4022933 707.762541 32.0387781 744.008473 29 744.449052 37.6489031 710.406913 39.9870105 710.847492 44.8964649 739.491415 45.0126087 739.491415 53.8957033 712.169229 55.1818528 712.169229 62.3113669 745 62.0781273 744.889631 71.8960841 703.466221 74 701.042588 40.2202501 693.881158 40.9218727"></polygon>
            <polygon id="Path" fill="#C31F04" fill-rule="nonzero" points="438.190563 20 470 20.977548 467.728149 49 437 47.1537171"></polygon>
            <polygon id="Path" stroke="#C31F04" stroke-width="0.5" points="438.190563 20 470 20.977548 467.728149 49 437 47.1537171"></polygon>
            <polygon id="Path" fill="#C31F04" fill-rule="nonzero" points="402.234209 49 434 50.4015224 431.979555 74 401 71.7802093"></polygon>
            <polygon id="Path" stroke="#C31F04" stroke-width="0.5" points="402.234209 49 434 50.4015224 431.979555 74 401 71.7802093"></polygon>
            <path d="M459,50.5004705 C459,58.5087127 448.925956,65 436.499524,65 C424.073092,65 414,58.5087127 414,50.5004705 C414,42.4922283 424.073092,36 436.499524,36 C448.925956,36 459,42.4922283 459,50.5004705 Z" id="Path" stroke="#FFFFFF" stroke-width="0.865393172"></path>
            <polygon id="Path" fill="#000000" fill-rule="nonzero" points="388 32 401 32.4911186 400.094972 45 388.791785 44.0188892"></polygon>
            <polygon id="Path" stroke="#000000" stroke-width="0.5" points="388 32 401 32.4911186 400.094972 45 388.791785 44.0188892"></polygon>
            <path d="M582,47.5 C582,51.0900745 579.089658,54 575.500445,54 C571.910342,54 569,51.0900745 569,47.5 C569,43.9099255 571.910342,41 575.500445,41 C579.089658,41 582,43.9099255 582,47.5 Z" id="Path" fill="#000000" fill-rule="nonzero"></path>
            <path d="M582,47.5 C582,51.0900745 579.089658,54 575.500445,54 C571.910342,54 569,51.0900745 569,47.5 C569,43.9099255 571.910342,41 575.500445,41 C579.089658,41 582,43.9099255 582,47.5 Z" id="Path" stroke="#000000" stroke-width="0.5"></path>
            <path d="M676,51.5 C676,55.0900745 673.089658,58 669.500445,58 C665.910342,58 663,55.0900745 663,51.5 C663,47.9099255 665.910342,45 669.500445,45 C673.089658,45 676,47.9099255 676,51.5 Z" id="Path" fill="#C31F04" fill-rule="nonzero"></path>
            <path d="M676,51.5 C676,55.0900745 673.089658,58 669.500445,58 C665.910342,58 663,55.0900745 663,51.5 C663,47.9099255 665.910342,45 669.500445,45 C673.089658,45 676,47.9099255 676,51.5 Z" id="Path" stroke="#000000" stroke-width="0.5"></path>
            <polygon id="Path" fill="#C31F04" fill-rule="nonzero" points="298.467421 36.1186368 307 36 306.532579 44.0528346 298 45"></polygon>
            <polygon id="Path" stroke="#C31F04" stroke-width="0.5" points="298.467421 36.1186368 307 36 306.532579 44.0528346 298 45"></polygon>
            <path d="M389,42.5004585 C389,65.9720379 369.524321,85 345.499531,85 C321.475679,85 302,65.9720379 302,42.5004585 C302,19.0279621 321.475679,0 345.499531,0 C369.524321,0 389,19.0279621 389,42.5004585 Z" id="Path" fill="#000000" fill-rule="nonzero"></path>
            <path d="M389,42.5004585 C389,65.9720379 369.524321,85 345.499531,85 C321.475679,85 302,65.9720379 302,42.5004585 C302,19.0279621 321.475679,0 345.499531,0 C369.524321,0 389,19.0279621 389,42.5004585 Z" id="Path" stroke="#000000" stroke-width="0.5"></path>
            <polygon id="Path" fill="#C31F04" fill-rule="nonzero" points="204.674458 45.1186368 217 45 216.324391 53.0528346 204 54"></polygon>
            <polygon id="Path" stroke="#C31F04" stroke-width="0.5" points="204.674458 45.1186368 217 45 216.324391 53.0528346 204 54"></polygon>
            <polygon id="Path" fill="#000000" fill-rule="nonzero" points="297.536722 0 298 74.6175902 211.463278 90 211 9.06844106"></polygon>
            <polygon id="Path" stroke="#000000" stroke-width="0.5" points="297.536722 0 298 74.6175902 211.463278 90 211 9.06844106"></polygon>
            <polygon id="Path" fill="#C31F04" fill-rule="nonzero" points="213 9.01739721 257.289159 4 258 49.8420319 213.710841 56"></polygon>
            <polygon id="Path" stroke="#C31F04" stroke-width="0.5" points="213 9.01739721 257.289159 4 258 49.8420319 213.710841 56"></polygon>
            <polygon id="Path" fill="#C31F04" fill-rule="nonzero" points="256 50.191309 256.792957 81 297.886589 73.8904435 298 45"></polygon>
            <polygon id="Path" stroke="#C31F04" stroke-width="0.5" points="256 50.191309 256.792957 81 297.886589 73.8904435 298 45"></polygon>
            <polygon id="Path" fill="#000000" fill-rule="nonzero" points="94 41 109.219752 42.8576831 110 54 94.097531 51.1118464"></polygon>
            <polygon id="Path" stroke="#000000" stroke-width="0.5" points="94 41 109.219752 42.8576831 110 54 94.097531 51.1118464"></polygon>
            <path d="M201,45 C201,69.8524475 181.524256,90 157.500471,90 C133.475744,90 114,69.8524475 114,45 C114,20.1475525 133.475744,0 157.500471,0 C181.524256,0 201,20.1475525 201,45 Z" id="Path" fill="#FFFFFF" fill-rule="nonzero"></path>
            <path d="M201,45 C201,69.8524475 181.524256,90 157.500471,90 C133.475744,90 114,69.8524475 114,45 C114,20.1475525 133.475744,0 157.500471,0 C181.524256,0 201,20.1475525 201,45 Z" id="Path" stroke="#000000" stroke-width="0.865393172"></path>
            <path d="M313.583989,33.2581071 C314.864809,32.4511699 321.254979,36.8269704 321.908857,35.5092786 C323.420949,32.4640075 320.122767,18.198641 322.250656,15.8071725 C323.829623,14.0337445 335.087653,16.5407518 336.733493,18.8469417 C338.622679,21.494246 333.999095,33.7780314 336.391693,35.6220664 C339.586778,38.0850589 356.261591,38.8314758 359.084225,36.0723007 C361.935653,33.2865333 357.984522,17.7649123 359.084225,13.4432132 C359.35265,12.3886929 364.277167,13.3982815 364.558595,14.5692574 C365.759538,19.5621815 362.882104,34.9508413 365.014637,38.0988135 C366.218367,39.8768263 375.220332,34.2080923 377.90086,34.2713635 C378.784152,34.2924539 379.140813,37.3560645 379.268988,38.437177 C379.654441,41.6906012 380.155995,48.3478333 379.953516,51.6095103 C379.813267,53.8643497 379.401807,60.1492903 377.90086,60.5032423 C375.581637,61.0497589 366.129202,53.6277703 364.672837,55.2123016 C362.479932,57.5964344 364.667265,72.1607344 363.303781,76.3778984 C362.956408,77.4525921 358.085761,77.4599279 357.83034,76.3778984 C356.803083,72.0277732 360.887033,57.4414657 358.17214,54.6492795 C355.442386,51.8405878 338.931042,51.266562 336.048964,53.9734696 C333.029423,56.8105875 336.85238,73.2427639 334.566594,76.8281327 C333.317353,78.7877064 323.157169,78.1027268 321.908857,76.1523228 C320.021527,73.2051679 323.24912,60.1043586 322.023099,57.2388145 C321.539193,56.1072684 316.285879,60.7480744 315.06636,60.1657959 C313.634144,59.4817332 311.872204,54.2733201 311.41709,52.1725324 C310.903461,49.7975694 310.909963,44.7028612 311.189533,42.264627 C311.451456,39.9740256 312.18521,34.1402362 313.583989,33.2581071 Z" id="Path" fill="#FFFFFF" fill-rule="nonzero"></path>
            <path d="M313.583989,33.2581071 C314.864809,32.4511699 321.254979,36.8269704 321.908857,35.5092786 C323.420949,32.4640075 320.122767,18.198641 322.250656,15.8071725 C323.829623,14.0337445 335.087653,16.5407518 336.733493,18.8469417 C338.622679,21.494246 333.999095,33.7780314 336.391693,35.6220664 C339.586778,38.0850589 356.261591,38.8314758 359.084225,36.0723007 C361.935653,33.2865333 357.984522,17.7649123 359.084225,13.4432132 C359.35265,12.3886929 364.277167,13.3982815 364.558595,14.5692574 C365.759538,19.5621815 362.882104,34.9508413 365.014637,38.0988135 C366.218367,39.8768263 375.220332,34.2080923 377.90086,34.2713635 C378.784152,34.2924539 379.140813,37.3560645 379.268988,38.437177 C379.654441,41.6906012 380.155995,48.3478333 379.953516,51.6095103 C379.813267,53.8643497 379.401807,60.1492903 377.90086,60.5032423 C375.581637,61.0497589 366.129202,53.6277703 364.672837,55.2123016 C362.479932,57.5964344 364.667265,72.1607344 363.303781,76.3778984 C362.956408,77.4525921 358.085761,77.4599279 357.83034,76.3778984 C356.803083,72.0277732 360.887033,57.4414657 358.17214,54.6492795 C355.442386,51.8405878 338.931042,51.266562 336.048964,53.9734696 C333.029423,56.8105875 336.85238,73.2427639 334.566594,76.8281327 C333.317353,78.7877064 323.157169,78.1027268 321.908857,76.1523228 C320.021527,73.2051679 323.24912,60.1043586 322.023099,57.2388145 C321.539193,56.1072684 316.285879,60.7480744 315.06636,60.1657959 C313.634144,59.4817332 311.872204,54.2733201 311.41709,52.1725324 C310.903461,49.7975694 310.909963,44.7028612 311.189533,42.264627 C311.451456,39.9740256 312.18521,34.1402362 313.583989,33.2581071 Z" id="Path" stroke="#FFFFFF" stroke-width="0.5"></path>
            <polygon id="Path" fill="#C31F04" fill-rule="nonzero" points="344 42.3339367 324.216606 52 324 32"></polygon>
            <polygon id="Path" stroke="#C31F04" stroke-width="0.5" points="344 42.3339367 324.216606 52 324 32"></polygon>
            <polygon id="Path" fill="#C31F04" fill-rule="nonzero" points="343 43.8346253 363 36 362.782214 52"></polygon>
            <polygon id="Path" stroke="#C31F04" stroke-width="0.5" points="343 43.8346253 363 36 362.782214 52"></polygon>
            <polygon id="Path" fill="#C31F04" fill-rule="nonzero" points="139 3.53330331 150.418592 49 197 25.0890438 195.078177 20.7306954 192.13789 16.726349 187.842105 12.0139987 184.224069 8.83373796 180.153894 6.24252095 174.7273 3.29826141 168.395507 1.41312945 163.759927 0.471043151 159.012003 0 153.245614 0 148.27116 0.825045031 144.200984 1.76713133"></polygon>
            <polygon id="Path" stroke="#C31F04" stroke-width="0.5" points="139 3.53330331 150.418592 49 197 25.0890438 195.078177 20.7306954 192.13789 16.726349 187.842105 12.0139987 184.224069 8.83373796 180.153894 6.24252095 174.7273 3.29826141 168.395507 1.41312945 163.759927 0.471043151 159.012003 0 153.245614 0 148.27116 0.825045031 144.200984 1.76713133"></polygon>
            <polygon id="Path" fill="#000000" fill-rule="nonzero" points="117 63.447338 149 49 159 94 154 93.5264275 148 92.1047454 141.777376 89.7368827 136.666968 86.894483 131.666968 82.75 127 78.841821 123.111312 73.3942901 120.222624 69.0135031"></polygon>
            <polygon id="Path" stroke="#000000" stroke-width="0.5" points="117 63.447338 149 49 159 94 154 93.5264275 148 92.1047454 141.777376 89.7368827 136.666968 86.894483 131.666968 82.75 127 78.841821 123.111312 73.3942901 120.222624 69.0135031"></polygon>
            <path d="M130.627303,23.2325309 L176.690739,9 L174.272239,27.3315592 L164.377966,29.9504859 L179,69.9160115 L168.555946,76.9752429 L161.959466,64.9062941 L139.862555,64.109673 L136.894273,78 L130.518063,77.3174469 L137.8837,34.0495141 L128.758584,32.6834805 L127,24.8267005 L130.627303,23.2325309 Z M150.306609,27.5596952 L143.270482,53.8621023 L158.770913,53.5198984 L150.306609,27.5596952 Z" id="Shape" fill="#000000" fill-rule="nonzero"></path>
            <path d="M130.627303,23.2325309 L176.690739,9 L174.272239,27.3315592 L164.377966,29.9504859 L179,69.9160115 L168.555946,76.9752429 L161.959466,64.9062941 L139.862555,64.109673 L136.894273,78 L130.518063,77.3174469 L137.8837,34.0495141 L128.758584,32.6834805 L127,24.8267005 L130.627303,23.2325309 Z M150.306609,27.5596952 L143.270482,53.8621023 L158.770913,53.5198984 L150.306609,27.5596952 Z" id="Shape" stroke="#000000" stroke-width="0.5"></path>
            <polygon id="Path" fill="#FFFFFF" fill-rule="nonzero" points="150.170368 58.7111258 152 65.9191301 137.365926 65.6148344 134.073185 78 127 77.3914086 131.268147 58"></polygon>
            <polygon id="Path" stroke="#FFFFFF" stroke-width="0.5" points="150.170368 58.7111258 152 65.9191301 137.365926 65.6148344 134.073185 78 127 77.3914086 131.268147 58"></polygon>
            <polygon id="Path" fill="#000000" fill-rule="nonzero" points="1.83611789 62 48.8852251 55.5716628 49 13 0 16.7936117"></polygon>
            <polygon id="Path" stroke="#000000" stroke-width="0.5" points="1.83611789 62 48.8852251 55.5716628 49 13 0 16.7936117"></polygon>
            <polygon id="Path" fill="#C31F04" fill-rule="nonzero" points="49 56.9019708 49.9830047 85 93.4544621 78.8538288 94 49"></polygon>
            <polygon id="Path" stroke="#C31F04" stroke-width="0.5" points="49 56.9019708 49.9830047 85 93.4544621 78.8538288 94 49"></polygon>
            <polygon id="Path" fill="#000000" fill-rule="nonzero" points="27.271364 26.5253685 34.5169659 26.5253685 47.0016158 57.2310874 72.4166954 23 81 25.0470479 79.4393166 79.976476 57.9256731 79.6346839 68.6271128 72.3570117 70.2985603 48.8159605 55.1393222 72.8118083 46.8901254 73.949263 30.5040395 43.6983407 26.9369837 72.3570117 34.8513462 78.0433588 12 81 20.0258528 75.4275836"></polygon>
            <polygon id="Path" stroke="#000000" stroke-width="0.5" points="27.271364 26.5253685 34.5169659 26.5253685 47.0016158 57.2310874 72.4166954 23 81 25.0470479 79.4393166 79.976476 57.9256731 79.6346839 68.6271128 72.3570117 70.2985603 48.8159605 55.1393222 72.8118083 46.8901254 73.949263 30.5040395 43.6983407 26.9369837 72.3570117 34.8513462 78.0433588 12 81 20.0258528 75.4275836"></polygon>
            <polygon id="Path" fill="#C31F04" fill-rule="nonzero" points="28.7571547 29 36.2332433 29 48.1948352 58.2029722 49 74.2695584 32.0926634 45.3928517 28.4121376 72.7496387 36.5782604 78.1776708 13 81 21.2811597 75.680723"></polygon>
            <polygon id="Path" stroke="#C31F04" stroke-width="0.5" points="28.7571547 29 36.2332433 29 48.1948352 58.2029722 49 74.2695584 32.0926634 45.3928517 28.4121376 72.7496387 36.5782604 78.1776708 13 81 21.2811597 75.680723"></polygon>
            <polygon id="Path" fill="#FFFFFF" fill-rule="nonzero" points="29.0233307 25 36.6168438 25 49 55.3736155 40.3550833 56.4012908 32.4112292 42.2426232 30.4251705 57.2011104 24 58"></polygon>
            <polygon id="Path" stroke="#FFFFFF" stroke-width="0.5" points="29.0233307 25 36.6168438 25 49 55.3736155 40.3550833 56.4012908 32.4112292 42.2426232 30.4251705 57.2011104 24 58"></polygon>
            <path d="M233.323586,79.3504829 C231.816909,76.9199908 231.134911,69.4710168 230.781349,66.130022 C230.285106,61.4461057 230.981461,51.0512784 229.923467,47.2499066 C229.667718,46.3310166 225.676236,48.2153935 225.527274,47.2499066 C224.710671,41.9537076 222.270734,24.6905032 226.063001,22.2040948 C232.269181,18.135257 255.705677,20.9264089 265.522856,21.0261262 C266.945181,21.0401052 269.778164,21.9739063 271.021015,22.6616759 C272.857025,23.6784194 276.358545,26.3204613 277.839199,27.8451106 C279.102689,29.1460949 281.240214,32.2885871 281.994899,33.9642101 C283.00264,36.2008594 284.62418,41.0525243 284.888902,43.4941998 C285.187725,46.2415506 284.853008,52.0204931 284.251773,54.7184512 C283.676562,57.302713 281.681718,62.5169016 280.184912,64.6230796 C278.712335,66.6929121 274.523433,70.0376347 272.37514,71.4215614 C269.569078,73.2276556 263.539679,76.4465667 260.368389,77.3831635 C255.441852,78.8369855 245.063819,80.6113939 239.983833,80.981373 C238.30217,81.1034568 234.117754,80.6328285 233.323586,79.3504829 Z M243.569705,71.3414148 C242.48838,67.6416242 242.456972,57.9895507 242.758487,53.5889433 C243.062694,49.1510585 243.890065,38.906273 245.99349,35.9855819 C247.236341,34.2596342 253.663273,34.6519798 256.144489,35.004252 C259.824585,35.5261368 267.98792,37.2865662 270.640532,39.4803463 C272.549229,41.058116 274.416646,47.4185872 274.387931,50.0913831 C274.353831,53.2879276 272.290787,60.4591843 270.386578,62.955844 C268.30469,65.6864199 261.650724,69.5903048 258.44354,70.9984619 C256.135515,72.0114776 250.837469,72.584619 248.324846,72.6423991 C247.118786,72.6703572 243.880194,72.4047551 243.569705,71.3414148 L243.569705,71.3414148 Z" id="Shape" fill="#FFFFFF"></path>
            <path d="M233.323586,79.3504829 C231.816909,76.9199908 231.134911,69.4710168 230.781349,66.130022 C230.285106,61.4461057 230.981461,51.0512784 229.923467,47.2499066 C229.667718,46.3310166 225.676236,48.2153935 225.527274,47.2499066 C224.710671,41.9537076 222.270734,24.6905032 226.063001,22.2040948 C232.269181,18.135257 255.705677,20.9264089 265.522856,21.0261262 C266.945181,21.0401052 269.778164,21.9739063 271.021015,22.6616759 C272.857025,23.6784194 276.358545,26.3204613 277.839199,27.8451106 C279.102689,29.1460949 281.240214,32.2885871 281.994899,33.9642101 C283.00264,36.2008594 284.62418,41.0525243 284.888902,43.4941998 C285.187725,46.2415506 284.853008,52.0204931 284.251773,54.7184512 C283.676562,57.302713 281.681718,62.5169016 280.184912,64.6230796 C278.712335,66.6929121 274.523433,70.0376347 272.37514,71.4215614 C269.569078,73.2276556 263.539679,76.4465667 260.368389,77.3831635 C255.441852,78.8369855 245.063819,80.6113939 239.983833,80.981373 C238.30217,81.1034568 234.117754,80.6328285 233.323586,79.3504829 Z M243.569705,71.3414148 C242.48838,67.6416242 242.456972,57.9895507 242.758487,53.5889433 C243.062694,49.1510585 243.890065,38.906273 245.99349,35.9855819 C247.236341,34.2596342 253.663273,34.6519798 256.144489,35.004252 C259.824585,35.5261368 267.98792,37.2865662 270.640532,39.4803463 C272.549229,41.058116 274.416646,47.4185872 274.387931,50.0913831 C274.353831,53.2879276 272.290787,60.4591843 270.386578,62.955844 C268.30469,65.6864199 261.650724,69.5903048 258.44354,70.9984619 C256.135515,72.0114776 250.837469,72.584619 248.324846,72.6423991 C247.118786,72.6703572 243.880194,72.4047551 243.569705,71.3414148 L243.569705,71.3414148 Z" id="Shape" stroke="#FFFFFF" stroke-width="0.5"></path>
        </g>
    </g>
</svg>